<?xml version="1.0" encoding="UTF-8" standalone="no"?>
<svg
   width="64"
   height="64"
   version="1"
   id="svg3"
   sodipodi:docname="drive-optical.svg"
   inkscape:version="1.3.2 (091e20ef0f, 2023-11-25, custom)"
   xmlns:inkscape="http://www.inkscape.org/namespaces/inkscape"
   xmlns:sodipodi="http://sodipodi.sourceforge.net/DTD/sodipodi-0.dtd"
   xmlns:xlink="http://www.w3.org/1999/xlink"
   xmlns="http://www.w3.org/2000/svg"
   xmlns:svg="http://www.w3.org/2000/svg">
  <defs
     id="defs3">
    <filter
       inkscape:collect="always"
       style="color-interpolation-filters:sRGB"
       id="filter3"
       x="-0.016186089"
       y="-0.020600477"
       width="1.0323722"
       height="1.041201">
      <feGaussianBlur
         inkscape:collect="always"
         stdDeviation="0.37767542"
         id="feGaussianBlur3" />
    </filter>
    <radialGradient
       inkscape:collect="always"
       xlink:href="#linearGradient4"
       id="radialGradient5"
       cx="-54.994705"
       cy="-7.5219774"
       fx="-54.994705"
       fy="-7.5219774"
       r="28"
       gradientTransform="matrix(1.3536269,1.4041998,-1.6610116,2.5915664,6.8771212,89.185385)"
       gradientUnits="userSpaceOnUse" />
    <linearGradient
       id="linearGradient4"
       inkscape:collect="always">
      <stop
         style="stop-color:#a5a5a5;stop-opacity:1;"
         offset="0"
         id="stop4" />
      <stop
         style="stop-color:#5f5f5f;stop-opacity:1;"
         offset="1"
         id="stop5" />
    </linearGradient>
    <filter
       inkscape:collect="always"
       style="color-interpolation-filters:sRGB"
       id="filter4"
       x="-0.10925345"
       y="-0.10925345"
       width="1.2185069"
       height="1.2185069">
      <feGaussianBlur
         inkscape:collect="always"
         stdDeviation="1.8208909"
         id="feGaussianBlur4" />
    </filter>
  </defs>
  <sodipodi:namedview
     id="namedview3"
     pagecolor="#ffffff"
     bordercolor="#000000"
     borderopacity="0.25"
     inkscape:showpageshadow="2"
     inkscape:pageopacity="0.0"
     inkscape:pagecheckerboard="0"
     inkscape:deskcolor="#d1d1d1"
     inkscape:zoom="13.875"
     inkscape:cx="32"
     inkscape:cy="33.369369"
     inkscape:window-width="1920"
     inkscape:window-height="1017"
     inkscape:window-x="0"
     inkscape:window-y="0"
     inkscape:window-maximized="1"
     inkscape:current-layer="svg3" />
  <rect
     style="filter:url(#filter3)"
     width="56"
     height="44"
     x="-61"
     y="-54"
     rx="12.310265"
     ry="12.310265"
     transform="matrix(0,-0.98852591,-1.2576154,0,-8.2436922,0.01384)"
     id="rect1-6" />
  <rect
     style="fill:url(#radialGradient5);stroke-width:1.12792"
     width="56"
     height="55.977367"
     x="-60.076393"
     y="-59.988686"
     rx="13.562764"
     ry="13.562764"
     transform="matrix(0,-1,-1,0,0,0)"
     id="rect2-7" />
  <path
     style="opacity:0.5"
     d="M 32,12 A 20,20 0 0 0 12,32 20,20 0 0 0 32,52 20,20 0 0 0 52,32 20,20 0 0 0 32,12 Z M 32,24 A 8,8 0 0 1 40,32 8,8 0 0 1 32,40 8,8 0 0 1 24,32 8,8 0 0 1 32,24 Z"
     id="path2" />
  <path
     style="opacity:0.5;filter:url(#filter4)"
     d="M 32,12 A 20,20 0 0 0 12,32 20,20 0 0 0 32,52 20,20 0 0 0 52,32 20,20 0 0 0 32,12 Z m 0,12 a 8,8 0 0 1 8,8 8,8 0 0 1 -8,8 8,8 0 0 1 -8,-8 8,8 0 0 1 8,-8 z"
     id="path2-5" />
</svg>
