<?xml version="1.0" encoding="UTF-8" standalone="no"?>
<svg
   width="64"
   height="64"
   version="1"
   id="svg3"
   sodipodi:docname="drive-harddisk.svg"
   inkscape:version="1.3.2 (091e20ef0f, 2023-11-25, custom)"
   xmlns:inkscape="http://www.inkscape.org/namespaces/inkscape"
   xmlns:sodipodi="http://sodipodi.sourceforge.net/DTD/sodipodi-0.dtd"
   xmlns:xlink="http://www.w3.org/1999/xlink"
   xmlns="http://www.w3.org/2000/svg"
   xmlns:svg="http://www.w3.org/2000/svg">
  <defs
     id="defs3">
    <linearGradient
       id="linearGradient4"
       inkscape:collect="always">
      <stop
         style="stop-color:#8e8e8e;stop-opacity:1;"
         offset="0"
         id="stop4" />
      <stop
         style="stop-color:#5f5f5f;stop-opacity:1;"
         offset="1"
         id="stop5" />
    </linearGradient>
    <filter
       inkscape:collect="always"
       style="color-interpolation-filters:sRGB"
       id="filter3"
       x="-0.016186089"
       y="-0.020600477"
       width="1.0323722"
       height="1.041201">
      <feGaussianBlur
         inkscape:collect="always"
         stdDeviation="0.37767542"
         id="feGaussianBlur3" />
    </filter>
    <filter
       inkscape:collect="always"
       style="color-interpolation-filters:sRGB"
       id="filter4"
       x="-0.090093347"
       y="-0.090093347"
       width="1.1801867"
       height="1.1801867">
      <feGaussianBlur
         inkscape:collect="always"
         stdDeviation="1.051089"
         id="feGaussianBlur4" />
    </filter>
    <radialGradient
       inkscape:collect="always"
       xlink:href="#linearGradient4"
       id="radialGradient5"
       cx="-54.994705"
       cy="-7.5219774"
       fx="-54.994705"
       fy="-7.5219774"
       r="28"
       gradientTransform="matrix(1.3536269,1.1037459,-1.6610116,2.037054,6.9535157,63.255584)"
       gradientUnits="userSpaceOnUse" />
  </defs>
  <sodipodi:namedview
     id="namedview3"
     pagecolor="#ffffff"
     bordercolor="#000000"
     borderopacity="0.25"
     inkscape:showpageshadow="2"
     inkscape:pageopacity="0.0"
     inkscape:pagecheckerboard="0"
     inkscape:deskcolor="#d1d1d1"
     inkscape:zoom="13.875"
     inkscape:cx="32"
     inkscape:cy="32"
     inkscape:window-width="1920"
     inkscape:window-height="1017"
     inkscape:window-x="0"
     inkscape:window-y="0"
     inkscape:window-maximized="1"
     inkscape:current-layer="svg3" />
  <rect
     style="opacity:1;filter:url(#filter3)"
     width="56"
     height="44"
     x="-61"
     y="-54"
     rx="9.9486523"
     ry="9.9486523"
     transform="matrix(0,-0.98852591,-0.98852591,0,0.36717092,-0.0625545)"
     id="rect1" />
  <rect
     style="fill:url(#radialGradient5)"
     width="56"
     height="44"
     x="-60"
     y="-54"
     rx="9.9131765"
     ry="9.9131765"
     transform="matrix(0,-1,-1,0,0,0)"
     id="rect2" />
  <path
     style="opacity:0.5"
     d="m 32,12 c -7.732,0 -14,6.268 -14,14 l 0,14 14,0 C 39.732,40 46,33.732 46,26 46,18.268 39.732,12 32,12 Z m 0,8 a 6,6 0 0 1 6,6 6,6 0 0 1 -6,6 6,6 0 0 1 -6,-6 6,6 0 0 1 6,-6 z"
     id="path2" />
  <path
     style="opacity:0.5;filter:url(#filter4)"
     d="m 31.845694,12.381647 c -7.732,0 -14,6.268 -14,14 v 14 h 14 c 7.732,0 14,-6.268 14,-14 0,-7.732 -6.268,-14 -14,-14 z m 0,8 a 6,6 0 0 1 6,6 6,6 0 0 1 -6,6 6,6 0 0 1 -6,-6 6,6 0 0 1 6,-6 z"
     id="path2-3" />
</svg>
