<?xml version="1.0" encoding="UTF-8" standalone="no"?>
<svg
   width="64"
   height="64"
   version="1.1"
   id="svg7"
   sodipodi:docname="application-pkcs7-mime.svg"
   inkscape:version="1.3.2 (091e20ef0f, 2023-11-25, custom)"
   xmlns:inkscape="http://www.inkscape.org/namespaces/inkscape"
   xmlns:sodipodi="http://sodipodi.sourceforge.net/DTD/sodipodi-0.dtd"
   xmlns:xlink="http://www.w3.org/1999/xlink"
   xmlns="http://www.w3.org/2000/svg"
   xmlns:svg="http://www.w3.org/2000/svg">
  <defs
     id="defs7">
    <filter
       inkscape:collect="always"
       style="color-interpolation-filters:sRGB"
       id="filter8-3"
       x="-0.037908535"
       y="-0.029785277"
       width="1.0758171"
       height="1.0595706">
      <feGaussianBlur
         inkscape:collect="always"
         stdDeviation="0.69498981"
         id="feGaussianBlur8-6" />
    </filter>
    <radialGradient
       inkscape:collect="always"
       xlink:href="#linearGradient9"
       id="radialGradient10"
       cx="11.199748"
       cy="52.255859"
       fx="11.199748"
       fy="52.255859"
       r="22"
       gradientTransform="matrix(2.3937499,-0.64140334,0.81633154,3.0465908,-58.267755,-95.238475)"
       gradientUnits="userSpaceOnUse" />
    <linearGradient
       id="linearGradient9"
       inkscape:collect="always">
      <stop
         style="stop-color:#28a268;stop-opacity:1;"
         offset="0"
         id="stop9" />
      <stop
         style="stop-color:#26e730;stop-opacity:1;"
         offset="1"
         id="stop10" />
    </linearGradient>
    <filter
       inkscape:collect="always"
       style="color-interpolation-filters:sRGB"
       id="filter9"
       x="-0.092665307"
       y="-0.092665309"
       width="1.1853306"
       height="1.1853306">
      <feGaussianBlur
         inkscape:collect="always"
         stdDeviation="0.69498981"
         id="feGaussianBlur9" />
    </filter>
    <radialGradient
       inkscape:collect="always"
       xlink:href="#linearGradient2"
       id="radialGradient12"
       cx="14.185725"
       cy="56.828354"
       fx="14.185725"
       fy="56.828354"
       r="9"
       gradientUnits="userSpaceOnUse"
       gradientTransform="matrix(14.9291,-8.6193199,8.6193199,14.9291,-687.41615,-670.29652)" />
    <linearGradient
       id="linearGradient2"
       inkscape:collect="always">
      <stop
         style="stop-color:#8be38e;stop-opacity:1;"
         offset="0"
         id="stop1" />
      <stop
         style="stop-color:#88fd8e;stop-opacity:1;"
         offset="1"
         id="stop2" />
    </linearGradient>
    <filter
       inkscape:collect="always"
       style="color-interpolation-filters:sRGB"
       id="filter7"
       x="-0.091538234"
       y="-0.071918508"
       width="1.1830765"
       height="1.143837">
      <feGaussianBlur
         inkscape:collect="always"
         stdDeviation="0.8391005"
         id="feGaussianBlur7" />
    </filter>
  </defs>
  <sodipodi:namedview
     id="namedview7"
     pagecolor="#ffffff"
     bordercolor="#000000"
     borderopacity="0.25"
     inkscape:showpageshadow="2"
     inkscape:pageopacity="0.0"
     inkscape:pagecheckerboard="0"
     inkscape:deskcolor="#d1d1d1"
     inkscape:zoom="13.890625"
     inkscape:cx="32"
     inkscape:cy="32"
     inkscape:window-width="1920"
     inkscape:window-height="1018"
     inkscape:window-x="0"
     inkscape:window-y="0"
     inkscape:window-maximized="1"
     inkscape:current-layer="svg7" />
  <g
     id="g1"
     transform="translate(0.04915054,0.888553)">
    <path
       style="opacity:0.540689;filter:url(#filter8-3)"
       d="m 12.749999,4.0000004 c -1.5235,0 -2.75,1.2488 -2.75,2.8 V 57.2 c 0,1.55008 1.2265,2.8 2.75,2.8 h 38.5 c 1.5224,0 2.75,-1.24992 2.75,-2.8 V 22 l -14,-4 -4,-13.9999996 z"
       id="path1-3" />
    <path
       style="fill:url(#radialGradient10);fill-opacity:1"
       d="m 12.749999,3.0000004 c -1.5235,0 -2.75,1.2488 -2.75,2.8 V 56.2 c 0,1.55008 1.2265,2.8 2.75,2.8 h 38.5 c 1.5224,0 2.75,-1.24992 2.75,-2.8 V 21 l -14,-4 -4,-13.9999996 z"
       id="path2-6" />
    <path
       style="opacity:0.540689;filter:url(#filter9)"
       d="m 53.999999,22 -18,-17.9999996 V 19.1875 c 0,1.55925 1.2555,2.8125 2.8125,2.8125 z"
       id="path3-7" />
    <path
       style="fill:url(#radialGradient12)"
       d="m 53.999999,21 -18,-17.9999996 V 18.1875 c 0,1.55925 1.2555,2.8125 2.8125,2.8125 z"
       id="path4-5" />
  </g>
  <path
     style="opacity:0.44442038;filter:url(#filter7)"
     d="m 32,27.998291 c -1.532492,0.0023 -2.92898,0.879905 -3.595703,2.259766 C 27.95557,30.08793 27.479892,29.999939 27,29.998291 c -2.209139,0 -4,1.790861 -4,4 4e-4,0.479653 0.08706,0.955325 0.255859,1.404297 -1.37834,0.667835 -2.254321,2.064095 -2.255859,3.595703 0.0023,1.532492 0.879905,2.92898 2.259766,3.595703 -0.170127,0.448727 -0.258118,0.924405 -0.259766,1.404297 0,2.209139 1.790861,4 4,4 0.337602,-0.0019 0.673607,-0.04652 1,-0.132812 v 7.132812 c 3.5e-4,0.890637 1.077036,1.336587 1.707031,0.707031 L 32,53.412353 34.292969,55.705322 C 34.922964,56.334878 35.99965,55.888928 36,54.998291 v -7.130859 c 0.326477,0.08564 0.662481,0.129604 1,0.130859 2.209139,0 4,-1.790861 4,-4 -4e-4,-0.479653 -0.08707,-0.955325 -0.255859,-1.404297 C 42.122481,41.926159 42.998462,40.529899 43,38.998291 42.9977,37.465799 42.120095,36.069311 40.740234,35.402588 40.910361,34.953861 40.998352,34.478183 41,33.998291 c 0,-2.209139 -1.790861,-4 -4,-4 -0.479653,4e-4 -0.955325,0.08706 -1.404297,0.255859 C 34.927868,28.87581 33.531608,27.999829 32,27.998291 Z m 0,4 c 3.865993,0 7,3.134007 7,7 0,3.865993 -3.134007,7 -7,7 -3.865993,0 -7,-3.134007 -7,-7 0,-3.865993 3.134007,-7 7,-7 z m 0,1 c -3.313708,0 -6,2.686292 -6,6 0,3.313708 2.686292,6 6,6 3.313708,0 6,-2.686292 6,-6 0,-3.313708 -2.686292,-6 -6,-6 z"
     id="path6" />
  <path
     style="fill:#ffffff"
     d="m 32,26.998291 c -1.532492,0.0023 -2.92898,0.879905 -3.595703,2.259766 C 27.95557,29.08793 27.479892,28.999939 27,28.998291 c -2.209139,0 -4,1.790861 -4,4 4e-4,0.479653 0.08706,0.955325 0.255859,1.404297 -1.37834,0.667835 -2.254321,2.064095 -2.255859,3.595703 0.0023,1.532492 0.879905,2.92898 2.259766,3.595703 -0.170127,0.448727 -0.258118,0.924405 -0.259766,1.404297 0,2.209139 1.790861,4 4,4 0.337602,-0.0019 0.673607,-0.04652 1,-0.132812 v 7.132812 c 3.5e-4,0.890637 1.077036,1.336587 1.707031,0.707031 L 32,52.412353 34.292969,54.705322 C 34.922964,55.334878 35.99965,54.888928 36,53.998291 v -7.130859 c 0.326477,0.08564 0.662481,0.129604 1,0.130859 2.209139,0 4,-1.790861 4,-4 -4e-4,-0.479653 -0.08707,-0.955325 -0.255859,-1.404297 C 42.122481,40.926159 42.998462,39.529899 43,37.998291 42.9977,36.465799 42.120095,35.069311 40.740234,34.402588 40.910361,33.953861 40.998352,33.478183 41,32.998291 c 0,-2.209139 -1.790861,-4 -4,-4 -0.479653,4e-4 -0.955325,0.08706 -1.404297,0.255859 C 34.927868,27.87581 33.531608,26.999829 32,26.998291 Z m 0,4 c 3.865993,0 7,3.134007 7,7 0,3.865993 -3.134007,7 -7,7 -3.865993,0 -7,-3.134007 -7,-7 0,-3.865993 3.134007,-7 7,-7 z m 0,1 c -3.313708,0 -6,2.686292 -6,6 0,3.313708 2.686292,6 6,6 3.313708,0 6,-2.686292 6,-6 0,-3.313708 -2.686292,-6 -6,-6 z"
     id="path7" />
</svg>
