<?xml version="1.0" encoding="UTF-8" standalone="no"?>
<svg
   width="64"
   height="64"
   version="1.1"
   id="svg7"
   sodipodi:docname="openoffice4-database.svg"
   inkscape:version="1.3.2 (091e20ef0f, 2023-11-25, custom)"
   xmlns:inkscape="http://www.inkscape.org/namespaces/inkscape"
   xmlns:sodipodi="http://sodipodi.sourceforge.net/DTD/sodipodi-0.dtd"
   xmlns:xlink="http://www.w3.org/1999/xlink"
   xmlns="http://www.w3.org/2000/svg"
   xmlns:svg="http://www.w3.org/2000/svg">
  <defs
     id="defs7">
    <linearGradient
       id="linearGradient13"
       inkscape:collect="always">
      <stop
         style="stop-color:#ff8852;stop-opacity:1;"
         offset="0"
         id="stop12" />
      <stop
         style="stop-color:#e83d74;stop-opacity:1;"
         offset="1"
         id="stop13" />
    </linearGradient>
    <linearGradient
       id="linearGradient9"
       inkscape:collect="always">
      <stop
         style="stop-color:#ff590f;stop-opacity:1;"
         offset="0"
         id="stop9" />
      <stop
         style="stop-color:#e81d5e;stop-opacity:1;"
         offset="1"
         id="stop10" />
    </linearGradient>
    <filter
       inkscape:collect="always"
       style="color-interpolation-filters:sRGB"
       id="filter7"
       x="-0.13179042"
       y="-0.13179042"
       width="1.2635808"
       height="1.2635808">
      <feGaussianBlur
         inkscape:collect="always"
         stdDeviation="0.9884282"
         id="feGaussianBlur7" />
    </filter>
    <filter
       inkscape:collect="always"
       style="color-interpolation-filters:sRGB"
       id="filter8"
       x="-0.11861138"
       y="-0.098842818"
       width="1.2372228"
       height="1.1976856">
      <feGaussianBlur
         inkscape:collect="always"
         stdDeviation="0.9884282"
         id="feGaussianBlur8" />
    </filter>
    <filter
       inkscape:collect="always"
       style="color-interpolation-filters:sRGB"
       id="filter9"
       x="-0.053914264"
       y="-0.042361208"
       width="1.1078285"
       height="1.0847224">
      <feGaussianBlur
         inkscape:collect="always"
         stdDeviation="0.9884282"
         id="feGaussianBlur9" />
    </filter>
    <radialGradient
       inkscape:collect="always"
       xlink:href="#linearGradient9"
       id="radialGradient10"
       cx="15.208793"
       cy="50.6726"
       fx="15.208793"
       fy="50.6726"
       r="22"
       gradientTransform="matrix(2.4584922,-1.4194111,1.8065233,3.1289902,-113.72314,-81.20141)"
       gradientUnits="userSpaceOnUse" />
    <radialGradient
       inkscape:collect="always"
       xlink:href="#linearGradient13"
       id="radialGradient12"
       cx="16.808947"
       cy="44.6698"
       fx="16.808947"
       fy="44.6698"
       r="9"
       gradientUnits="userSpaceOnUse"
       gradientTransform="matrix(7.3364823,-4.2357201,4.2357201,7.3364823,-295.71836,-211.85141)" />
  </defs>
  <sodipodi:namedview
     id="namedview7"
     pagecolor="#ffffff"
     bordercolor="#000000"
     borderopacity="0.25"
     inkscape:showpageshadow="2"
     inkscape:pageopacity="0.0"
     inkscape:pagecheckerboard="0"
     inkscape:deskcolor="#d1d1d1"
     inkscape:zoom="13.890625"
     inkscape:cx="36.607424"
     inkscape:cy="33.079865"
     inkscape:window-width="1920"
     inkscape:window-height="1018"
     inkscape:window-x="0"
     inkscape:window-y="0"
     inkscape:window-maximized="1"
     inkscape:current-layer="svg7" />
  <path
     style="opacity:0.5595059;filter:url(#filter9)"
     d="M 12.75,5 C 11.2265,5 10,6.2488 10,7.8 v 50.4 c 0,1.55008 1.2265,2.8 2.75,2.8 h 38.5 C 52.7724,61 54,59.75008 54,58.2 V 23 L 40,19 36,5 Z"
     id="path1" />
  <path
     style="fill:url(#radialGradient10)"
     d="M 12.75,4 C 11.2265,4 10,5.2488 10,6.8 v 50.4 c 0,1.55008 1.2265,2.8 2.75,2.8 h 38.5 C 52.7724,60 54,58.75008 54,57.2 V 22 L 40,18 36,4 Z"
     id="path2" />
  <path
     style="opacity:0.5595059;filter:url(#filter7)"
     d="M 54,23 36,5 V 20.1875 C 36,21.74675 37.2555,23 38.8125,23 Z"
     id="path3" />
  <path
     style="fill:url(#radialGradient12)"
     d="M 54,22 36,4 V 19.1875 C 36,20.74675 37.2555,22 38.8125,22 Z"
     id="path4" />
  <path
     style="opacity:0.5595059;filter:url(#filter8)"
     d="m 32,30 c -4.194948,0 -7.77697,1.552562 -9.261718,3.75 -0.12464,0.18448 -0.234066,0.373336 -0.328126,0.566406 -0.08938,0.18348 -0.16638,0.368282 -0.226562,0.558594 a 10.000219,6.0002448 0 0 0 -0.04298,0.17578 c -0.03426,0.129 -0.07342,0.259054 -0.09374,0.390624 A 10.000219,6.0002448 0 0 0 22,36 c 5.5e-4,0.195 0.0188,0.388688 0.05078,0.582032 a 10.000219,6.0002448 0 0 0 0.13672,0.5625 10.000219,6.0002448 0 0 0 0.230468,0.5625 A 10.000219,6.0002448 0 0 0 22.738282,38.25 10.000219,6.0002448 0 0 0 32,42 a 10.000219,6.0002448 0 0 0 9.265624,-3.75 10.000219,6.0002448 0 0 0 0,-0.0078 10.000219,6.0002448 0 0 0 0.273438,-0.460938 c 0.016,-0.03042 0.03182,-0.0593 0.04688,-0.08984 a 10.000219,6.0002448 0 0 0 0.16796,-0.398438 c 0.0233,-0.06276 0.0504,-0.1243 0.07032,-0.1875 a 10.000219,6.0002448 0 0 0 0.08204,-0.335936 c 0.0192,-0.088 0.03802,-0.17322 0.05078,-0.26172 A 10.000219,6.0002448 0 0 0 42,36 10.000219,6.0002448 0 0 0 41.945312,35.402344 C 41.849612,34.82182 41.613154,34.26902 41.261718,33.75 39.7774,31.552408 36.194378,30 32,30 Z m -9.40625,10.003906 c -0.06178,0.10402 -0.13152,0.2056 -0.1836,0.3125 -0.08938,0.18348 -0.16638,0.368282 -0.226562,0.558594 a 10.000219,6.0002448 0 0 0 -0.04298,0.17578 c -0.03426,0.129 -0.07344,0.259054 -0.09374,0.390624 A 10.000219,6.0002448 0 0 0 22,42 c 5.5e-4,0.195 0.0188,0.388688 0.05078,0.582032 a 10.000219,6.0002448 0 0 0 0.13672,0.5625 10.000219,6.0002448 0 0 0 0.230468,0.5625 A 10.000219,6.0002448 0 0 0 22.738282,44.25 10.000219,6.0002448 0 0 0 32,48 a 10.000219,6.0002448 0 0 0 9.265624,-3.75 10.000219,6.0002448 0 0 0 0,-0.0078 10.000219,6.0002448 0 0 0 0.273438,-0.460938 c 0.016,-0.03042 0.03182,-0.0593 0.04688,-0.08984 a 10.000219,6.0002448 0 0 0 0.16796,-0.398438 c 0.0233,-0.06276 0.0504,-0.1243 0.07032,-0.1875 a 10.000219,6.0002448 0 0 0 0.08204,-0.335936 c 0.0192,-0.088 0.03802,-0.17322 0.05078,-0.26172 A 10.000219,6.0002448 0 0 0 42,42 10.000219,6.0002448 0 0 0 41.945312,41.402344 c -0.08018,-0.486372 -0.280184,-0.946572 -0.542968,-1.390626 a 10.000219,6.0002448 0 0 1 -0.13672,0.23047 10.000219,6.0002448 0 0 1 0,0.0078 A 10.000219,6.0002448 0 0 1 32,44 10.000219,6.0002448 0 0 1 22.738282,40.25 10.000219,6.0002448 0 0 1 22.59375,40.003906 Z m 0,6 c -0.06178,0.10402 -0.13152,0.2056 -0.1836,0.3125 -0.08938,0.18348 -0.16638,0.368282 -0.226562,0.558594 a 10.000219,6.0002448 0 0 0 -0.04298,0.17578 c -0.03426,0.129 -0.07342,0.259054 -0.09374,0.390624 A 10.000219,6.0002448 0 0 0 22,48 c 5.5e-4,0.195 0.0188,0.388688 0.05078,0.582032 a 10.000219,6.0002448 0 0 0 0.13672,0.5625 10.000219,6.0002448 0 0 0 0.230468,0.5625 A 10.000219,6.0002448 0 0 0 22.738282,50.25 10.000219,6.0002448 0 0 0 32,54 a 10.000219,6.0002448 0 0 0 9.265624,-3.75 10.000219,6.0002448 0 0 0 0,-0.0078 10.000219,6.0002448 0 0 0 0.273438,-0.460938 c 0.016,-0.03042 0.03182,-0.0593 0.04688,-0.08984 a 10.000219,6.0002448 0 0 0 0.16796,-0.398438 c 0.0233,-0.06276 0.0504,-0.1243 0.07032,-0.1875 a 10.000219,6.0002448 0 0 0 0.08204,-0.335936 c 0.0192,-0.088 0.03802,-0.17322 0.05078,-0.26172 A 10.000219,6.0002448 0 0 0 42,48 10.000219,6.0002448 0 0 0 41.945312,47.402344 c -0.08018,-0.486372 -0.280184,-0.946572 -0.542968,-1.390626 a 10.000219,6.0002448 0 0 1 -0.13672,0.23047 10.000219,6.0002448 0 0 1 0,0.0078 A 10.000219,6.0002448 0 0 1 32,50 10.000219,6.0002448 0 0 1 22.738282,46.25 10.000219,6.0002448 0 0 1 22.59375,46.003906 Z"
     id="path5" />
  <path
     style="fill:#ffffff"
     d="m 32,29 c -4.194948,0 -7.77697,1.552562 -9.261718,3.75 -0.12464,0.18448 -0.234066,0.373336 -0.328126,0.566406 -0.08938,0.18348 -0.16638,0.368282 -0.226562,0.558594 a 10.000219,6.0002448 0 0 0 -0.04298,0.17578 c -0.03426,0.129 -0.07342,0.259054 -0.09374,0.390624 A 10.000219,6.0002448 0 0 0 22,35 c 5.5e-4,0.195 0.0188,0.388688 0.05078,0.582032 a 10.000219,6.0002448 0 0 0 0.13672,0.5625 10.000219,6.0002448 0 0 0 0.230468,0.5625 A 10.000219,6.0002448 0 0 0 22.738282,37.25 10.000219,6.0002448 0 0 0 32,41 a 10.000219,6.0002448 0 0 0 9.265624,-3.75 10.000219,6.0002448 0 0 0 0,-0.0078 10.000219,6.0002448 0 0 0 0.273438,-0.460938 c 0.016,-0.03042 0.03182,-0.0593 0.04688,-0.08984 a 10.000219,6.0002448 0 0 0 0.16796,-0.398438 c 0.0233,-0.06276 0.0504,-0.1243 0.07032,-0.1875 a 10.000219,6.0002448 0 0 0 0.08204,-0.335936 c 0.0192,-0.088 0.03802,-0.17322 0.05078,-0.26172 A 10.000219,6.0002448 0 0 0 42,35 10.000219,6.0002448 0 0 0 41.945312,34.402344 C 41.849612,33.82182 41.613154,33.26902 41.261718,32.75 39.7774,30.552408 36.194378,29 32,29 Z m -9.40625,10.003906 c -0.06178,0.10402 -0.13152,0.2056 -0.1836,0.3125 -0.08938,0.18348 -0.16638,0.368282 -0.226562,0.558594 a 10.000219,6.0002448 0 0 0 -0.04298,0.17578 c -0.03426,0.129 -0.07344,0.259054 -0.09374,0.390624 A 10.000219,6.0002448 0 0 0 22,41 c 5.5e-4,0.195 0.0188,0.388688 0.05078,0.582032 a 10.000219,6.0002448 0 0 0 0.13672,0.5625 10.000219,6.0002448 0 0 0 0.230468,0.5625 A 10.000219,6.0002448 0 0 0 22.738282,43.25 10.000219,6.0002448 0 0 0 32,47 a 10.000219,6.0002448 0 0 0 9.265624,-3.75 10.000219,6.0002448 0 0 0 0,-0.0078 10.000219,6.0002448 0 0 0 0.273438,-0.460938 c 0.016,-0.03042 0.03182,-0.0593 0.04688,-0.08984 a 10.000219,6.0002448 0 0 0 0.16796,-0.398438 c 0.0233,-0.06276 0.0504,-0.1243 0.07032,-0.1875 a 10.000219,6.0002448 0 0 0 0.08204,-0.335936 c 0.0192,-0.088 0.03802,-0.17322 0.05078,-0.26172 A 10.000219,6.0002448 0 0 0 42,41 10.000219,6.0002448 0 0 0 41.945312,40.402344 c -0.08018,-0.486372 -0.280184,-0.946572 -0.542968,-1.390626 a 10.000219,6.0002448 0 0 1 -0.13672,0.23047 10.000219,6.0002448 0 0 1 0,0.0078 A 10.000219,6.0002448 0 0 1 32,43 10.000219,6.0002448 0 0 1 22.738282,39.25 10.000219,6.0002448 0 0 1 22.59375,39.003906 Z m 0,6 c -0.06178,0.10402 -0.13152,0.2056 -0.1836,0.3125 -0.08938,0.18348 -0.16638,0.368282 -0.226562,0.558594 a 10.000219,6.0002448 0 0 0 -0.04298,0.17578 c -0.03426,0.129 -0.07342,0.259054 -0.09374,0.390624 A 10.000219,6.0002448 0 0 0 22,47 c 5.5e-4,0.195 0.0188,0.388688 0.05078,0.582032 a 10.000219,6.0002448 0 0 0 0.13672,0.5625 10.000219,6.0002448 0 0 0 0.230468,0.5625 A 10.000219,6.0002448 0 0 0 22.738282,49.25 10.000219,6.0002448 0 0 0 32,53 a 10.000219,6.0002448 0 0 0 9.265624,-3.75 10.000219,6.0002448 0 0 0 0,-0.0078 10.000219,6.0002448 0 0 0 0.273438,-0.460938 c 0.016,-0.03042 0.03182,-0.0593 0.04688,-0.08984 a 10.000219,6.0002448 0 0 0 0.16796,-0.398438 c 0.0233,-0.06276 0.0504,-0.1243 0.07032,-0.1875 a 10.000219,6.0002448 0 0 0 0.08204,-0.335936 c 0.0192,-0.088 0.03802,-0.17322 0.05078,-0.26172 A 10.000219,6.0002448 0 0 0 42,47 10.000219,6.0002448 0 0 0 41.945312,46.402344 c -0.08018,-0.486372 -0.280184,-0.946572 -0.542968,-1.390626 a 10.000219,6.0002448 0 0 1 -0.13672,0.23047 10.000219,6.0002448 0 0 1 0,0.0078 A 10.000219,6.0002448 0 0 1 32,49 10.000219,6.0002448 0 0 1 22.738282,45.25 10.000219,6.0002448 0 0 1 22.59375,45.003906 Z"
     id="path6" />
</svg>
