<?xml version="1.0" encoding="UTF-8" standalone="no"?>
<svg
   width="64"
   height="64"
   version="1.1"
   id="svg6"
   sodipodi:docname="application-pgp-keys.svg"
   inkscape:version="1.3.2 (091e20ef0f, 2023-11-25, custom)"
   xmlns:inkscape="http://www.inkscape.org/namespaces/inkscape"
   xmlns:sodipodi="http://sodipodi.sourceforge.net/DTD/sodipodi-0.dtd"
   xmlns:xlink="http://www.w3.org/1999/xlink"
   xmlns="http://www.w3.org/2000/svg"
   xmlns:svg="http://www.w3.org/2000/svg">
  <defs
     id="defs6">
    <inkscape:path-effect
       effect="fillet_chamfer"
       id="path-effect9"
       is_visible="true"
       lpeversion="1"
       nodesatellites_param="F,0,0,1,0,0,0,1 @ F,0,0,1,0,0,0,1 @ F,0,0,1,0,0,0,1 @ F,0,0,1,0,0,0,1 @ F,0,1,1,0,0.97554156,0,1 @ F,0,1,1,0,0.97554156,0,1 @ F,0,1,1,0,0.97554156,0,1 @ F,0,1,1,0,0.97554156,0,1 @ F,0,0,1,0,0.97554156,0,1 @ F,0,1,1,0,0.97554156,0,1 @ F,0,0,1,0,0,0,1 @ F,0,0,1,0,0,0,1 | F,0,0,1,0,0,0,1 @ F,0,0,1,0,0,0,1 @ F,0,0,1,0,0,0,1 @ F,0,0,1,0,0,0,1"
       radius="0"
       unit="px"
       method="auto"
       mode="F"
       chamfer_steps="1"
       flexible="false"
       use_knot_distance="true"
       apply_no_radius="true"
       apply_with_radius="true"
       only_selected="false"
       hide_knots="false" />
    <inkscape:path-effect
       effect="fillet_chamfer"
       id="path-effect8"
       is_visible="true"
       lpeversion="1"
       nodesatellites_param="F,0,0,1,0,0,0,1 @ F,0,0,1,0,0,0,1 @ F,0,0,1,0,0,0,1 @ F,0,0,1,0,0,0,1 @ F,0,1,1,0,1.0326523,0,1 @ F,0,1,1,0,1.0326523,0,1 @ F,0,1,1,0,1.0326523,0,1 @ F,0,1,1,0,1.0326523,0,1 @ F,0,0,1,0,1.0326523,0,1 @ F,0,1,1,0,1.0326523,0,1 @ F,0,0,1,0,0,0,1 @ F,0,0,1,0,0,0,1 | F,0,0,1,0,0,0,1 @ F,0,0,1,0,0,0,1 @ F,0,0,1,0,0,0,1 @ F,0,0,1,0,0,0,1"
       radius="0"
       unit="px"
       method="auto"
       mode="F"
       chamfer_steps="1"
       flexible="false"
       use_knot_distance="true"
       apply_no_radius="true"
       apply_with_radius="true"
       only_selected="false"
       hide_knots="false" />
    <radialGradient
       inkscape:collect="always"
       xlink:href="#linearGradient2"
       id="radialGradient12"
       cx="14.185725"
       cy="56.828354"
       fx="14.185725"
       fy="56.828354"
       r="9"
       gradientUnits="userSpaceOnUse"
       gradientTransform="matrix(14.9291,-8.6193199,8.6193199,14.9291,-687.41615,-670.29652)" />
    <linearGradient
       id="linearGradient2"
       inkscape:collect="always">
      <stop
         style="stop-color:#8be38e;stop-opacity:1;"
         offset="0"
         id="stop1" />
      <stop
         style="stop-color:#88fd8e;stop-opacity:1;"
         offset="1"
         id="stop2" />
    </linearGradient>
    <filter
       inkscape:collect="always"
       style="color-interpolation-filters:sRGB"
       id="filter9"
       x="-0.092665307"
       y="-0.092665309"
       width="1.1853306"
       height="1.1853306">
      <feGaussianBlur
         inkscape:collect="always"
         stdDeviation="0.69498981"
         id="feGaussianBlur9" />
    </filter>
    <radialGradient
       inkscape:collect="always"
       xlink:href="#linearGradient9"
       id="radialGradient10"
       cx="11.199748"
       cy="52.255859"
       fx="11.199748"
       fy="52.255859"
       r="22"
       gradientTransform="matrix(2.3937499,-0.64140334,0.81633154,3.0465908,-58.267755,-95.238475)"
       gradientUnits="userSpaceOnUse" />
    <linearGradient
       id="linearGradient9"
       inkscape:collect="always">
      <stop
         style="stop-color:#28a268;stop-opacity:1;"
         offset="0"
         id="stop9" />
      <stop
         style="stop-color:#26e730;stop-opacity:1;"
         offset="1"
         id="stop10" />
    </linearGradient>
    <filter
       inkscape:collect="always"
       style="color-interpolation-filters:sRGB"
       id="filter8-3"
       x="-0.037908535"
       y="-0.029785277"
       width="1.0758171"
       height="1.0595706">
      <feGaussianBlur
         inkscape:collect="always"
         stdDeviation="0.69498981"
         id="feGaussianBlur8-6" />
    </filter>
    <filter
       inkscape:collect="always"
       style="color-interpolation-filters:sRGB"
       id="filter10"
       x="-0.089957054"
       y="-0.1549287"
       width="1.1799141"
       height="1.3098574">
      <feGaussianBlur
         inkscape:collect="always"
         stdDeviation="1.1619652"
         id="feGaussianBlur10" />
    </filter>
  </defs>
  <sodipodi:namedview
     id="namedview6"
     pagecolor="#ffffff"
     bordercolor="#000000"
     borderopacity="0.25"
     inkscape:showpageshadow="2"
     inkscape:pageopacity="0.0"
     inkscape:pagecheckerboard="0"
     inkscape:deskcolor="#d1d1d1"
     inkscape:zoom="9.8221551"
     inkscape:cx="16.646041"
     inkscape:cy="39.757059"
     inkscape:window-width="1920"
     inkscape:window-height="1018"
     inkscape:window-x="0"
     inkscape:window-y="0"
     inkscape:window-maximized="1"
     inkscape:current-layer="svg6" />
  <path
     style="opacity:0.540689;filter:url(#filter8-3)"
     d="m 12.749999,4.0000004 c -1.5235,0 -2.75,1.2488 -2.75,2.8 V 57.2 c 0,1.55008 1.2265,2.8 2.75,2.8 h 38.5 c 1.5224,0 2.75,-1.24992 2.75,-2.8 V 22 l -14,-4 -4,-13.9999996 z"
     id="path1" />
  <path
     style="fill:url(#radialGradient10);fill-opacity:1"
     d="m 12.749999,3.0000004 c -1.5235,0 -2.75,1.2488 -2.75,2.8 V 56.2 c 0,1.55008 1.2265,2.8 2.75,2.8 h 38.5 c 1.5224,0 2.75,-1.24992 2.75,-2.8 V 21 l -14,-4 -4,-13.9999996 z"
     id="path2" />
  <path
     style="opacity:0.540689;filter:url(#filter9)"
     d="m 53.999999,22 -18,-17.9999996 V 19.1875 c 0,1.55925 1.2555,2.8125 2.8125,2.8125 z"
     id="path3" />
  <path
     style="fill:url(#radialGradient12)"
     d="m 53.999999,21 -18,-17.9999996 V 18.1875 c 0,1.55925 1.2555,2.8125 2.8125,2.8125 z"
     id="path4" />
  <path
     style="fill:#000000;fill-opacity:1;opacity:0.51884933;filter:url(#filter10)"
     d="m 25.323,32.681 c -4.970561,0 -9,4.029439 -9,9 0,4.970561 4.029439,9 9,9 3.809393,-0.0054 7.202861,-2.408467 8.472656,-6 h 4.494692 A 1.0326523,1.0326523 45 0 1 39.323,45.713652 v 0.934696 A 1.0326523,1.0326523 45 0 0 40.355652,47.681 h 3.934696 A 1.0326523,1.0326523 135 0 0 45.323,46.648348 l 0,-0.934696 A 1.0326523,1.0326523 135 0 1 46.355652,44.681 1.0005329,1.0005329 133.12983 0 0 47.323,43.648348 l 0,-3.934696 A 1.0326523,1.0326523 45 0 0 46.290348,38.681 H 33.799562 c -1.270088,-3.592363 -4.664335,-5.995647 -8.474609,-6 z m 0,6 c 1.656853,0 3,1.343147 3,3 0,1.656853 -1.343147,3 -3,3 -1.656852,0 -3,-1.343147 -3,-3 0,-1.656853 1.343148,-3 3,-3 z"
     id="path6-3"
     inkscape:path-effect="#path-effect8"
     inkscape:original-d="m 25.323,32.681 c -4.970561,0 -9,4.029439 -9,9 0,4.970561 4.029439,9 9,9 3.809393,-0.0054 7.202861,-2.408467 8.472656,-6 H 39.323 v 3 h 6 v -3 h 2 v -6 H 33.799562 c -1.270088,-3.592363 -4.664335,-5.995647 -8.474609,-6 z m 0,6 c 1.656853,0 3,1.343147 3,3 0,1.656853 -1.343147,3 -3,3 -1.656852,0 -3,-1.343147 -3,-3 0,-1.656853 1.343148,-3 3,-3 z" />
  <path
     style="fill:#ffffff;fill-opacity:1"
     d="m 25,32 c -4.970561,0 -9,4.029439 -9,9 0,4.970561 4.029439,9 9,9 3.809393,-0.0054 7.202861,-2.408467 8.472656,-6 h 4.551802 A 0.97554156,0.97554156 45 0 1 39,44.975542 v 1.048916 A 0.97554156,0.97554156 45 0 0 39.975542,47 h 4.048916 A 0.97554156,0.97554156 135 0 0 45,46.024458 V 44.975542 A 0.97554156,0.97554156 135 0 1 45.975542,44 h 0.04892 A 0.97554156,0.97554156 135 0 0 47,43.024458 V 38.975542 A 0.97554156,0.97554156 45 0 0 46.024458,38 H 33.476562 c -1.270088,-3.592363 -4.664335,-5.995647 -8.474609,-6 z m 0,6 c 1.656853,0 3,1.343147 3,3 0,1.656853 -1.343147,3 -3,3 -1.656852,0 -3,-1.343147 -3,-3 0,-1.656853 1.343148,-3 3,-3 z"
     id="path6"
     inkscape:path-effect="#path-effect9"
     inkscape:original-d="M 25 32 C 20.029439 32 16 36.029439 16 41 C 16 45.970561 20.029439 50 25 50 C 28.809393 49.9946 32.202861 47.591533 33.472656 44 L 39 44 L 39 47 L 45 47 L 45 44 L 47 44 L 47 38 L 33.476562 38 C 32.206474 34.407637 28.812227 32.004353 25.001953 32 L 25 32 z M 25 38 C 26.656853 38 28 39.343147 28 41 C 28 42.656853 26.656853 44 25 44 C 23.343148 44 22 42.656853 22 41 C 22 39.343147 23.343148 38 25 38 z" />
</svg>
