<?xml version="1.0" encoding="UTF-8" standalone="no"?>
<svg
   width="64"
   height="64"
   version="1.1"
   id="svg7"
   sodipodi:docname="application-vnd.google-apps.script.svg"
   inkscape:version="1.3.2 (091e20ef0f, 2023-11-25, custom)"
   xmlns:inkscape="http://www.inkscape.org/namespaces/inkscape"
   xmlns:sodipodi="http://sodipodi.sourceforge.net/DTD/sodipodi-0.dtd"
   xmlns:xlink="http://www.w3.org/1999/xlink"
   xmlns="http://www.w3.org/2000/svg"
   xmlns:svg="http://www.w3.org/2000/svg">
  <defs
     id="defs7">
    <inkscape:path-effect
       effect="fillet_chamfer"
       id="path-effect14"
       is_visible="true"
       lpeversion="1"
       nodesatellites_param="F,0,0,1,0,0,0,1 @ F,0,0,1,0,2.2469624,0,1 @ F,0,1,1,0,2.2469624,0,1 @ F,0,0,1,0,0,0,1 @ F,0,0,1,0,0,0,1 @ F,0,0,1,0,0,0,1 @ F,0,0,1,0,0,0,1 @ F,0,0,1,0,0,0,1 @ F,0,0,1,0,0,0,1 @ F,0,0,1,0,0,0,1"
       radius="0"
       unit="px"
       method="auto"
       mode="F"
       chamfer_steps="1"
       flexible="false"
       use_knot_distance="true"
       apply_no_radius="true"
       apply_with_radius="true"
       only_selected="false"
       hide_knots="false" />
    <inkscape:path-effect
       effect="fillet_chamfer"
       id="path-effect13"
       is_visible="true"
       lpeversion="1"
       nodesatellites_param="F,0,0,1,0,0,0,1 @ F,0,1,1,0,1.4585037,0,1 @ F,0,1,1,0,1.4585037,0,1 @ F,0,1,1,0,1.4585037,0,1 @ F,0,0,1,0,1.4585037,0,1 @ F,0,1,1,0,1.4585037,0,1 @ F,0,1,1,0,1.4585037,0,1 @ F,0,1,1,0,1.4585037,0,1 @ F,0,0,1,0,0,0,1 @ F,0,0,1,0,0,0,1"
       radius="0"
       unit="px"
       method="auto"
       mode="F"
       chamfer_steps="1"
       flexible="false"
       use_knot_distance="true"
       apply_no_radius="true"
       apply_with_radius="true"
       only_selected="false"
       hide_knots="false" />
    <linearGradient
       id="linearGradient13"
       inkscape:collect="always">
      <stop
         style="stop-color:#4fddf0;stop-opacity:1;"
         offset="0"
         id="stop12" />
      <stop
         style="stop-color:#3c8fe2;stop-opacity:1;"
         offset="1"
         id="stop13" />
    </linearGradient>
    <linearGradient
       id="linearGradient9"
       inkscape:collect="always">
      <stop
         style="stop-color:#0ad8f0;stop-opacity:1;"
         offset="0"
         id="stop9" />
      <stop
         style="stop-color:#0a74e2;stop-opacity:1;"
         offset="1"
         id="stop10" />
    </linearGradient>
    <filter
       inkscape:collect="always"
       style="color-interpolation-filters:sRGB"
       id="filter7"
       x="-0.073492384"
       y="-0.073492384"
       width="1.1469848"
       height="1.1469848">
      <feGaussianBlur
         inkscape:collect="always"
         stdDeviation="0.5511929"
         id="feGaussianBlur7" />
    </filter>
    <filter
       inkscape:collect="always"
       style="color-interpolation-filters:sRGB"
       id="filter8"
       x="-0.030065066"
       y="-0.023622552"
       width="1.0601301"
       height="1.0472451">
      <feGaussianBlur
         inkscape:collect="always"
         stdDeviation="0.5511929"
         id="feGaussianBlur8" />
    </filter>
    <filter
       inkscape:collect="always"
       style="color-interpolation-filters:sRGB"
       id="filter9"
       x="-0.045452354"
       y="-0.045203095"
       width="1.0909047"
       height="1.0904062">
      <feGaussianBlur
         inkscape:collect="always"
         stdDeviation="0.52736942"
         id="feGaussianBlur9" />
    </filter>
    <radialGradient
       inkscape:collect="always"
       xlink:href="#linearGradient9"
       id="radialGradient10"
       cx="15.009818"
       cy="49.291664"
       fx="15.009818"
       fy="49.291664"
       r="22"
       gradientTransform="matrix(2.1990748,-1.2696365,1.615901,2.7988226,-97.648343,-64.894037)"
       gradientUnits="userSpaceOnUse" />
    <radialGradient
       inkscape:collect="always"
       xlink:href="#linearGradient13"
       id="radialGradient12"
       cx="50.841492"
       cy="13.923037"
       fx="50.841492"
       fy="13.923037"
       r="9"
       gradientUnits="userSpaceOnUse"
       gradientTransform="matrix(-1.9148952,3.3166958,-3.3166958,-1.9148952,174.28733,-111.35767)" />
  </defs>
  <sodipodi:namedview
     id="namedview7"
     pagecolor="#ffffff"
     bordercolor="#000000"
     borderopacity="0.25"
     inkscape:showpageshadow="2"
     inkscape:pageopacity="0.0"
     inkscape:pagecheckerboard="0"
     inkscape:deskcolor="#d1d1d1"
     inkscape:zoom="13.890625"
     inkscape:cx="32"
     inkscape:cy="32"
     inkscape:window-width="1920"
     inkscape:window-height="1018"
     inkscape:window-x="0"
     inkscape:window-y="0"
     inkscape:window-maximized="1"
     inkscape:current-layer="svg7" />
  <path
     style="opacity:0.43080658;filter:url(#filter8)"
     d="M 12.75,5 C 11.2265,5 10,6.2488 10,7.8 v 50.4 c 0,1.55008 1.2265,2.8 2.75,2.8 h 38.5 C 52.7724,61 54,59.75008 54,58.2 V 23 L 40,19 36,5 Z"
     id="path1" />
  <path
     style="fill:url(#radialGradient10)"
     d="M 12.75,4 C 11.2265,4 10,5.2488 10,6.8 v 50.4 c 0,1.55008 1.2265,2.8 2.75,2.8 h 38.5 C 52.7724,60 54,58.75008 54,57.2 V 22 L 40,18 36,4 Z"
     id="path2" />
  <path
     style="opacity:0.43080658;filter:url(#filter7)"
     d="M 54,23 36,5 V 20.1875 C 36,21.74675 37.2555,23 38.8125,23 Z"
     id="path3" />
  <path
     style="fill:url(#radialGradient12)"
     d="M 54,22 36,4 V 19.1875 C 36,20.74675 37.2555,22 38.8125,22 Z"
     id="path4" />
  <path
     style="opacity:0.37365764;filter:url(#filter9)"
     d="M 32,28 C 25.029586,28 19.248956,33.09407 18.177837,39.762482 17.981239,40.986437 19.005999,42 20.246962,42 h 3.506076 A 2.2469624,2.2469624 135 0 0 26,39.753038 v -3.352647 l 8.599609,8.40039 L 26,53.199219 V 48 H 19.380859 C 21.690125,52.864354 26.588939,55.993068 32,56 39.731986,56 46,49.731986 46,42 46,34.268014 39.731986,28 32,28 Z"
     id="path6"
     inkscape:path-effect="#path-effect14"
     inkscape:original-d="m 32,28 c -7.731986,0 -14,6.268014 -14,14 h 8 v -5.599609 l 8.599609,8.40039 L 26,53.199219 V 48 H 19.380859 C 21.690125,52.864354 26.588939,55.993068 32,56 39.731986,56 46,49.731986 46,42 46,34.268014 39.731986,28 32,28 Z" />
  <path
     style="fill:#ffffff;opacity:1"
     d="M 32,27 C 24.759654,27 18.803024,32.496251 18.074791,39.544073 17.992038,40.344955 18.652994,41 19.458504,41 h 5.082992 A 1.4585037,1.4585037 135 0 0 26,39.541496 v -2.682601 a 0.61416821,0.61416821 157.1643 0 1 1.043332,-0.439342 l 6.512945,6.362066 a 1.4245504,1.4245504 90.003328 0 1 -1.18e-4,2.038203 L 27.04345,51.180178 A 0.61426795,0.61426795 22.83903 0 1 26,50.740715 V 48.458504 A 1.4585037,1.4585037 45 0 0 24.541496,47 h -3.702133 c -0.80551,0 -1.184674,0.595147 -0.765906,1.282823 C 22.585237,52.407518 27.080955,54.993698 32,55 39.731986,55 46,48.731986 46,41 46,33.268014 39.731986,27 32,27 Z"
     id="path7"
     inkscape:path-effect="#path-effect13"
     inkscape:original-d="M 32 27 C 24.268014 27 18 33.268014 18 41 L 26 41 L 26 35.400391 L 34.599609 43.800781 L 26 52.199219 L 26 47 L 19.380859 47 C 21.690125 51.864354 26.588939 54.993068 32 55 C 39.731986 55 46 48.731986 46 41 C 46 33.268014 39.731986 27 32 27 z" />
</svg>
