<?xml version="1.0" encoding="UTF-8" standalone="no"?>
<svg
   width="64"
   height="64"
   version="1.1"
   id="svg7"
   sodipodi:docname="application-vnd.google-apps.fusiontable.svg"
   inkscape:version="1.3.2 (091e20ef0f, 2023-11-25, custom)"
   xmlns:inkscape="http://www.inkscape.org/namespaces/inkscape"
   xmlns:sodipodi="http://sodipodi.sourceforge.net/DTD/sodipodi-0.dtd"
   xmlns:xlink="http://www.w3.org/1999/xlink"
   xmlns="http://www.w3.org/2000/svg"
   xmlns:svg="http://www.w3.org/2000/svg">
  <defs
     id="defs7">
    <radialGradient
       inkscape:collect="always"
       xlink:href="#linearGradient2"
       id="radialGradient12"
       cx="14.185725"
       cy="56.828354"
       fx="14.185725"
       fy="56.828354"
       r="9"
       gradientUnits="userSpaceOnUse"
       gradientTransform="matrix(14.9291,-8.6193199,8.6193199,14.9291,-667.74817,-671.62854)" />
    <linearGradient
       id="linearGradient2"
       inkscape:collect="always">
      <stop
         style="stop-color:#8be38e;stop-opacity:1;"
         offset="0"
         id="stop1" />
      <stop
         style="stop-color:#88fd8e;stop-opacity:1;"
         offset="1"
         id="stop2" />
    </linearGradient>
    <filter
       inkscape:collect="always"
       style="color-interpolation-filters:sRGB"
       id="filter9"
       x="-0.092665307"
       y="-0.092665309"
       width="1.1853306"
       height="1.1853306">
      <feGaussianBlur
         inkscape:collect="always"
         stdDeviation="0.69498981"
         id="feGaussianBlur9" />
    </filter>
    <radialGradient
       inkscape:collect="always"
       xlink:href="#linearGradient9"
       id="radialGradient10"
       cx="11.199748"
       cy="52.255859"
       fx="11.199748"
       fy="52.255859"
       r="22"
       gradientTransform="matrix(2.3937499,-0.64140334,0.81633154,3.0465908,-38.599778,-96.570503)"
       gradientUnits="userSpaceOnUse" />
    <linearGradient
       id="linearGradient9"
       inkscape:collect="always">
      <stop
         style="stop-color:#28a268;stop-opacity:1;"
         offset="0"
         id="stop9" />
      <stop
         style="stop-color:#1fc327;stop-opacity:1;"
         offset="1"
         id="stop10" />
    </linearGradient>
    <filter
       inkscape:collect="always"
       style="color-interpolation-filters:sRGB"
       id="filter8"
       x="-0.037908535"
       y="-0.029785277"
       width="1.0758171"
       height="1.0595706">
      <feGaussianBlur
         inkscape:collect="always"
         stdDeviation="0.69498981"
         id="feGaussianBlur8" />
    </filter>
    <filter
       inkscape:collect="always"
       style="color-interpolation-filters:sRGB"
       id="filter7"
       x="-0.015430557"
       y="-0.023720608"
       width="1.0308611"
       height="1.0474412">
      <feGaussianBlur
         inkscape:collect="always"
         stdDeviation="0.28289355"
         id="feGaussianBlur7" />
    </filter>
  </defs>
  <sodipodi:namedview
     id="namedview7"
     pagecolor="#ffffff"
     bordercolor="#000000"
     borderopacity="0.25"
     inkscape:showpageshadow="2"
     inkscape:pageopacity="0.0"
     inkscape:pagecheckerboard="0"
     inkscape:deskcolor="#d1d1d1"
     inkscape:zoom="13.890625"
     inkscape:cx="32"
     inkscape:cy="32"
     inkscape:window-width="1920"
     inkscape:window-height="1018"
     inkscape:window-x="0"
     inkscape:window-y="0"
     inkscape:window-maximized="1"
     inkscape:current-layer="svg7" />
  <g
     id="g7"
     transform="translate(-19.667977,1.3320249)">
    <path
       style="opacity:0.540689;filter:url(#filter8)"
       d="m 32.417976,2.6679755 c -1.5235,0 -2.75,1.2488 -2.75,2.8 V 55.867975 c 0,1.55008 1.2265,2.8 2.75,2.8 h 38.5 c 1.5224,0 2.75,-1.24992 2.75,-2.8 v -35.2 l -14,-4 -4,-13.9999995 z"
       id="path1" />
    <path
       style="fill:url(#radialGradient10);fill-opacity:1"
       d="m 32.417976,1.6679755 c -1.5235,0 -2.75,1.2488 -2.75,2.8 V 54.867975 c 0,1.55008 1.2265,2.8 2.75,2.8 h 38.5 c 1.5224,0 2.75,-1.24992 2.75,-2.8 v -35.2 l -14,-3.999999 -4,-14.0000005 z"
       id="path2" />
    <path
       style="opacity:0.540689;filter:url(#filter9)"
       d="m 73.667976,20.667975 -18,-17.9999995 V 17.855475 c 0,1.55925 1.2555,2.8125 2.8125,2.8125 z"
       id="path3" />
    <path
       style="fill:url(#radialGradient12)"
       d="m 73.667976,19.667975 -18,-17.9999995 V 16.855475 c 0,1.55925 1.2555,2.8125 2.8125,2.8125 z"
       id="path4" />
  </g>
  <path
     style="opacity:0.25106142;filter:url(#filter7)"
     d="M 54,27.230441 32.008057,49.222384 22.377686,39.457736 10,51.948214 V 55.853 L 22.372315,43.367892 31.991944,53.127169 54,31.119112 Z"
     id="path6" />
  <path
     style="fill:#ffffff"
     d="M 54,26.230441 32.008057,48.222384 22.377686,38.457736 10,50.948214 V 54.853 L 22.372315,42.367892 31.991944,52.127169 54,30.119112 Z"
     id="path7" />
</svg>
