<?xml version="1.0" encoding="UTF-8" standalone="no"?>
<svg
   width="64"
   height="64"
   version="1.1"
   id="svg7"
   sodipodi:docname="application-vnd.google-apps.site.svg"
   inkscape:version="1.3.2 (091e20ef0f, 2023-11-25, custom)"
   xmlns:inkscape="http://www.inkscape.org/namespaces/inkscape"
   xmlns:sodipodi="http://sodipodi.sourceforge.net/DTD/sodipodi-0.dtd"
   xmlns:xlink="http://www.w3.org/1999/xlink"
   xmlns="http://www.w3.org/2000/svg"
   xmlns:svg="http://www.w3.org/2000/svg">
  <defs
     id="defs7">
    <radialGradient
       inkscape:collect="always"
       xlink:href="#linearGradient8"
       id="radialGradient11"
       cx="63.46014"
       cy="14.893303"
       fx="63.46014"
       fy="14.893303"
       r="9"
       gradientUnits="userSpaceOnUse"
       gradientTransform="matrix(9.0483133,2.4244883,-2.4244872,9.0483094,-520.37715,-233.77907)" />
    <linearGradient
       id="linearGradient8"
       inkscape:collect="always">
      <stop
         style="stop-color:#00ffdb;stop-opacity:1;"
         offset="0"
         id="stop8" />
      <stop
         style="stop-color:#136dff;stop-opacity:1;"
         offset="1"
         id="stop9" />
    </linearGradient>
    <filter
       inkscape:collect="always"
       style="color-interpolation-filters:sRGB"
       id="filter7"
       x="-0.13311102"
       y="-0.13311102"
       width="1.266222"
       height="1.266222">
      <feGaussianBlur
         inkscape:collect="always"
         stdDeviation="0.99833261"
         id="feGaussianBlur7" />
    </filter>
    <radialGradient
       inkscape:collect="always"
       xlink:href="#linearGradient2"
       id="radialGradient9"
       cx="12.124838"
       cy="52.623104"
       fx="12.124838"
       fy="52.623104"
       r="22"
       gradientTransform="matrix(2.2768343,-1.3145309,1.6730393,2.8977891,-101.05477,-77.624858)"
       gradientUnits="userSpaceOnUse" />
    <linearGradient
       id="linearGradient2"
       inkscape:collect="always">
      <stop
         style="stop-color:#00c7ff;stop-opacity:1;"
         offset="0"
         id="stop1" />
      <stop
         style="stop-color:#136dff;stop-opacity:1;"
         offset="1"
         id="stop2" />
    </linearGradient>
    <filter
       inkscape:collect="always"
       style="color-interpolation-filters:sRGB"
       id="filter8"
       x="-0.054454507"
       y="-0.042785684"
       width="1.108909"
       height="1.0855714">
      <feGaussianBlur
         inkscape:collect="always"
         stdDeviation="0.99833261"
         id="feGaussianBlur8" />
    </filter>
    <filter
       inkscape:collect="always"
       style="color-interpolation-filters:sRGB"
       id="filter9"
       x="-0.050236636"
       y="-0.050236636"
       width="1.1004733"
       height="1.1004733">
      <feGaussianBlur
         inkscape:collect="always"
         stdDeviation="0.58609411"
         id="feGaussianBlur9" />
    </filter>
  </defs>
  <sodipodi:namedview
     id="namedview7"
     pagecolor="#ffffff"
     bordercolor="#000000"
     borderopacity="0.25"
     inkscape:showpageshadow="2"
     inkscape:pageopacity="0.0"
     inkscape:pagecheckerboard="0"
     inkscape:deskcolor="#d1d1d1"
     inkscape:zoom="13.890625"
     inkscape:cx="32"
     inkscape:cy="32"
     inkscape:window-width="1920"
     inkscape:window-height="1018"
     inkscape:window-x="0"
     inkscape:window-y="0"
     inkscape:window-maximized="1"
     inkscape:current-layer="svg7" />
  <g
     id="g7"
     transform="translate(-2.467163,-1.6797404)">
    <path
       style="opacity:0.72546;filter:url(#filter8)"
       d="m 15.217163,5.6797398 c -1.5235,0 -2.75,1.2488 -2.75,2.8 V 58.879739 c 0,1.55008 1.2265,2.8 2.75,2.8 h 38.5 c 1.5224,0 2.75,-1.24992 2.75,-2.8 v -35.2 l -14,-4 -4,-13.9999992 z"
       id="path1" />
    <path
       style="fill:url(#radialGradient9)"
       d="m 15.217163,4.6797398 c -1.5235,0 -2.75,1.2488 -2.75,2.8 V 57.879739 c 0,1.55008 1.2265,2.8 2.75,2.8 h 38.5 c 1.5224,0 2.75,-1.24992 2.75,-2.8 v -35.2 l -14,-4 -4,-13.9999992 z"
       id="path2" />
    <path
       style="opacity:0.72546;filter:url(#filter7)"
       d="m 56.467163,23.679739 -18,-17.9999992 V 20.867239 c 0,1.55925 1.2555,2.8125 2.8125,2.8125 z"
       id="path3" />
    <path
       style="fill:url(#radialGradient11)"
       d="m 56.467163,22.679739 -18,-17.9999992 V 19.867239 c 0,1.55925 1.2555,2.8125 2.8125,2.8125 z"
       id="path4" />
  </g>
  <path
     style="opacity:0.31163058;filter:url(#filter9)"
     d="M 19.400391,28 C 18.624791,28 18,28.595318 18,29.333984 v 5.332032 C 18,35.404682 18.624791,36 19.400391,36 H 44.599609 C 45.375209,36 46,35.404682 46,34.666016 V 29.333984 C 46,28.595318 45.375209,28 44.599609,28 Z m 0.01563,11 C 18.631182,39 18,39.631182 18,40.416016 V 54.583984 C 18,55.368818 18.631182,56 19.416016,56 H 33.583984 C 34.368818,56 35,55.368818 35,54.583984 V 40.416016 C 35,39.631182 34.368818,39 33.583984,39 Z m 19.917968,0 C 38.595318,39 38,39.631182 38,40.416016 V 54.583984 C 38,55.368818 38.595318,56 39.333984,56 h 5.332032 C 45.404682,56 46,55.368818 46,54.583984 V 40.416016 C 46,39.631182 45.404682,39 44.666016,39 Z"
     id="path6" />
  <path
     style="fill:#ffffff"
     d="M 19.400391,27 C 18.624791,27 18,27.595318 18,28.333984 v 5.332032 C 18,34.404682 18.624791,35 19.400391,35 H 44.599609 C 45.375209,35 46,34.404682 46,33.666016 V 28.333984 C 46,27.595318 45.375209,27 44.599609,27 Z m 0.01563,11 C 18.631182,38 18,38.631182 18,39.416016 V 53.583984 C 18,54.368818 18.631182,55 19.416016,55 H 33.583984 C 34.368818,55 35,54.368818 35,53.583984 V 39.416016 C 35,38.631182 34.368818,38 33.583984,38 Z m 19.917968,0 C 38.595318,38 38,38.631182 38,39.416016 V 53.583984 C 38,54.368818 38.595318,55 39.333984,55 h 5.332032 C 45.404682,55 46,54.368818 46,53.583984 V 39.416016 C 46,38.631182 45.404682,38 44.666016,38 Z"
     id="path7" />
</svg>
