<?xml version="1.0" encoding="UTF-8" standalone="no"?>
<svg
   width="64"
   height="64"
   version="1.1"
   id="svg6"
   sodipodi:docname="application-vnd.sqlite3.svg"
   inkscape:version="1.3.2 (091e20ef0f, 2023-11-25, custom)"
   xmlns:inkscape="http://www.inkscape.org/namespaces/inkscape"
   xmlns:sodipodi="http://sodipodi.sourceforge.net/DTD/sodipodi-0.dtd"
   xmlns:xlink="http://www.w3.org/1999/xlink"
   xmlns="http://www.w3.org/2000/svg"
   xmlns:svg="http://www.w3.org/2000/svg">
  <defs
     id="defs6">
    <linearGradient
       id="linearGradient7"
       inkscape:collect="always">
      <stop
         style="stop-color:#0fffdb;stop-opacity:1;"
         offset="0"
         id="stop6" />
      <stop
         style="stop-color:#1d8ce8;stop-opacity:1;"
         offset="1"
         id="stop7" />
    </linearGradient>
    <filter
       inkscape:collect="always"
       style="color-interpolation-filters:sRGB"
       id="filter8"
       x="-0.11861133"
       y="-0.098842818"
       width="1.2372227"
       height="1.1976856">
      <feGaussianBlur
         inkscape:collect="always"
         stdDeviation="0.9884282"
         id="feGaussianBlur8" />
    </filter>
    <radialGradient
       inkscape:collect="always"
       xlink:href="#linearGradient7"
       id="radialGradient12"
       cx="16.808947"
       cy="44.6698"
       fx="16.808947"
       fy="44.6698"
       r="9"
       gradientUnits="userSpaceOnUse"
       gradientTransform="matrix(7.3364823,-4.2357201,4.2357201,7.3364823,-295.8801,-211.82464)" />
    <filter
       inkscape:collect="always"
       style="color-interpolation-filters:sRGB"
       id="filter7"
       x="-0.13179042"
       y="-0.13179042"
       width="1.2635808"
       height="1.2635808">
      <feGaussianBlur
         inkscape:collect="always"
         stdDeviation="0.9884282"
         id="feGaussianBlur7" />
    </filter>
    <radialGradient
       inkscape:collect="always"
       xlink:href="#linearGradient9"
       id="radialGradient10"
       cx="15.208793"
       cy="50.6726"
       fx="15.208793"
       fy="50.6726"
       r="22"
       gradientTransform="matrix(2.4584922,-1.4194111,1.8065233,3.1289902,-113.88488,-81.174641)"
       gradientUnits="userSpaceOnUse" />
    <linearGradient
       id="linearGradient9"
       inkscape:collect="always">
      <stop
         style="stop-color:#0fe3ff;stop-opacity:1;"
         offset="0"
         id="stop9" />
      <stop
         style="stop-color:#1d6ee8;stop-opacity:1;"
         offset="1"
         id="stop10" />
    </linearGradient>
    <filter
       inkscape:collect="always"
       style="color-interpolation-filters:sRGB"
       id="filter9"
       x="-0.053914264"
       y="-0.042361207"
       width="1.1078285"
       height="1.0847224">
      <feGaussianBlur
         inkscape:collect="always"
         stdDeviation="0.9884282"
         id="feGaussianBlur9" />
    </filter>
  </defs>
  <sodipodi:namedview
     id="namedview6"
     pagecolor="#ffffff"
     bordercolor="#000000"
     borderopacity="0.25"
     inkscape:showpageshadow="2"
     inkscape:pageopacity="0.0"
     inkscape:pagecheckerboard="0"
     inkscape:deskcolor="#d1d1d1"
     inkscape:zoom="13.890625"
     inkscape:cx="32"
     inkscape:cy="32"
     inkscape:window-width="1920"
     inkscape:window-height="1018"
     inkscape:window-x="0"
     inkscape:window-y="0"
     inkscape:window-maximized="1"
     inkscape:current-layer="svg6" />
  <path
     style="opacity:0.559506;filter:url(#filter9)"
     d="m 12.588263,5.0267687 c -1.5235,0 -2.7500005,1.2488 -2.7500005,2.8 V 58.226769 c 0,1.55008 1.2265005,2.8 2.7500005,2.8 h 38.5 c 1.5224,0 2.75,-1.24992 2.75,-2.8 v -35.2 l -14,-4 -4,-14.0000003 z"
     id="path1-3" />
  <path
     style="fill:url(#radialGradient10)"
     d="m 12.588263,4.0267687 c -1.5235,0 -2.7500005,1.2488 -2.7500005,2.8 V 57.226769 c 0,1.55008 1.2265005,2.8 2.7500005,2.8 h 38.5 c 1.5224,0 2.75,-1.24992 2.75,-2.8 v -35.2 l -14,-4 -4,-14.0000003 z"
     id="path2-6" />
  <path
     style="opacity:0.559506;filter:url(#filter7)"
     d="m 53.838263,23.026769 -18,-18.0000003 V 20.214269 c 0,1.55925 1.2555,2.8125 2.8125,2.8125 z"
     id="path3-7" />
  <path
     style="fill:url(#radialGradient12)"
     d="m 53.838263,22.026769 -18,-18.0000003 V 19.214269 c 0,1.55925 1.2555,2.8125 2.8125,2.8125 z"
     id="path4-5" />
  <path
     style="opacity:0.559506;filter:url(#filter8)"
     d="m 31.838263,30.026769 c -4.194948,0 -7.77697,1.552562 -9.261718,3.75 -0.12464,0.18448 -0.234066,0.373336 -0.328126,0.566406 -0.08938,0.18348 -0.16638,0.368282 -0.226562,0.558594 a 10.000219,6.0002448 0 0 0 -0.04298,0.17578 c -0.03426,0.129 -0.07342,0.259054 -0.09374,0.390624 a 10.000219,6.0002448 0 0 0 -0.04687,0.558596 c 5.5e-4,0.195 0.0188,0.388688 0.05078,0.582032 a 10.000219,6.0002448 0 0 0 0.13672,0.5625 10.000219,6.0002448 0 0 0 0.230468,0.5625 10.000219,6.0002448 0 0 0 0.320314,0.542968 10.000219,6.0002448 0 0 0 9.261718,3.75 10.000219,6.0002448 0 0 0 9.265624,-3.75 10.000219,6.0002448 0 0 0 0,-0.0078 10.000219,6.0002448 0 0 0 0.273438,-0.460938 c 0.016,-0.03042 0.03182,-0.0593 0.04688,-0.08984 a 10.000219,6.0002448 0 0 0 0.16796,-0.398438 c 0.0233,-0.06276 0.0504,-0.1243 0.07032,-0.1875 a 10.000219,6.0002448 0 0 0 0.08204,-0.335936 c 0.0192,-0.088 0.03802,-0.17322 0.05078,-0.26172 a 10.000219,6.0002448 0 0 0 0.04296,-0.507828 10.000219,6.0002448 0 0 0 -0.05469,-0.597656 c -0.0957,-0.580524 -0.332158,-1.133324 -0.683594,-1.652344 -1.484318,-2.197592 -5.06734,-3.75 -9.261718,-3.75 z m -9.40625,10.003906 c -0.06178,0.10402 -0.13152,0.2056 -0.1836,0.3125 -0.08938,0.18348 -0.16638,0.368282 -0.226562,0.558594 a 10.000219,6.0002448 0 0 0 -0.04298,0.17578 c -0.03426,0.129 -0.07344,0.259054 -0.09374,0.390624 a 10.000219,6.0002448 0 0 0 -0.04687,0.558596 c 5.5e-4,0.195 0.0188,0.388688 0.05078,0.582032 a 10.000219,6.0002448 0 0 0 0.13672,0.5625 10.000219,6.0002448 0 0 0 0.230468,0.5625 10.000219,6.0002448 0 0 0 0.320314,0.542968 10.000219,6.0002448 0 0 0 9.261718,3.75 10.000219,6.0002448 0 0 0 9.265624,-3.75 10.000219,6.0002448 0 0 0 0,-0.0078 10.000219,6.0002448 0 0 0 0.273438,-0.460938 c 0.016,-0.03042 0.03182,-0.0593 0.04688,-0.08984 a 10.000219,6.0002448 0 0 0 0.16796,-0.398438 c 0.0233,-0.06276 0.0504,-0.1243 0.07032,-0.1875 a 10.000219,6.0002448 0 0 0 0.08204,-0.335936 c 0.0192,-0.088 0.03802,-0.17322 0.05078,-0.26172 a 10.000219,6.0002448 0 0 0 0.04296,-0.507828 10.000219,6.0002448 0 0 0 -0.05469,-0.597656 c -0.08018,-0.486372 -0.280182,-0.946572 -0.542966,-1.390626 a 10.000219,6.0002448 0 0 1 -0.13672,0.23047 10.000219,6.0002448 0 0 1 0,0.0078 10.000219,6.0002448 0 0 1 -9.265624,3.750012 10.000219,6.0002448 0 0 1 -9.261718,-3.75 10.000219,6.0002448 0 0 1 -0.144532,-0.246094 z m 0,6 c -0.06178,0.10402 -0.13152,0.2056 -0.1836,0.3125 -0.08938,0.18348 -0.16638,0.368282 -0.226562,0.558594 a 10.000219,6.0002448 0 0 0 -0.04298,0.17578 c -0.03426,0.129 -0.07342,0.259054 -0.09374,0.390624 a 10.000219,6.0002448 0 0 0 -0.04687,0.558596 c 5.5e-4,0.195 0.0188,0.388688 0.05078,0.582032 a 10.000219,6.0002448 0 0 0 0.13672,0.5625 10.000219,6.0002448 0 0 0 0.230468,0.5625 10.000219,6.0002448 0 0 0 0.320314,0.542968 10.000219,6.0002448 0 0 0 9.261718,3.75 10.000219,6.0002448 0 0 0 9.265624,-3.75 10.000219,6.0002448 0 0 0 0,-0.0078 10.000219,6.0002448 0 0 0 0.273438,-0.460938 c 0.016,-0.03042 0.03182,-0.0593 0.04688,-0.08984 a 10.000219,6.0002448 0 0 0 0.16796,-0.398438 c 0.0233,-0.06276 0.0504,-0.1243 0.07032,-0.1875 a 10.000219,6.0002448 0 0 0 0.08204,-0.335936 c 0.0192,-0.088 0.03802,-0.17322 0.05078,-0.26172 a 10.000219,6.0002448 0 0 0 0.04296,-0.507828 10.000219,6.0002448 0 0 0 -0.05469,-0.597656 c -0.08018,-0.486372 -0.280182,-0.946572 -0.542966,-1.390626 a 10.000219,6.0002448 0 0 1 -0.13672,0.23047 10.000219,6.0002448 0 0 1 0,0.0078 10.000219,6.0002448 0 0 1 -9.265624,3.750012 10.000219,6.0002448 0 0 1 -9.261718,-3.75 10.000219,6.0002448 0 0 1 -0.144532,-0.246094 z"
     id="path5-3" />
  <path
     style="fill:#ffffff"
     d="m 31.838263,29.026769 c -4.194948,0 -7.77697,1.552562 -9.261718,3.75 -0.12464,0.18448 -0.234066,0.373336 -0.328126,0.566406 -0.08938,0.18348 -0.16638,0.368282 -0.226562,0.558594 a 10.000219,6.0002448 0 0 0 -0.04298,0.17578 c -0.03426,0.129 -0.07342,0.259054 -0.09374,0.390624 a 10.000219,6.0002448 0 0 0 -0.04687,0.558596 c 5.5e-4,0.195 0.0188,0.388688 0.05078,0.582032 a 10.000219,6.0002448 0 0 0 0.13672,0.5625 10.000219,6.0002448 0 0 0 0.230468,0.5625 10.000219,6.0002448 0 0 0 0.320314,0.542968 10.000219,6.0002448 0 0 0 9.261718,3.75 10.000219,6.0002448 0 0 0 9.265624,-3.75 10.000219,6.0002448 0 0 0 0,-0.0078 10.000219,6.0002448 0 0 0 0.273438,-0.460938 c 0.016,-0.03042 0.03182,-0.0593 0.04688,-0.08984 a 10.000219,6.0002448 0 0 0 0.16796,-0.398438 c 0.0233,-0.06276 0.0504,-0.1243 0.07032,-0.1875 a 10.000219,6.0002448 0 0 0 0.08204,-0.335936 c 0.0192,-0.088 0.03802,-0.17322 0.05078,-0.26172 a 10.000219,6.0002448 0 0 0 0.04296,-0.507828 10.000219,6.0002448 0 0 0 -0.05469,-0.597656 c -0.0957,-0.580524 -0.332158,-1.133324 -0.683594,-1.652344 -1.484318,-2.197592 -5.06734,-3.75 -9.261718,-3.75 z m -9.40625,10.003906 c -0.06178,0.10402 -0.13152,0.2056 -0.1836,0.3125 -0.08938,0.18348 -0.16638,0.368282 -0.226562,0.558594 a 10.000219,6.0002448 0 0 0 -0.04298,0.17578 c -0.03426,0.129 -0.07344,0.259054 -0.09374,0.390624 a 10.000219,6.0002448 0 0 0 -0.04687,0.558596 c 5.5e-4,0.195 0.0188,0.388688 0.05078,0.582032 a 10.000219,6.0002448 0 0 0 0.13672,0.5625 10.000219,6.0002448 0 0 0 0.230468,0.5625 10.000219,6.0002448 0 0 0 0.320314,0.542968 10.000219,6.0002448 0 0 0 9.261718,3.75 10.000219,6.0002448 0 0 0 9.265624,-3.75 10.000219,6.0002448 0 0 0 0,-0.0078 10.000219,6.0002448 0 0 0 0.273438,-0.460938 c 0.016,-0.03042 0.03182,-0.0593 0.04688,-0.08984 a 10.000219,6.0002448 0 0 0 0.16796,-0.398438 c 0.0233,-0.06276 0.0504,-0.1243 0.07032,-0.1875 a 10.000219,6.0002448 0 0 0 0.08204,-0.335936 c 0.0192,-0.088 0.03802,-0.17322 0.05078,-0.26172 a 10.000219,6.0002448 0 0 0 0.04296,-0.507828 10.000219,6.0002448 0 0 0 -0.05469,-0.597656 c -0.08018,-0.486372 -0.280182,-0.946572 -0.542966,-1.390626 a 10.000219,6.0002448 0 0 1 -0.13672,0.23047 10.000219,6.0002448 0 0 1 0,0.0078 10.000219,6.0002448 0 0 1 -9.265624,3.750012 10.000219,6.0002448 0 0 1 -9.261718,-3.75 10.000219,6.0002448 0 0 1 -0.144532,-0.246094 z m 0,6 c -0.06178,0.10402 -0.13152,0.2056 -0.1836,0.3125 -0.08938,0.18348 -0.16638,0.368282 -0.226562,0.558594 a 10.000219,6.0002448 0 0 0 -0.04298,0.17578 c -0.03426,0.129 -0.07342,0.259054 -0.09374,0.390624 a 10.000219,6.0002448 0 0 0 -0.04687,0.558596 c 5.5e-4,0.195 0.0188,0.388688 0.05078,0.582032 a 10.000219,6.0002448 0 0 0 0.13672,0.5625 10.000219,6.0002448 0 0 0 0.230468,0.5625 10.000219,6.0002448 0 0 0 0.320314,0.542968 10.000219,6.0002448 0 0 0 9.261718,3.75 10.000219,6.0002448 0 0 0 9.265624,-3.75 10.000219,6.0002448 0 0 0 0,-0.0078 10.000219,6.0002448 0 0 0 0.273438,-0.460938 c 0.016,-0.03042 0.03182,-0.0593 0.04688,-0.08984 a 10.000219,6.0002448 0 0 0 0.16796,-0.398438 c 0.0233,-0.06276 0.0504,-0.1243 0.07032,-0.1875 a 10.000219,6.0002448 0 0 0 0.08204,-0.335936 c 0.0192,-0.088 0.03802,-0.17322 0.05078,-0.26172 a 10.000219,6.0002448 0 0 0 0.04296,-0.507828 10.000219,6.0002448 0 0 0 -0.05469,-0.597656 c -0.08018,-0.486372 -0.280182,-0.946572 -0.542966,-1.390626 a 10.000219,6.0002448 0 0 1 -0.13672,0.23047 10.000219,6.0002448 0 0 1 0,0.0078 10.000219,6.0002448 0 0 1 -9.265624,3.750012 10.000219,6.0002448 0 0 1 -9.261718,-3.75 10.000219,6.0002448 0 0 1 -0.144532,-0.246094 z"
     id="path6-5" />
</svg>
