<?xml version="1.0" encoding="UTF-8" standalone="no"?>
<svg
   width="64"
   height="64"
   version="1.1"
   id="svg6"
   sodipodi:docname="application-pgp-encrypted.svg"
   inkscape:version="1.3.2 (091e20ef0f, 2023-11-25, custom)"
   xmlns:inkscape="http://www.inkscape.org/namespaces/inkscape"
   xmlns:sodipodi="http://sodipodi.sourceforge.net/DTD/sodipodi-0.dtd"
   xmlns:xlink="http://www.w3.org/1999/xlink"
   xmlns="http://www.w3.org/2000/svg"
   xmlns:svg="http://www.w3.org/2000/svg">
  <defs
     id="defs6">
    <radialGradient
       inkscape:collect="always"
       xlink:href="#linearGradient11"
       id="radialGradient10"
       cx="33.974277"
       cy="24.779312"
       fx="33.974277"
       fy="24.779312"
       r="9"
       gradientUnits="userSpaceOnUse"
       gradientTransform="matrix(3.5969042,-2.0766736,2.0766736,3.5969042,-139.68649,6.2039857)" />
    <linearGradient
       id="linearGradient11"
       inkscape:collect="always">
      <stop
         style="stop-color:#d19cb6;stop-opacity:1;"
         offset="0"
         id="stop10" />
      <stop
         style="stop-color:#e46570;stop-opacity:1;"
         offset="1"
         id="stop11" />
    </linearGradient>
    <filter
       inkscape:collect="always"
       style="color-interpolation-filters:sRGB"
       id="filter11"
       x="-0.11929659"
       y="-0.11929659"
       width="1.2385932"
       height="1.2385932">
      <feGaussianBlur
         inkscape:collect="always"
         stdDeviation="0.8947244"
         id="feGaussianBlur11" />
    </filter>
    <radialGradient
       inkscape:collect="always"
       xlink:href="#linearGradient7"
       id="radialGradient8"
       cx="17.222261"
       cy="49.789066"
       fx="17.222261"
       fy="49.789066"
       r="22"
       gradientTransform="matrix(2.3473368,-1.3552355,1.7248452,2.9875196,-109.08262,-70.764958)"
       gradientUnits="userSpaceOnUse" />
    <linearGradient
       id="linearGradient7"
       inkscape:collect="always">
      <stop
         style="stop-color:#d15d92;stop-opacity:1;"
         offset="0"
         id="stop7" />
      <stop
         style="stop-color:#e43f4d;stop-opacity:1;"
         offset="1"
         id="stop8" />
    </linearGradient>
    <filter
       inkscape:collect="always"
       style="color-interpolation-filters:sRGB"
       id="filter12"
       x="-0.048803151"
       y="-0.038345333"
       width="1.0976063"
       height="1.0766907">
      <feGaussianBlur
         inkscape:collect="always"
         stdDeviation="0.8947244"
         id="feGaussianBlur12" />
    </filter>
  </defs>
  <sodipodi:namedview
     id="namedview6"
     pagecolor="#ffffff"
     bordercolor="#000000"
     borderopacity="0.25"
     inkscape:showpageshadow="2"
     inkscape:pageopacity="0.0"
     inkscape:pagecheckerboard="0"
     inkscape:deskcolor="#d1d1d1"
     inkscape:zoom="13.890625"
     inkscape:cx="32"
     inkscape:cy="32"
     inkscape:window-width="1920"
     inkscape:window-height="1018"
     inkscape:window-x="0"
     inkscape:window-y="0"
     inkscape:window-maximized="1"
     inkscape:current-layer="svg6" />
  <g
     id="g1"
     transform="translate(0.1473386,-0.8526613)">
    <path
       style="opacity:0.462675;filter:url(#filter12)"
       d="M 12.75,5 C 11.2265,5 10,6.2488 10,7.8 v 50.4 c 0,1.55008 1.2265,2.8 2.75,2.8 h 38.5 C 52.7724,61 54,59.75008 54,58.2 V 23 L 40,19 36,5 Z"
       id="path1" />
    <path
       style="fill:url(#radialGradient8)"
       d="M 12.75,4 C 11.2265,4 10,5.2488 10,6.8 v 50.4 c 0,1.55008 1.2265,2.8 2.75,2.8 h 38.5 C 52.7724,60 54,58.75008 54,57.2 V 22 L 40,18 36,4 Z"
       id="path2" />
    <path
       style="opacity:0.462675;filter:url(#filter11)"
       d="M 54,23 36,5 V 20.1875 C 36,21.74675 37.2555,23 38.8125,23 Z"
       id="path3" />
    <path
       style="fill:url(#radialGradient10)"
       d="M 54,22 36,4 V 19.1875 C 36,20.74675 37.2555,22 38.8125,22 Z"
       id="path4" />
  </g>
  <path
     style="fill:#ffffff;fill-opacity:1"
     d="M 32 29 C 28.306714 29 25 32.017208 25 35.675781 L 25 39 L 23.666016 39 C 22.743159 39 22 39.566417 22 40.470703 L 22 50.367188 C 22 51.272902 22.743159 52 23.666016 52 L 40.333984 52 C 41.256841 52 42 51.272901 42 50.367188 L 42 40.470703 C 42 39.566217 41.256705 38.96692 40.333984 39 L 39 39 L 39 35.675781 C 39 32.018639 35.692857 29 32 29 z M 32 33 C 33.662 33 35 34.349047 35 36.023438 L 35 39 L 29 39 L 29 36.023438 C 29 34.349047 30.338 33 32 33 z"
     id="path6" />
</svg>
