<?xml version="1.0" encoding="UTF-8" standalone="no"?>
<svg
   width="64"
   height="64"
   version="1.1"
   id="svg7"
   sodipodi:docname="application-vnd.adobe.flash.movie.svg"
   inkscape:version="1.3.2 (091e20ef0f, 2023-11-25, custom)"
   xmlns:inkscape="http://www.inkscape.org/namespaces/inkscape"
   xmlns:sodipodi="http://sodipodi.sourceforge.net/DTD/sodipodi-0.dtd"
   xmlns:xlink="http://www.w3.org/1999/xlink"
   xmlns="http://www.w3.org/2000/svg"
   xmlns:svg="http://www.w3.org/2000/svg">
  <defs
     id="defs7">
    <filter
       inkscape:collect="always"
       style="color-interpolation-filters:sRGB"
       id="filter8"
       x="-0.031461746"
       y="-0.024719943"
       width="1.0629235"
       height="1.0494399">
      <feGaussianBlur
         inkscape:collect="always"
         stdDeviation="0.57679865"
         id="feGaussianBlur8" />
    </filter>
    <radialGradient
       inkscape:collect="always"
       xlink:href="#linearGradient9"
       id="radialGradient10"
       cx="12.85222"
       cy="51.662251"
       fx="12.85222"
       fy="51.662251"
       r="22"
       gradientTransform="matrix(2.4994495,-1.4430579,1.8366191,3.1811176,-114.15513,-88.772515)"
       gradientUnits="userSpaceOnUse" />
    <linearGradient
       id="linearGradient9"
       inkscape:collect="always">
      <stop
         style="stop-color:#f4461c;stop-opacity:1;"
         offset="0"
         id="stop9" />
      <stop
         style="stop-color:#e03758;stop-opacity:1;"
         offset="1"
         id="stop10" />
    </linearGradient>
    <filter
       inkscape:collect="always"
       style="color-interpolation-filters:sRGB"
       id="filter9"
       x="-0.07690649"
       y="-0.07690649"
       width="1.153813"
       height="1.153813">
      <feGaussianBlur
         inkscape:collect="always"
         stdDeviation="0.57679865"
         id="feGaussianBlur9" />
    </filter>
    <radialGradient
       inkscape:collect="always"
       xlink:href="#linearGradient13"
       id="radialGradient12"
       cx="25.181398"
       cy="36.216312"
       fx="25.181398"
       fy="36.216312"
       r="9"
       gradientUnits="userSpaceOnUse"
       gradientTransform="matrix(5.2087255,-3.0072591,3.0072591,5.2087255,-214.89343,-76.697529)" />
    <linearGradient
       id="linearGradient13"
       inkscape:collect="always">
      <stop
         style="stop-color:#ff8164;stop-opacity:1;"
         offset="0"
         id="stop12" />
      <stop
         style="stop-color:#bb3b50;stop-opacity:1;"
         offset="1"
         id="stop13" />
    </linearGradient>
    <filter
       inkscape:collect="always"
       style="color-interpolation-filters:sRGB"
       id="filter7"
       x="-0.082060754"
       y="-0.063125416"
       width="1.1641215"
       height="1.1262508">
      <feGaussianBlur
         inkscape:collect="always"
         stdDeviation="0.6838396"
         id="feGaussianBlur7" />
    </filter>
  </defs>
  <sodipodi:namedview
     id="namedview7"
     pagecolor="#ffffff"
     bordercolor="#000000"
     borderopacity="0.25"
     inkscape:showpageshadow="2"
     inkscape:pageopacity="0.0"
     inkscape:pagecheckerboard="0"
     inkscape:deskcolor="#d1d1d1"
     inkscape:zoom="13.890625"
     inkscape:cx="32"
     inkscape:cy="32"
     inkscape:window-width="1920"
     inkscape:window-height="1018"
     inkscape:window-x="0"
     inkscape:window-y="0"
     inkscape:window-maximized="1"
     inkscape:current-layer="svg7" />
  <g
     id="g1"
     transform="translate(0.3843168,-0.6156832)">
    <path
       style="opacity:0.601814;filter:url(#filter8)"
       d="M 12.75,5 C 11.2265,5 10,6.2488 10,7.8 v 50.4 c 0,1.55008 1.2265,2.8 2.75,2.8 h 38.5 C 52.7724,61 54,59.75008 54,58.2 V 23 L 40,19 36,5 Z"
       id="path1-3" />
    <path
       style="fill:url(#radialGradient10)"
       d="M 12.75,4 C 11.2265,4 10,5.2488 10,6.8 v 50.4 c 0,1.55008 1.2265,2.8 2.75,2.8 h 38.5 C 52.7724,60 54,58.75008 54,57.2 V 22 L 40,18 36,4 Z"
       id="path2-6" />
    <path
       style="opacity:0.601814;filter:url(#filter9)"
       d="M 54,23 36,5 V 20.1875 C 36,21.74675 37.2555,23 38.8125,23 Z"
       id="path3-7" />
    <path
       style="fill:url(#radialGradient12)"
       d="M 54,22 36,4 V 19.1875 C 36,20.74675 37.2555,22 38.8125,22 Z"
       id="path4-5" />
  </g>
  <path
     style="opacity:0.36428542;filter:url(#filter7)"
     d="M 41.609375,29.001573 C 39.856529,29.02918 32.665817,29.823152 29.787109,40.755479 27.157432,50.742776 22,49.747667 22,49.747667 v 5.230468 c 0,10e-7 7.943259,0.967929 11.535156,-9.976562 H 40 v -6 H 35.888672 C 36.212364,37.982006 37.646502,34.321079 42,34.241807 v -5.230468 -0.002 c 0,0 -0.140218,-0.01176 -0.390625,-0.0078 z"
     id="path6" />
  <path
     style="fill:#ffffff;fill-opacity:1"
     d="M 41.609375 28 C 39.856529 28.027607 32.665817 28.821579 29.787109 39.753906 C 27.157432 49.741203 22 48.746094 22 48.746094 L 22 53.976562 C 22 53.976563 29.943259 54.944491 33.535156 44 L 40 44 L 40 38 L 35.888672 38 C 36.212364 36.980433 37.646502 33.319506 42 33.240234 L 42 28.009766 L 42 28.007812 C 42 28.007812 41.859782 27.996056 41.609375 28 z"
     id="path7" />
</svg>
