<?xml version="1.0" encoding="UTF-8" standalone="no"?>
<svg
   width="64"
   height="64"
   version="1.1"
   id="svg7"
   sodipodi:docname="application-vnd.fastcopy-disk-image.svg"
   inkscape:version="1.3.2 (091e20ef0f, 2023-11-25, custom)"
   xmlns:inkscape="http://www.inkscape.org/namespaces/inkscape"
   xmlns:sodipodi="http://sodipodi.sourceforge.net/DTD/sodipodi-0.dtd"
   xmlns:xlink="http://www.w3.org/1999/xlink"
   xmlns="http://www.w3.org/2000/svg"
   xmlns:svg="http://www.w3.org/2000/svg">
  <defs
     id="defs7">
    <filter
       inkscape:collect="always"
       style="color-interpolation-filters:sRGB"
       id="filter8"
       x="-0.054454507"
       y="-0.042785684"
       width="1.108909"
       height="1.0855714">
      <feGaussianBlur
         inkscape:collect="always"
         stdDeviation="0.99833261"
         id="feGaussianBlur8" />
    </filter>
    <radialGradient
       inkscape:collect="always"
       xlink:href="#linearGradient2"
       id="radialGradient9"
       cx="12.124838"
       cy="52.623104"
       fx="12.124838"
       fy="52.623104"
       r="22"
       gradientTransform="matrix(2.2768343,-1.3145309,1.6730393,2.8977891,-103.52193,-78.304597)"
       gradientUnits="userSpaceOnUse" />
    <linearGradient
       id="linearGradient2"
       inkscape:collect="always">
      <stop
         style="stop-color:#00c7ff;stop-opacity:1;"
         offset="0"
         id="stop1" />
      <stop
         style="stop-color:#136dff;stop-opacity:1;"
         offset="1"
         id="stop2" />
    </linearGradient>
    <filter
       inkscape:collect="always"
       style="color-interpolation-filters:sRGB"
       id="filter7"
       x="-0.13311102"
       y="-0.13311102"
       width="1.266222"
       height="1.266222">
      <feGaussianBlur
         inkscape:collect="always"
         stdDeviation="0.99833261"
         id="feGaussianBlur7" />
    </filter>
    <radialGradient
       inkscape:collect="always"
       xlink:href="#linearGradient8"
       id="radialGradient11"
       cx="63.46014"
       cy="14.893303"
       fx="63.46014"
       fy="14.893303"
       r="9"
       gradientUnits="userSpaceOnUse"
       gradientTransform="matrix(9.0483133,2.4244883,-2.4244872,9.0483094,-522.84431,-234.45881)" />
    <linearGradient
       id="linearGradient8"
       inkscape:collect="always">
      <stop
         style="stop-color:#00ffdb;stop-opacity:1;"
         offset="0"
         id="stop8" />
      <stop
         style="stop-color:#136dff;stop-opacity:1;"
         offset="1"
         id="stop9" />
    </linearGradient>
    <filter
       inkscape:collect="always"
       style="color-interpolation-filters:sRGB"
       id="filter9"
       x="-0.061453598"
       y="-0.067040291"
       width="1.1229072"
       height="1.1340806">
      <feGaussianBlur
         inkscape:collect="always"
         stdDeviation="0.61453596"
         id="feGaussianBlur9" />
    </filter>
  </defs>
  <sodipodi:namedview
     id="namedview7"
     pagecolor="#ffffff"
     bordercolor="#000000"
     borderopacity="0.25"
     inkscape:showpageshadow="2"
     inkscape:pageopacity="0.0"
     inkscape:pagecheckerboard="0"
     inkscape:deskcolor="#d1d1d1"
     inkscape:zoom="13.890625"
     inkscape:cx="32"
     inkscape:cy="32"
     inkscape:window-width="1920"
     inkscape:window-height="1018"
     inkscape:window-x="0"
     inkscape:window-y="0"
     inkscape:window-maximized="1"
     inkscape:current-layer="svg7" />
  <g
     id="g2"
     transform="translate(0,-1.000001)">
    <path
       style="opacity:0.72546;filter:url(#filter8)"
       d="M 12.75,5 C 11.2265,5 10,6.2488 10,7.8 v 50.4 c 0,1.55008 1.2265,2.8 2.75,2.8 h 38.5 C 52.7724,61 54,59.75008 54,58.2 V 23 L 40,19 36,5 Z"
       id="path1" />
    <path
       style="fill:url(#radialGradient9)"
       d="M 12.75,4 C 11.2265,4 10,5.2488 10,6.8 v 50.4 c 0,1.55008 1.2265,2.8 2.75,2.8 h 38.5 C 52.7724,60 54,58.75008 54,57.2 V 22 L 40,18 36,4 Z"
       id="path2" />
    <path
       style="opacity:0.72546;filter:url(#filter7)"
       d="M 54,23 36,5 V 20.1875 C 36,21.74675 37.2555,23 38.8125,23 Z"
       id="path3" />
    <path
       style="fill:url(#radialGradient11)"
       d="M 54,22 36,4 V 19.1875 C 36,20.74675 37.2555,22 38.8125,22 Z"
       id="path4" />
  </g>
  <path
     style="opacity:0.37575144;filter:url(#filter9)"
     d="m 27.229928,31.000352 c -0.425799,0.04125 -0.4459,0.02978 -0.496309,0.550546 -0.08026,7.181372 -1.794514,14.123605 -6.297596,17.434863 -0.499318,0.318233 -0.553625,0.31957 -0.245397,0.851333 l 1.560612,2.693649 c 0.285829,0.663524 0.427257,0.492379 0.887841,0.187992 3.107895,-2.11758 4.792727,-4.907807 5.788351,-8.330707 C 28.763364,43.233094 28.906733,42.005653 29,40.703396 v 11.642042 c -0.03107,0.626157 0.02301,0.641855 0.618569,0.641855 h 5.000055 C 35.236965,53.053813 35.000013,52.863912 35,52.305154 V 41.979052 c 0.09669,0.832659 0.249362,1.638843 0.473376,2.408976 0.995628,3.422899 2.779646,6.213127 5.887546,8.330707 0.460581,0.304387 0.602013,0.475533 0.887842,-0.187992 l 1.560611,-2.693649 c 0.308222,-0.531766 0.253928,-0.5331 -0.245396,-0.851333 -4.503082,-3.311258 -6.217302,-10.253491 -6.297598,-17.434863 -0.0026,-0.443421 -0.07058,-0.558188 -0.496309,-0.550546 z"
     id="path6" />
  <path
     style="fill:#ffffff"
     d="m 27.229928,30.000352 c -0.425799,0.04125 -0.4459,0.02978 -0.496309,0.550546 -0.08026,7.181372 -1.794514,14.123605 -6.297596,17.434863 -0.499318,0.318233 -0.553625,0.31957 -0.245397,0.851333 l 1.560612,2.693649 c 0.285829,0.663524 0.427257,0.492379 0.887841,0.187992 3.107895,-2.11758 4.792727,-4.907807 5.788351,-8.330707 C 28.763364,42.233094 28.906733,41.005653 29,39.703396 v 11.642042 c -0.03107,0.626157 0.02301,0.641855 0.618569,0.641855 h 5.000055 C 35.236965,52.053813 35.000013,51.863912 35,51.305154 V 40.979052 c 0.09669,0.832659 0.249362,1.638843 0.473376,2.408976 0.995628,3.422899 2.779646,6.213127 5.887546,8.330707 0.460581,0.304387 0.602013,0.475533 0.887842,-0.187992 l 1.560611,-2.693649 c 0.308222,-0.531766 0.253928,-0.5331 -0.245396,-0.851333 -4.503082,-3.311258 -6.217302,-10.253491 -6.297598,-17.434863 -0.0026,-0.443421 -0.07058,-0.558188 -0.496309,-0.550546 z"
     id="path7" />
</svg>
