<?xml version="1.0" encoding="UTF-8" standalone="no"?>
<svg
   width="64"
   height="64"
   version="1.1"
   id="svg7"
   sodipodi:docname="openoffice4-formula.svg"
   inkscape:version="1.3.2 (091e20ef0f, 2023-11-25, custom)"
   xmlns:inkscape="http://www.inkscape.org/namespaces/inkscape"
   xmlns:sodipodi="http://sodipodi.sourceforge.net/DTD/sodipodi-0.dtd"
   xmlns:xlink="http://www.w3.org/1999/xlink"
   xmlns="http://www.w3.org/2000/svg"
   xmlns:svg="http://www.w3.org/2000/svg">
  <defs
     id="defs7">
    <filter
       inkscape:collect="always"
       style="color-interpolation-filters:sRGB"
       id="filter8"
       x="-0.059861001"
       y="-0.082665191"
       width="1.119722"
       height="1.1653304">
      <feGaussianBlur
         inkscape:collect="always"
         stdDeviation="0.72332044"
         id="feGaussianBlur8" />
    </filter>
    <filter
       inkscape:collect="always"
       style="color-interpolation-filters:sRGB"
       id="filter8-3"
       x="-0.037908534"
       y="-0.029785277"
       width="1.0758171"
       height="1.0595706">
      <feGaussianBlur
         inkscape:collect="always"
         stdDeviation="0.69498981"
         id="feGaussianBlur8-6" />
    </filter>
    <radialGradient
       inkscape:collect="always"
       xlink:href="#linearGradient9"
       id="radialGradient10"
       cx="11.199748"
       cy="52.255859"
       fx="11.199748"
       fy="52.255859"
       r="22"
       gradientTransform="matrix(2.3937499,-0.64140334,0.81633154,3.0465908,-58.599778,-95.570503)"
       gradientUnits="userSpaceOnUse" />
    <linearGradient
       id="linearGradient9"
       inkscape:collect="always">
      <stop
         style="stop-color:#28a268;stop-opacity:1;"
         offset="0"
         id="stop9" />
      <stop
         style="stop-color:#26e730;stop-opacity:1;"
         offset="1"
         id="stop10" />
    </linearGradient>
    <filter
       inkscape:collect="always"
       style="color-interpolation-filters:sRGB"
       id="filter9"
       x="-0.092665307"
       y="-0.092665309"
       width="1.1853306"
       height="1.1853306">
      <feGaussianBlur
         inkscape:collect="always"
         stdDeviation="0.69498981"
         id="feGaussianBlur9" />
    </filter>
    <radialGradient
       inkscape:collect="always"
       xlink:href="#linearGradient2"
       id="radialGradient12"
       cx="14.185725"
       cy="56.828354"
       fx="14.185725"
       fy="56.828354"
       r="9"
       gradientUnits="userSpaceOnUse"
       gradientTransform="matrix(14.9291,-8.6193199,8.6193199,14.9291,-687.74817,-670.62854)" />
    <linearGradient
       id="linearGradient2"
       inkscape:collect="always">
      <stop
         style="stop-color:#8be38e;stop-opacity:1;"
         offset="0"
         id="stop1" />
      <stop
         style="stop-color:#88fd8e;stop-opacity:1;"
         offset="1"
         id="stop2" />
    </linearGradient>
  </defs>
  <sodipodi:namedview
     id="namedview7"
     pagecolor="#ffffff"
     bordercolor="#000000"
     borderopacity="0.25"
     inkscape:showpageshadow="2"
     inkscape:pageopacity="0.0"
     inkscape:pagecheckerboard="0"
     inkscape:deskcolor="#d1d1d1"
     inkscape:zoom="13.890625"
     inkscape:cx="32"
     inkscape:cy="32"
     inkscape:window-width="1920"
     inkscape:window-height="1018"
     inkscape:window-x="0"
     inkscape:window-y="0"
     inkscape:window-maximized="1"
     inkscape:current-layer="svg7" />
  <path
     style="opacity:0.540689;filter:url(#filter8-3)"
     d="m 12.417976,3.6679755 c -1.5235,0 -2.7500004,1.2488 -2.7500004,2.8 V 56.867975 c 0,1.55008 1.2265004,2.8 2.7500004,2.8 h 38.5 c 1.5224,0 2.75,-1.24992 2.75,-2.8 v -35.2 l -14,-4 -4,-13.9999995 z"
     id="path1" />
  <path
     style="fill:url(#radialGradient10);fill-opacity:1"
     d="m 12.417976,2.6679755 c -1.5235,0 -2.7500004,1.2488 -2.7500004,2.8 V 55.867975 c 0,1.55008 1.2265004,2.8 2.7500004,2.8 h 38.5 c 1.5224,0 2.75,-1.24992 2.75,-2.8 v -35.2 l -14,-4 -4,-13.9999995 z"
     id="path2" />
  <path
     style="opacity:0.540689;filter:url(#filter9)"
     d="m 53.667976,21.667975 -18,-17.9999995 V 18.855475 c 0,1.55925 1.2555,2.8125 2.8125,2.8125 z"
     id="path3" />
  <path
     style="fill:url(#radialGradient12)"
     d="m 53.667976,20.667975 -18,-17.9999995 V 17.855475 c 0,1.55925 1.2555,2.8125 2.8125,2.8125 z"
     id="path4" />
  <path
     style="opacity:0.48518839;filter:url(#filter8)"
     d="M 31.880859,31 27.519531,46.314453 24.291016,38 H 18 v 3 h 4.453125 l 4.371094,11 h 1.929687 l 5.177735,-18 h 8.958984 v -3 z m 2.5625,8 4.763672,6.197266 L 34,52 h 2.595703 L 40.498047,46.894531 44.400391,52 H 47 L 41.898438,45.328125 46.748047,39 H 44.148438 L 40.595703,43.632812 37.039062,39 Z"
     id="path6" />
  <path
     style="fill:#ffffff"
     d="M 31.880859 30 L 27.519531 45.314453 L 24.291016 37 L 18 37 L 18 40 L 22.453125 40 L 26.824219 51 L 28.753906 51 L 33.931641 33 L 42.890625 33 L 42.890625 30 L 31.880859 30 z M 34.443359 38 L 39.207031 44.197266 L 34 51 L 36.595703 51 L 40.498047 45.894531 L 44.400391 51 L 47 51 L 41.898438 44.328125 L 46.748047 38 L 44.148438 38 L 40.595703 42.632812 L 37.039062 38 L 34.443359 38 z"
     id="path7" />
</svg>
