<?xml version="1.0" encoding="UTF-8" standalone="no"?>
<svg
   width="64"
   height="64"
   version="1.1"
   id="svg6"
   sodipodi:docname="application-vnd.recordare.musicxml+xml.svg"
   inkscape:version="1.3.2 (091e20ef0f, 2023-11-25, custom)"
   xmlns:inkscape="http://www.inkscape.org/namespaces/inkscape"
   xmlns:sodipodi="http://sodipodi.sourceforge.net/DTD/sodipodi-0.dtd"
   xmlns:xlink="http://www.w3.org/1999/xlink"
   xmlns="http://www.w3.org/2000/svg"
   xmlns:svg="http://www.w3.org/2000/svg">
  <defs
     id="defs6">
    <filter
       inkscape:collect="always"
       style="color-interpolation-filters:sRGB"
       id="filter9"
       x="-0.025912243"
       y="-0.020359619"
       width="1.0518245"
       height="1.0407192">
      <feGaussianBlur
         inkscape:collect="always"
         stdDeviation="0.47505779"
         id="feGaussianBlur9" />
    </filter>
    <radialGradient
       inkscape:collect="always"
       xlink:href="#linearGradient11"
       id="radialGradient12"
       cx="14.835495"
       cy="49.149357"
       fx="14.835495"
       fy="49.149357"
       r="22"
       gradientTransform="matrix(2.9341848,-0.78621245,1.0006341,3.7344171,-77.875111,-118.05389)"
       gradientUnits="userSpaceOnUse" />
    <linearGradient
       id="linearGradient11"
       inkscape:collect="always">
      <stop
         style="stop-color:#fe9700;stop-opacity:1;"
         offset="0"
         id="stop11" />
      <stop
         style="stop-color:#fe6d00;stop-opacity:1;"
         offset="1"
         id="stop12" />
    </linearGradient>
    <filter
       inkscape:collect="always"
       style="color-interpolation-filters:sRGB"
       id="filter7"
       x="-0.063341037"
       y="-0.063341037"
       width="1.1266821"
       height="1.1266821">
      <feGaussianBlur
         inkscape:collect="always"
         stdDeviation="0.47505779"
         id="feGaussianBlur7" />
    </filter>
    <radialGradient
       inkscape:collect="always"
       xlink:href="#linearGradient12"
       id="radialGradient14"
       cx="20.058458"
       cy="45.249866"
       fx="20.058458"
       fy="45.249866"
       r="9"
       gradientUnits="userSpaceOnUse"
       gradientTransform="matrix(7.193112,-4.1529451,4.1529451,7.193112,-312.14449,-196.93581)" />
    <linearGradient
       id="linearGradient12"
       inkscape:collect="always">
      <stop
         style="stop-color:#ffbd63;stop-opacity:1;"
         offset="0"
         id="stop13" />
      <stop
         style="stop-color:#ff9463;stop-opacity:1;"
         offset="1"
         id="stop14" />
    </linearGradient>
    <filter
       inkscape:collect="always"
       style="color-interpolation-filters:sRGB"
       id="filter10"
       x="-0.095686442"
       y="-0.10116777"
       width="1.1913729"
       height="1.2023355">
      <feGaussianBlur
         inkscape:collect="always"
         stdDeviation="0.95686843"
         id="feGaussianBlur10" />
    </filter>
    <inkscape:path-effect
       effect="fillet_chamfer"
       id="path-effect9-7"
       is_visible="true"
       lpeversion="1"
       nodesatellites_param="F,0,1,1,0,4.4015355,0,1 @ F,0,0,1,0,0,0,1 @ F,0,0,1,0,0,0,1 @ F,0,0,1,0,0,0,1 @ F,0,0,1,0,0,0,1 @ F,0,0,1,0,0,0,1 @ F,0,0,1,0,0,0,1 @ F,0,0,1,0,1.2475174,0,1 @ F,0,0,1,0,1.2475174,0,1 @ F,0,0,1,0,0,0,1 @ F,0,0,1,0,0,0,1 @ F,0,0,1,0,0,0,1 @ F,0,0,1,0,0,0,1 @ F,0,0,1,0,0,0,1 @ F,0,0,1,0,0,0,1 @ F,0,1,1,0,4.4015355,0,1"
       radius="0"
       unit="px"
       method="auto"
       mode="F"
       chamfer_steps="1"
       flexible="false"
       use_knot_distance="true"
       apply_no_radius="true"
       apply_with_radius="true"
       only_selected="false"
       hide_knots="false" />
    <inkscape:path-effect
       effect="fillet_chamfer"
       id="path-effect9"
       is_visible="true"
       lpeversion="1"
       nodesatellites_param="F,0,1,1,0,4.4015355,0,1 @ F,0,0,1,0,0,0,1 @ F,0,0,1,0,0,0,1 @ F,0,0,1,0,0,0,1 @ F,0,0,1,0,0,0,1 @ F,0,0,1,0,0,0,1 @ F,0,0,1,0,0,0,1 @ F,0,0,1,0,1.2475174,0,1 @ F,0,0,1,0,1.2475174,0,1 @ F,0,0,1,0,0,0,1 @ F,0,0,1,0,0,0,1 @ F,0,0,1,0,0,0,1 @ F,0,0,1,0,0,0,1 @ F,0,0,1,0,0,0,1 @ F,0,0,1,0,0,0,1 @ F,0,1,1,0,4.4015355,0,1"
       radius="0"
       unit="px"
       method="auto"
       mode="F"
       chamfer_steps="1"
       flexible="false"
       use_knot_distance="true"
       apply_no_radius="true"
       apply_with_radius="true"
       only_selected="false"
       hide_knots="false" />
  </defs>
  <sodipodi:namedview
     id="namedview6"
     pagecolor="#ffffff"
     bordercolor="#000000"
     borderopacity="0.25"
     inkscape:showpageshadow="2"
     inkscape:pageopacity="0.0"
     inkscape:pagecheckerboard="0"
     inkscape:deskcolor="#d1d1d1"
     inkscape:zoom="13.890625"
     inkscape:cx="32"
     inkscape:cy="32"
     inkscape:window-width="1920"
     inkscape:window-height="1018"
     inkscape:window-x="0"
     inkscape:window-y="0"
     inkscape:window-maximized="1"
     inkscape:current-layer="svg6" />
  <g
     id="g2"
     transform="translate(3.054738e-7,-0.99999759)">
    <path
       style="opacity:0.345395;filter:url(#filter9)"
       d="M 12.75,5 C 11.2265,5 10,6.2488 10,7.8 v 50.4 c 0,1.55008 1.2265,2.8 2.75,2.8 h 38.5 C 52.7724,61 54,59.75008 54,58.2 V 23 L 40,19 36,5 Z"
       id="path1" />
    <path
       style="fill:url(#radialGradient12)"
       d="M 12.75,4 C 11.2265,4 10,5.2488 10,6.8 v 50.4 c 0,1.55008 1.2265,2.8 2.75,2.8 h 38.5 C 52.7724,60 54,58.75008 54,57.2 V 22 L 40,18 36,4 Z"
       id="path2" />
    <path
       style="opacity:0.345395;filter:url(#filter7)"
       d="M 54,23 36,5 V 20.1875 C 36,21.74675 37.2555,23 38.8125,23 Z"
       id="path3" />
    <path
       style="fill:url(#radialGradient14)"
       d="M 54,22 36,4 V 19.1875 C 36,20.74675 37.2555,22 38.8125,22 Z"
       id="path4" />
    <path
       style="opacity:0.755118;mix-blend-mode:normal;fill:#010101;fill-opacity:1;filter:url(#filter10)"
       d="m 25.999932,34.701856 -5.8e-5,8.298162 c 0,0 -0.31144,7.7e-4 -0.99992,-1.8e-5 -2.7614,0 -5,2.2386 -5,5 0,2.7614 2.2386,5 5,5 2.7244,-0.0017 4.946,-2.1842 4.996,-4.9082 l 0.004,-0.0078 V 36.247517 A 1.2475174,1.2475174 135 0 1 31.247471,35 h 7.504966 a 1.2475174,1.2475174 45 0 1 1.247517,1.247517 V 43 c 0,0 -0.31144,7.88e-4 -0.9999,0 -2.7614,0 -5,2.2386 -5,5 0,2.7614 2.2386,5 5,5 2.6622,-0.003 4.8552,-2.0912 4.9882,-4.75 l 0.0118,-0.02344 V 34.701799 c 0,-2.430901 -1.970635,-4.401513 -4.401535,-4.401522 -3.065675,-1.1e-5 -6.131355,-5.1e-5 -9.197022,-3.3e-5 -2.4309,1.5e-5 -4.401549,1.970712 -4.401565,4.401612 z"
       id="path7-5"
       sodipodi:nodetypes="cccscccccccsccccc"
       transform="translate(0.49951872,0.60541631)"
       inkscape:original-d="m 25.999962,30.300321 -8.8e-5,12.699697 c 0,0 -0.31144,7.7e-4 -0.99992,-1.8e-5 -2.7614,0 -5,2.2386 -5,5 0,2.7614 2.2386,5 5,5 2.7244,-0.0017 4.946,-2.1842 4.996,-4.9082 l 0.004,-0.0078 V 35 h 10 v 8 c 0,0 -0.31144,7.88e-4 -0.9999,0 -2.7614,0 -5,2.2386 -5,5 0,2.7614 2.2386,5 5,5 2.6622,-0.003 4.8552,-2.0912 4.9882,-4.75 l 0.0118,-0.02344 V 30.300263 c -6.000023,7.3e-5 -12.000098,-1.28e-4 -18.000092,5.8e-5 z"
       inkscape:path-effect="#path-effect9-7" />
    <path
       style="fill:#ffffff"
       d="m 25.999932,34.701856 -5.8e-5,8.298162 c 0,0 -0.31144,7.7e-4 -0.99992,-1.8e-5 -2.7614,0 -5,2.2386 -5,5 0,2.7614 2.2386,5 5,5 2.7244,-0.0017 4.946,-2.1842 4.996,-4.9082 l 0.004,-0.0078 V 36.247517 A 1.2475174,1.2475174 135 0 1 31.247471,35 h 7.504966 a 1.2475174,1.2475174 45 0 1 1.247517,1.247517 V 43 c 0,0 -0.31144,7.88e-4 -0.9999,0 -2.7614,0 -5,2.2386 -5,5 0,2.7614 2.2386,5 5,5 2.6622,-0.003 4.8552,-2.0912 4.9882,-4.75 l 0.0118,-0.02344 V 34.701799 c 0,-2.430901 -1.970635,-4.401513 -4.401535,-4.401522 -3.065675,-1.1e-5 -6.131355,-5.1e-5 -9.197022,-3.3e-5 -2.4309,1.5e-5 -4.401549,1.970712 -4.401565,4.401612 z"
       id="path7"
       sodipodi:nodetypes="cccscccccccsccccc"
       inkscape:original-d="m 25.999962,30.300321 -8.8e-5,12.699697 c 0,0 -0.31144,7.7e-4 -0.99992,-1.8e-5 -2.7614,0 -5,2.2386 -5,5 0,2.7614 2.2386,5 5,5 2.7244,-0.0017 4.946,-2.1842 4.996,-4.9082 l 0.004,-0.0078 V 35 h 10 v 8 c 0,0 -0.31144,7.88e-4 -0.9999,0 -2.7614,0 -5,2.2386 -5,5 0,2.7614 2.2386,5 5,5 2.6622,-0.003 4.8552,-2.0912 4.9882,-4.75 l 0.0118,-0.02344 V 30.300263 c -6.000023,7.3e-5 -12.000098,-1.28e-4 -18.000092,5.8e-5 z"
       inkscape:path-effect="#path-effect9" />
  </g>
</svg>
