<?xml version="1.0" encoding="UTF-8" standalone="no"?>
<svg
   width="64"
   height="64"
   version="1.1"
   id="svg8"
   sodipodi:docname="application-vnd.jgraph.mxfile.svg"
   inkscape:version="1.3.2 (091e20ef0f, 2023-11-25, custom)"
   xmlns:inkscape="http://www.inkscape.org/namespaces/inkscape"
   xmlns:sodipodi="http://sodipodi.sourceforge.net/DTD/sodipodi-0.dtd"
   xmlns:xlink="http://www.w3.org/1999/xlink"
   xmlns="http://www.w3.org/2000/svg"
   xmlns:svg="http://www.w3.org/2000/svg">
  <defs
     id="defs8">
    <radialGradient
       inkscape:collect="always"
       xlink:href="#linearGradient8"
       id="radialGradient10"
       cx="26.562349"
       cy="34.701057"
       fx="26.562349"
       fy="34.701057"
       r="9"
       gradientUnits="userSpaceOnUse"
       gradientTransform="matrix(5.6313971,-3.2512886,3.2512886,5.6313971,-234.95606,-75.502159)" />
    <linearGradient
       id="linearGradient8"
       inkscape:collect="always">
      <stop
         style="stop-color:#ffdea2;stop-opacity:1;"
         offset="0"
         id="stop9" />
      <stop
         style="stop-color:#ffcaa2;stop-opacity:1;"
         offset="1"
         id="stop10" />
    </linearGradient>
    <filter
       inkscape:collect="always"
       style="color-interpolation-filters:sRGB"
       id="filter6"
       x="-0.097995718"
       y="-0.097995716"
       width="1.1959914"
       height="1.1959914">
      <feGaussianBlur
         inkscape:collect="always"
         stdDeviation="0.73496786"
         id="feGaussianBlur6" />
    </filter>
    <radialGradient
       inkscape:collect="always"
       xlink:href="#linearGradient7"
       id="radialGradient8"
       cx="15.511949"
       cy="48.400986"
       fx="15.511949"
       fy="48.400986"
       r="22"
       gradientTransform="matrix(2.4462083,-1.412319,1.7974969,3.113356,-108.54624,-77.057344)"
       gradientUnits="userSpaceOnUse" />
    <linearGradient
       id="linearGradient7"
       inkscape:collect="always">
      <stop
         style="stop-color:#efbb0e;stop-opacity:1;"
         offset="0"
         id="stop7" />
      <stop
         style="stop-color:#ff913a;stop-opacity:1;"
         offset="1"
         id="stop8" />
    </linearGradient>
    <filter
       inkscape:collect="always"
       style="color-interpolation-filters:sRGB"
       id="filter7"
       x="-0.040089157"
       y="-0.031498624"
       width="1.0801783"
       height="1.0629972">
      <feGaussianBlur
         inkscape:collect="always"
         stdDeviation="0.73496786"
         id="feGaussianBlur7" />
    </filter>
    <filter
       inkscape:collect="always"
       style="color-interpolation-filters:sRGB"
       id="filter8"
       x="-0.049239273"
       y="-0.055147985"
       width="1.0984785"
       height="1.110296">
      <feGaussianBlur
         inkscape:collect="always"
         stdDeviation="0.5744582"
         id="feGaussianBlur8" />
    </filter>
  </defs>
  <sodipodi:namedview
     id="namedview8"
     pagecolor="#ffffff"
     bordercolor="#000000"
     borderopacity="0.25"
     inkscape:showpageshadow="2"
     inkscape:pageopacity="0.0"
     inkscape:pagecheckerboard="0"
     inkscape:deskcolor="#d1d1d1"
     inkscape:zoom="13.890625"
     inkscape:cx="32"
     inkscape:cy="32"
     inkscape:window-width="1920"
     inkscape:window-height="1018"
     inkscape:window-x="0"
     inkscape:window-y="0"
     inkscape:window-maximized="1"
     inkscape:current-layer="svg8" />
  <g
     id="g8"
     transform="translate(-0.88788564,0.14964784)">
    <path
       style="opacity:0.494811;filter:url(#filter7)"
       d="m 13.637886,3.8503526 c -1.5235,0 -2.75,1.2488 -2.75,2.8 V 57.050353 c 0,1.55008 1.2265,2.8 2.75,2.8 h 38.5 c 1.5224,0 2.75,-1.24992 2.75,-2.8 v -35.2 l -14,-4 -4,-14.0000004 z"
       id="path1" />
    <path
       style="fill:url(#radialGradient8)"
       d="m 13.637886,2.8503526 c -1.5235,0 -2.75,1.2488 -2.75,2.8 V 56.050353 c 0,1.55008 1.2265,2.8 2.75,2.8 h 38.5 c 1.5224,0 2.75,-1.24992 2.75,-2.8 v -35.2 l -14,-4 -4,-14.0000004 z"
       id="path2" />
    <path
       style="opacity:0.494811;filter:url(#filter6)"
       d="m 54.887886,21.850353 -18,-18.0000004 V 19.037853 c 0,1.55925 1.2555,2.8125 2.8125,2.8125 z"
       id="path3" />
    <path
       style="fill:url(#radialGradient10)"
       d="m 54.887886,20.850353 -18,-18.0000004 V 18.037853 c 0,1.55925 1.2555,2.8125 2.8125,2.8125 z"
       id="path4" />
  </g>
  <path
     style="fill:none;stroke:#3f3f3f;stroke-width:1.93847"
     d="M 23.276922,48.153845 32,32.646153 40.723077,48.153845"
     id="path6" />
  <path
     style="opacity:0.39630955;filter:url(#filter8)"
     d="m 28,29 c -1.108,0 -2,0.892 -2,2 v 6 c 0,1.108 0.892,2 2,2 h 8 c 1.107999,0 2,-0.892 2,-2 v -6 c 0,-1.108 -0.892001,-2 -2,-2 z m -8,15 c -1.108,0 -2,0.892001 -2,2 v 6 c 0,1.108 0.892,2 2,2 h 8 c 1.107999,0 2,-0.892 2,-2 v -6 c 0,-1.107999 -0.892001,-2 -2,-2 z m 16,0 c -1.108,0 -2,0.892001 -2,2 v 6 c 0,1.108 0.892,2 2,2 h 8 c 1.107999,0 2,-0.892 2,-2 v -6 c 0,-1.107999 -0.892001,-2 -2,-2 z"
     id="path7" />
  <path
     style="fill:#ffffff"
     d="M 28 28 C 26.892 28 26 28.892 26 30 L 26 36 C 26 37.108 26.892 38 28 38 L 36 38 C 37.107999 38 38 37.108 38 36 L 38 30 C 38 28.892 37.107999 28 36 28 L 28 28 z M 20 43 C 18.892 43 18 43.892001 18 45 L 18 51 C 18 52.108 18.892 53 20 53 L 28 53 C 29.107999 53 30 52.108 30 51 L 30 45 C 30 43.892001 29.107999 43 28 43 L 20 43 z M 36 43 C 34.892 43 34 43.892001 34 45 L 34 51 C 34 52.108 34.892 53 36 53 L 44 53 C 45.107999 53 46 52.108 46 51 L 46 45 C 46 43.892001 45.107999 43 44 43 L 36 43 z"
     id="path8" />
</svg>
