<?xml version="1.0" encoding="UTF-8" standalone="no"?>
<svg
   width="64"
   height="64"
   version="1.1"
   id="svg8"
   sodipodi:docname="application-x-codeblocks.svg"
   inkscape:version="1.3.2 (091e20ef0f, 2023-11-25, custom)"
   xmlns:inkscape="http://www.inkscape.org/namespaces/inkscape"
   xmlns:sodipodi="http://sodipodi.sourceforge.net/DTD/sodipodi-0.dtd"
   xmlns:xlink="http://www.w3.org/1999/xlink"
   xmlns="http://www.w3.org/2000/svg"
   xmlns:svg="http://www.w3.org/2000/svg">
  <defs
     id="defs8">
    <radialGradient
       inkscape:collect="always"
       xlink:href="#linearGradient7"
       id="radialGradient8"
       cx="15.511949"
       cy="48.400986"
       fx="15.511949"
       fy="48.400986"
       r="22"
       gradientTransform="matrix(2.4462083,-1.412319,1.7974969,3.113356,-109.42565,-75.875045)"
       gradientUnits="userSpaceOnUse" />
    <linearGradient
       id="linearGradient7"
       inkscape:collect="always">
      <stop
         style="stop-color:#fffafa;stop-opacity:1;"
         offset="0"
         id="stop7" />
      <stop
         style="stop-color:#000000;stop-opacity:1;"
         offset="1"
         id="stop8" />
    </linearGradient>
    <filter
       inkscape:collect="always"
       style="color-interpolation-filters:sRGB"
       id="filter8"
       x="-0.068289463"
       y="-0.068289463"
       width="1.1365789"
       height="1.1365789">
      <feGaussianBlur
         inkscape:collect="always"
         stdDeviation="0.512171"
         id="feGaussianBlur8" />
    </filter>
    <filter
       inkscape:collect="always"
       style="color-interpolation-filters:sRGB"
       id="filter9"
       x="-0.027936598"
       y="-0.021950184"
       width="1.0558732"
       height="1.0439004">
      <feGaussianBlur
         inkscape:collect="always"
         stdDeviation="0.512171"
         id="feGaussianBlur9" />
    </filter>
  </defs>
  <sodipodi:namedview
     id="namedview8"
     pagecolor="#ffffff"
     bordercolor="#000000"
     borderopacity="0.25"
     inkscape:showpageshadow="2"
     inkscape:pageopacity="0.0"
     inkscape:pagecheckerboard="0"
     inkscape:deskcolor="#d1d1d1"
     inkscape:zoom="13.890625"
     inkscape:cx="32"
     inkscape:cy="32"
     inkscape:window-width="1920"
     inkscape:window-height="1018"
     inkscape:window-x="0"
     inkscape:window-y="0"
     inkscape:window-maximized="1"
     inkscape:current-layer="svg8" />
  <path
     style="opacity:0.52405031;filter:url(#filter9)"
     d="M 12.75,5 C 11.2265,5 10,6.2488 10,7.8 v 50.4 c 0,1.55008 1.2265,2.8 2.75,2.8 h 38.5 C 52.7724,61 54,59.75008 54,58.2 V 23 L 40,19 36,5 Z"
     id="path1" />
  <path
     style="fill:#f2ae37"
     d="M 10,32 V 57.199218 C 10,58.749298 11.2265,60 12.75,60 H 32 V 32 Z"
     id="path2" />
  <path
     style="fill:#38ac52"
     d="M 32,4 V 32 H 54 V 22 L 40,18 36,4 Z"
     id="path3" />
  <path
     style="fill:#e44545"
     d="M 12.75,4 C 11.2265,4 10,5.2495812 10,6.8007812 V 32 H 32 V 4 Z"
     id="path5" />
  <path
     style="fill:#3776f2"
     d="M 32,32 V 60 H 51.25 C 52.7724,60 54,58.749298 54,57.199218 V 32 Z"
     id="path7" />
  <path
     style="fill:url(#radialGradient8);opacity:0.21781556"
     d="m 12.758485,4.0326517 c -1.5235,0 -2.75,1.2488 -2.75,2.8 V 57.232652 c 0,1.55008 1.2265,2.8 2.75,2.8 h 38.5 c 1.5224,0 2.75,-1.24992 2.75,-2.8 v -35.2 l -14,-4 -4,-14.0000003 z"
     id="path2-6" />
  <path
     style="opacity:0.52405031;filter:url(#filter8)"
     d="M 54,23 36,5 V 20.1875 C 36,21.74675 37.2555,23 38.8125,23 Z"
     id="path4" />
  <path
     style="fill:#7ed591"
     d="M 54,22 36,4 V 19.1875 C 36,20.74675 37.2555,22 38.8125,22 Z"
     id="path8" />
</svg>
