<?xml version="1.0" encoding="UTF-8" standalone="no"?>
<svg
   width="64"
   height="64"
   version="1.1"
   id="svg7"
   sodipodi:docname="openoffice4-drawing-template.svg"
   inkscape:version="1.3.2 (091e20ef0f, 2023-11-25, custom)"
   xmlns:inkscape="http://www.inkscape.org/namespaces/inkscape"
   xmlns:sodipodi="http://sodipodi.sourceforge.net/DTD/sodipodi-0.dtd"
   xmlns:xlink="http://www.w3.org/1999/xlink"
   xmlns="http://www.w3.org/2000/svg"
   xmlns:svg="http://www.w3.org/2000/svg">
  <defs
     id="defs7">
    <linearGradient
       id="linearGradient10"
       inkscape:collect="always">
      <stop
         style="stop-color:#fed861;stop-opacity:1;"
         offset="0"
         id="stop11" />
      <stop
         style="stop-color:#feb161;stop-opacity:1;"
         offset="1"
         id="stop12" />
    </linearGradient>
    <linearGradient
       id="linearGradient9"
       inkscape:collect="always">
      <stop
         style="stop-color:#fec006;stop-opacity:1;"
         offset="0"
         id="stop9" />
      <stop
         style="stop-color:#fe8806;stop-opacity:1;"
         offset="1"
         id="stop10" />
    </linearGradient>
    <filter
       inkscape:collect="always"
       style="color-interpolation-filters:sRGB"
       id="filter7"
       x="-0.10095046"
       y="-0.10095046"
       width="1.2019009"
       height="1.2019009">
      <feGaussianBlur
         inkscape:collect="always"
         stdDeviation="0.75712847"
         id="feGaussianBlur7" />
    </filter>
    <filter
       inkscape:collect="always"
       style="color-interpolation-filters:sRGB"
       id="filter8"
       x="-0.13452108"
       y="-0.16712309"
       width="1.293065"
       height="1.3344122">
      <feGaussianBlur
         inkscape:collect="always"
         stdDeviation="0.75712847"
         id="feGaussianBlur8" />
    </filter>
    <filter
       inkscape:collect="always"
       style="color-interpolation-filters:sRGB"
       id="filter9"
       x="-0.041297917"
       y="-0.032448363"
       width="1.0825958"
       height="1.0648967">
      <feGaussianBlur
         inkscape:collect="always"
         stdDeviation="0.75712847"
         id="feGaussianBlur9" />
    </filter>
    <radialGradient
       inkscape:collect="always"
       xlink:href="#linearGradient9"
       id="radialGradient10"
       cx="14.026836"
       cy="52.156612"
       fx="14.026836"
       fy="52.156612"
       r="22"
       gradientTransform="matrix(2.2321145,-1.2887119,1.6401789,2.8408731,-102.82884,-72.439893)"
       gradientUnits="userSpaceOnUse" />
    <radialGradient
       inkscape:collect="always"
       xlink:href="#linearGradient10"
       id="radialGradient12"
       cx="15.323762"
       cy="52.119846"
       fx="15.323762"
       fy="52.119846"
       r="9"
       gradientUnits="userSpaceOnUse"
       gradientTransform="matrix(5.2024966,-5.2024966,5.2024966,5.2024966,-335.55138,-139.31166)" />
  </defs>
  <sodipodi:namedview
     id="namedview7"
     pagecolor="#ffffff"
     bordercolor="#000000"
     borderopacity="0.25"
     inkscape:showpageshadow="2"
     inkscape:pageopacity="0.0"
     inkscape:pagecheckerboard="0"
     inkscape:deskcolor="#d1d1d1"
     inkscape:zoom="13.890625"
     inkscape:cx="27.176603"
     inkscape:cy="34.015748"
     inkscape:window-width="1920"
     inkscape:window-height="1018"
     inkscape:window-x="0"
     inkscape:window-y="0"
     inkscape:window-maximized="1"
     inkscape:current-layer="svg7" />
  <path
     style="opacity:0.54071485;filter:url(#filter9)"
     d="M 12.75,5 C 11.2265,5 10,6.2488 10,7.8 v 50.4 c 0,1.55008 1.2265,2.8 2.75,2.8 h 38.5 C 52.7724,61 54,59.75008 54,58.2 V 23 L 40,19 36,5 Z"
     id="path1" />
  <path
     style="fill:url(#radialGradient10)"
     d="M 12.75,4 C 11.2265,4 10,5.2488 10,6.8 v 50.4 c 0,1.55008 1.2265,2.8 2.75,2.8 h 38.5 C 52.7724,60 54,58.75008 54,57.2 V 22 L 40,18 36,4 Z"
     id="path2" />
  <path
     style="opacity:0.54071485;filter:url(#filter7)"
     d="M 54,23 36,5 V 20.1875 C 36,21.74675 37.2555,23 38.8125,23 Z"
     id="path3" />
  <path
     style="fill:url(#radialGradient12)"
     d="M 54,22 36,4 V 19.1875 C 36,20.74675 37.2555,22 38.8125,22 Z"
     id="path4" />
  <path
     style="opacity:0.54071485;fill:none;stroke:#000000;stroke-width:3;stroke-linecap:square;filter:url(#filter8)"
     d="m 19.5,42.500097 1.80064,0.0238 c 4.23948,0.0924 8.2663,1.19318 9.76864,3.52516 3.50518,5.44068 -3.43742,7.20496 -6.22678,3.36252 -2.60666,-4.2175 -1.7059,-12.67996 2.04974,-13.69748 6.79574,-1.54882 7.321,8.63774 11.50476,6.532 3.23162,-1.62652 -1.942508,-8.81946 1.219,-10.578 1.355018,-0.75376 4.689048,2.12256 4.689048,2.12256"
     id="path6" />
  <path
     style="fill:none;stroke:#ffffff;stroke-width:3;stroke-linecap:square"
     d="m 19.5,41.500097 1.80064,0.0238 c 4.23948,0.0924 8.2663,1.19318 9.76864,3.52516 3.50518,5.44068 -3.43742,7.20496 -6.22678,3.36252 -2.60666,-4.2175 -1.7059,-12.67996 2.04974,-13.69748 6.79574,-1.54882 7.321,8.63774 11.50476,6.532 3.23162,-1.62652 -1.942508,-8.81946 1.219,-10.578 1.355018,-0.75376 4.689048,2.12256 4.689048,2.12256"
     id="path7" />
</svg>
