<?xml version="1.0" encoding="UTF-8" standalone="no"?>
<svg
   width="64"
   height="64"
   version="1.1"
   id="svg7"
   sodipodi:docname="application-vnd.insync.link.drive.form.svg"
   inkscape:version="1.3.2 (091e20ef0f, 2023-11-25, custom)"
   xmlns:inkscape="http://www.inkscape.org/namespaces/inkscape"
   xmlns:sodipodi="http://sodipodi.sourceforge.net/DTD/sodipodi-0.dtd"
   xmlns:xlink="http://www.w3.org/1999/xlink"
   xmlns="http://www.w3.org/2000/svg"
   xmlns:svg="http://www.w3.org/2000/svg">
  <defs
     id="defs7">
    <linearGradient
       id="linearGradient13"
       inkscape:collect="always">
      <stop
         style="stop-color:#9c6fbf;stop-opacity:1;"
         offset="0"
         id="stop12" />
      <stop
         style="stop-color:#6867bf;stop-opacity:1;"
         offset="1"
         id="stop13" />
    </linearGradient>
    <linearGradient
       id="linearGradient9"
       inkscape:collect="always">
      <stop
         style="stop-color:#8f4ebf;stop-opacity:1;"
         offset="0"
         id="stop9" />
      <stop
         style="stop-color:#534ebf;stop-opacity:1;"
         offset="1"
         id="stop10" />
    </linearGradient>
    <inkscape:path-effect
       effect="fillet_chamfer"
       id="path-effect9"
       is_visible="true"
       lpeversion="1"
       nodesatellites_param="F,0,1,1,0,1.3829452,0,1 @ F,0,1,1,0,1.3829452,0,1 @ F,0,0,1,0,1.3829452,0,1 @ F,0,1,1,0,1.3829452,0,1 | F,0,1,1,0,1.3829452,0,1 @ F,0,1,1,0,1.3829452,0,1 @ F,0,1,1,0,1.3829452,0,1 @ F,0,1,1,0,1.3829452,0,1 | F,0,1,1,0,1.3829452,0,1 @ F,0,1,1,0,1.3829452,0,1 @ F,0,1,1,0,1.3829452,0,1 @ F,0,1,1,0,1.3829452,0,1 | F,0,1,1,0,1.3829452,0,1 @ F,0,1,1,0,1.3829452,0,1 @ F,0,1,1,0,1.3829452,0,1 @ F,0,1,1,0,1.3829452,0,1 | F,0,1,1,0,1.3829452,0,1 @ F,0,1,1,0,1.3829452,0,1 @ F,0,1,1,0,1.3829452,0,1 @ F,0,1,1,0,1.3829452,0,1 | F,0,1,1,0,1.3829452,0,1 @ F,0,1,1,0,1.3829452,0,1 @ F,0,1,1,0,1.3829452,0,1 @ F,0,1,1,0,1.3829452,0,1"
       radius="0"
       unit="px"
       method="auto"
       mode="F"
       chamfer_steps="1"
       flexible="false"
       use_knot_distance="true"
       apply_no_radius="true"
       apply_with_radius="true"
       only_selected="false"
       hide_knots="false" />
    <filter
       inkscape:collect="always"
       style="color-interpolation-filters:sRGB"
       id="filter7"
       x="-0.11171029"
       y="-0.11171029"
       width="1.2234206"
       height="1.2234206">
      <feGaussianBlur
         inkscape:collect="always"
         stdDeviation="0.83782719"
         id="feGaussianBlur7" />
    </filter>
    <filter
       inkscape:collect="always"
       style="color-interpolation-filters:sRGB"
       id="filter8"
       x="-0.045699666"
       y="-0.03590688"
       width="1.0913993"
       height="1.0718138">
      <feGaussianBlur
         inkscape:collect="always"
         stdDeviation="0.83782719"
         id="feGaussianBlur8" />
    </filter>
    <filter
       inkscape:collect="always"
       style="color-interpolation-filters:sRGB"
       id="filter9"
       x="-0.07181376"
       y="-0.11828149"
       width="1.1436275"
       height="1.236563">
      <feGaussianBlur
         inkscape:collect="always"
         stdDeviation="0.83782719"
         id="feGaussianBlur9" />
    </filter>
    <radialGradient
       inkscape:collect="always"
       xlink:href="#linearGradient9"
       id="radialGradient10"
       cx="13.577895"
       cy="53.739147"
       fx="13.577895"
       fy="53.739147"
       r="22"
       gradientTransform="matrix(2.3663468,-2.3663468,3.0117141,3.0117141,-180.39906,-70.048931)"
       gradientUnits="userSpaceOnUse" />
    <radialGradient
       inkscape:collect="always"
       xlink:href="#linearGradient13"
       id="radialGradient12"
       cx="29.035992"
       cy="29.830204"
       fx="29.035992"
       fy="29.830204"
       r="9"
       gradientUnits="userSpaceOnUse"
       gradientTransform="matrix(4.9166491,0,0,4.9166491,-113.72379,-116.83444)" />
  </defs>
  <sodipodi:namedview
     id="namedview7"
     pagecolor="#ffffff"
     bordercolor="#000000"
     borderopacity="0.25"
     inkscape:showpageshadow="2"
     inkscape:pageopacity="0.0"
     inkscape:pagecheckerboard="0"
     inkscape:deskcolor="#d1d1d1"
     inkscape:zoom="13.890625"
     inkscape:cx="33.367829"
     inkscape:cy="32"
     inkscape:window-width="1920"
     inkscape:window-height="1018"
     inkscape:window-x="0"
     inkscape:window-y="0"
     inkscape:window-maximized="1"
     inkscape:current-layer="svg7" />
  <path
     style="opacity:0.50067231;filter:url(#filter8)"
     d="M 12.75,5 C 11.2265,5 10,6.2488 10,7.8 v 50.4 c 0,1.55008 1.2265,2.8 2.75,2.8 h 38.5 C 52.7724,61 54,59.75008 54,58.2 V 23 L 40,19 36,5 Z"
     id="path1" />
  <path
     style="fill:url(#radialGradient10)"
     d="M 12.75,4 C 11.2265,4 10,5.2488 10,6.8 v 50.4 c 0,1.55008 1.2265,2.8 2.75,2.8 h 38.5 C 52.7724,60 54,58.75008 54,57.2 V 22 L 40,18 36,4 Z"
     id="path2" />
  <path
     style="opacity:0.50067231;filter:url(#filter7)"
     d="M 54,23 36,5 V 20.1875 C 36,21.74675 37.2555,23 38.8125,23 Z"
     id="path3" />
  <path
     style="fill:url(#radialGradient12)"
     d="M 54,22 36,4 V 19.1875 C 36,20.74675 37.2555,22 38.8125,22 Z"
     id="path4" />
  <path
     style="opacity:0.50067231;filter:url(#filter9)"
     d="m 18,33 v 3 h 3 v -3 z m 6,0 v 3 h 22 v -3 z m -6,7 v 3 h 3 v -3 z m 6,0 v 3 h 22 v -3 z m -6,7 v 3 h 3 v -3 z m 6,0 v 3 h 22 v -3 z"
     id="path6" />
  <path
     style="fill:#ffffff"
     d="m 18,33.382945 v 0.23411 A 1.3829452,1.3829452 45 0 0 19.382945,35 h 0.23411 A 1.3829452,1.3829452 135 0 0 21,33.617055 v -0.23411 A 1.3829452,1.3829452 45 0 0 19.617055,32 h -0.23411 A 1.3829452,1.3829452 135 0 0 18,33.382945 Z m 6,0 v 0.23411 A 1.3829452,1.3829452 45 0 0 25.382945,35 l 19.23411,0 A 1.3829452,1.3829452 135 0 0 46,33.617055 v -0.23411 A 1.3829452,1.3829452 45 0 0 44.617055,32 H 25.382945 A 1.3829452,1.3829452 135 0 0 24,33.382945 Z m -6,7 v 0.23411 A 1.3829452,1.3829452 45 0 0 19.382945,42 h 0.23411 A 1.3829452,1.3829452 135 0 0 21,40.617055 v -0.23411 A 1.3829452,1.3829452 45 0 0 19.617055,39 h -0.23411 A 1.3829452,1.3829452 135 0 0 18,40.382945 Z m 6,0 v 0.23411 A 1.3829452,1.3829452 45 0 0 25.382945,42 h 19.23411 A 1.3829452,1.3829452 135 0 0 46,40.617055 v -0.23411 A 1.3829452,1.3829452 45 0 0 44.617055,39 H 25.382945 A 1.3829452,1.3829452 135 0 0 24,40.382945 Z m -6,7 v 0.23411 A 1.3829452,1.3829452 45 0 0 19.382945,49 h 0.23411 A 1.3829452,1.3829452 135 0 0 21,47.617055 v -0.23411 A 1.3829452,1.3829452 45 0 0 19.617055,46 h -0.23411 A 1.3829452,1.3829452 135 0 0 18,47.382945 Z m 6,0 v 0.23411 A 1.3829452,1.3829452 45 0 0 25.382945,49 h 19.23411 A 1.3829452,1.3829452 135 0 0 46,47.617055 v -0.23411 A 1.3829452,1.3829452 45 0 0 44.617055,46 H 25.382945 A 1.3829452,1.3829452 135 0 0 24,47.382945 Z"
     id="path7"
     inkscape:path-effect="#path-effect9"
     inkscape:original-d="M 18 32 L 18 35 L 21 35 L 21 32 L 18 32 z M 24 32 L 24 35 L 46 35 L 46 32 L 24 32 z M 18 39 L 18 42 L 21 42 L 21 39 L 18 39 z M 24 39 L 24 42 L 46 42 L 46 39 L 24 39 z M 18 46 L 18 49 L 21 49 L 21 46 L 18 46 z M 24 46 L 24 49 L 46 49 L 46 46 L 24 46 z" />
</svg>
