<?xml version="1.0" encoding="UTF-8" standalone="no"?>
<svg
   width="64"
   height="64"
   version="1"
   id="svg7"
   sodipodi:docname="application-postscript.svg"
   inkscape:version="1.3.2 (091e20ef0f, 2023-11-25, custom)"
   xmlns:inkscape="http://www.inkscape.org/namespaces/inkscape"
   xmlns:sodipodi="http://sodipodi.sourceforge.net/DTD/sodipodi-0.dtd"
   xmlns:xlink="http://www.w3.org/1999/xlink"
   xmlns="http://www.w3.org/2000/svg"
   xmlns:svg="http://www.w3.org/2000/svg">
  <defs
     id="defs7">
    <filter
       inkscape:collect="always"
       style="color-interpolation-filters:sRGB"
       id="filter8"
       x="-0.031461746"
       y="-0.024719943"
       width="1.0629235"
       height="1.0494399">
      <feGaussianBlur
         inkscape:collect="always"
         stdDeviation="0.57679865"
         id="feGaussianBlur8" />
    </filter>
    <radialGradient
       inkscape:collect="always"
       xlink:href="#linearGradient9"
       id="radialGradient10"
       cx="12.85222"
       cy="51.662251"
       fx="12.85222"
       fy="51.662251"
       r="22"
       gradientTransform="matrix(2.4994495,-1.4430579,1.8366191,3.1811176,-114.15513,-89.772516)"
       gradientUnits="userSpaceOnUse" />
    <linearGradient
       id="linearGradient9"
       inkscape:collect="always">
      <stop
         style="stop-color:#f4461c;stop-opacity:1;"
         offset="0"
         id="stop9" />
      <stop
         style="stop-color:#e03758;stop-opacity:1;"
         offset="1"
         id="stop10" />
    </linearGradient>
    <filter
       inkscape:collect="always"
       style="color-interpolation-filters:sRGB"
       id="filter9"
       x="-0.07690649"
       y="-0.076906492"
       width="1.153813"
       height="1.153813">
      <feGaussianBlur
         inkscape:collect="always"
         stdDeviation="0.57679865"
         id="feGaussianBlur9" />
    </filter>
    <radialGradient
       inkscape:collect="always"
       xlink:href="#linearGradient13"
       id="radialGradient12"
       cx="25.181398"
       cy="36.216312"
       fx="25.181398"
       fy="36.216312"
       r="9"
       gradientUnits="userSpaceOnUse"
       gradientTransform="matrix(5.2087255,-3.0072591,3.0072591,5.2087255,-214.89343,-77.69753)" />
    <linearGradient
       id="linearGradient13"
       inkscape:collect="always">
      <stop
         style="stop-color:#ff8164;stop-opacity:1;"
         offset="0"
         id="stop12" />
      <stop
         style="stop-color:#bb3b50;stop-opacity:1;"
         offset="1"
         id="stop13" />
    </linearGradient>
    <filter
       inkscape:collect="always"
       style="color-interpolation-filters:sRGB"
       id="filter7"
       x="-0.067150137"
       y="-0.07246725"
       width="1.1343003"
       height="1.1449345">
      <feGaussianBlur
         inkscape:collect="always"
         stdDeviation="0.89533517"
         id="feGaussianBlur7" />
    </filter>
  </defs>
  <sodipodi:namedview
     id="namedview7"
     pagecolor="#ffffff"
     bordercolor="#000000"
     borderopacity="0.25"
     inkscape:showpageshadow="2"
     inkscape:pageopacity="0.0"
     inkscape:pagecheckerboard="0"
     inkscape:deskcolor="#d1d1d1"
     inkscape:zoom="13.890625"
     inkscape:cx="32"
     inkscape:cy="32"
     inkscape:window-width="1920"
     inkscape:window-height="1018"
     inkscape:window-x="0"
     inkscape:window-y="0"
     inkscape:window-maximized="1"
     inkscape:current-layer="svg7" />
  <path
     style="opacity:0.601814;filter:url(#filter8)"
     d="m 12.749999,3.9999994 c -1.5235,0 -2.7500003,1.2488 -2.7500003,2.8 V 57.199999 c 0,1.55008 1.2265003,2.8 2.7500003,2.8 h 38.5 c 1.5224,0 2.75,-1.24992 2.75,-2.8 v -35.2 l -14,-4 -4,-13.9999996 z"
     id="path1" />
  <path
     style="fill:url(#radialGradient10)"
     d="m 12.749999,2.9999994 c -1.5235,0 -2.7500003,1.2488 -2.7500003,2.8 V 56.199999 c 0,1.55008 1.2265003,2.8 2.7500003,2.8 h 38.5 c 1.5224,0 2.75,-1.24992 2.75,-2.8 v -35.2 l -14,-4 -4,-13.9999996 z"
     id="path2" />
  <path
     style="opacity:0.601814;filter:url(#filter9)"
     d="m 53.999999,21.999999 -18,-17.9999996 V 19.187499 c 0,1.55925 1.2555,2.8125 2.8125,2.8125 z"
     id="path3" />
  <path
     style="fill:url(#radialGradient12)"
     d="m 53.999999,20.999999 -18,-17.9999996 V 18.187499 c 0,1.55925 1.2555,2.8125 2.8125,2.8125 z"
     id="path4" />
  <path
     style="opacity:0.49912445;filter:url(#filter7)"
     d="m 27.448968,54.97261 c -0.607206,-0.02302 -1.121856,-0.06034 -1.143664,-0.08298 -0.0218,-0.02254 0.242894,-0.17934 0.58824,-0.34839 1.387782,-0.679414 2.484708,-1.826372 3.463298,-3.621268 0.15046,-0.275974 0.649192,-1.348496 1.108296,-2.383392 3.35961,-7.573186 7.76176,-17.389398 7.832144,-17.464638 0.0743,-0.0795 0.28674,-0.07706 1.678742,0.019 3.71091,0.255932 4.395174,0.361428 5.05233,0.778952 0.609198,0.38704 1.166284,1.133994 1.365326,1.830644 0.298488,1.04472 0.605402,5.685762 0.60632,9.168462 7.08e-4,3.579342 -0.316048,8.358888 -0.617152,9.305438 -0.320878,1.00872 -1.089526,1.798902 -2.047348,2.104706 -0.545188,0.17406 -3.412756,0.4272 -7.104318,0.62715 -1.465284,0.07942 -9.189366,0.12692 -10.782214,0.0663 z m -6.632486,-0.356754 c -0.11678,-0.0132 -0.499078,-0.0566 -0.8495,-0.09574 -1.864786,-0.208072 -2.893562,-0.893556 -3.339826,-2.225348 -0.403197,-1.203262 -0.720133,-7.26584 -0.602233,-11.519898 0.09424,-3.4004 0.356013,-6.527 0.603776,-7.211484 0.386769,-1.068534 1.246819,-1.853752 2.285473,-2.086626 0.484007,-0.10852 2.620246,-0.29767 4.99691,-0.442454 1.356378,-0.08266 1.69348,-0.12118 1.801314,-0.206052 0.07298,-0.05742 0.953546,-1.055298 1.956848,-2.217506 1.003306,-1.162212 1.846914,-2.12763 1.874678,-2.145368 0.233884,-0.14942 1.64857,-0.10002 1.64857,0.0575 0,0.05962 -11.199698,13.609726 -13.153974,15.914444 -0.05139,0.06064 -0.07872,0.1253 -0.06076,0.14388 0.01798,0.0186 0.306502,-0.02398 0.641226,-0.09446 0.436194,-0.0919 0.841652,-0.12818 1.4313,-0.12818 2.797654,0 5.831902,1.145582 7.554498,2.852206 1.165966,1.155152 1.643574,2.239698 1.644156,3.733488 0.0015,2.990706 -1.796402,4.918466 -5.154584,5.527918 -0.667916,0.12122 -2.702446,0.210384 -3.277864,0.14366 z m 9.28344,-5.76879 c -0.0015,-2.164982 -0.860726,-4.161312 -2.54632,-5.915294 -0.88655,-0.922518 -1.886182,-1.669206 -3.03168,-2.264542 -0.501844,-0.26081 -1.819294,-0.752072 -2.02161,-0.753826 -0.05842,-5e-4 -0.1062,-0.03762 -0.1062,-0.08238 0,-0.06106 6.373184,-7.70146 11.905346,-14.272566 l 0.17718,-0.210458 0.423368,0.14074 c 0.514476,0.171 1.26322,0.557766 1.347672,0.696158 0.06374,0.1045 0.228,-0.09674 -8.103498,9.9274 -1.29277,1.55541 -2.350846,2.84685 -2.351286,2.869856 -4.26e-4,0.02296 0.238126,0.23441 0.53014,0.469786 2.05375,1.655364 3.65413,4.288328 4.054162,6.669922 0.17096,1.01781 0.0386,2.949708 -0.221128,3.226988 -0.03412,0.03642 -0.05592,-0.15882 -0.05614,-0.501766 z"
     id="path5" />
  <path
     style="fill:#ffffff;fill-opacity:1"
     d="m 27.448968,53.97261 c -0.607206,-0.02302 -1.121856,-0.06034 -1.143664,-0.08298 -0.0218,-0.02254 0.242894,-0.17934 0.58824,-0.34839 1.387782,-0.679414 2.484708,-1.826372 3.463298,-3.621268 0.15046,-0.275974 0.649192,-1.348496 1.108296,-2.383392 3.35961,-7.573186 7.76176,-17.389398 7.832144,-17.464638 0.0743,-0.0795 0.28674,-0.07706 1.678742,0.019 3.71091,0.255932 4.395174,0.361428 5.05233,0.778952 0.609198,0.38704 1.166284,1.133994 1.365326,1.830644 0.298488,1.04472 0.605402,5.685762 0.60632,9.168462 7.08e-4,3.579342 -0.316048,8.358888 -0.617152,9.305438 -0.320878,1.00872 -1.089526,1.798902 -2.047348,2.104706 -0.545188,0.17406 -3.412756,0.4272 -7.104318,0.62715 -1.465284,0.07942 -9.189366,0.12692 -10.782214,0.0663 z m -6.632486,-0.356754 c -0.11678,-0.0132 -0.499078,-0.0566 -0.8495,-0.09574 -1.864786,-0.208072 -2.893562,-0.893556 -3.339826,-2.225348 -0.403197,-1.203262 -0.720133,-7.26584 -0.602233,-11.519898 0.09424,-3.4004 0.356013,-6.527 0.603776,-7.211484 0.386769,-1.068534 1.246819,-1.853752 2.285473,-2.086626 0.484007,-0.10852 2.620246,-0.29767 4.99691,-0.442454 1.356378,-0.08266 1.69348,-0.12118 1.801314,-0.206052 0.07298,-0.05742 0.953546,-1.055298 1.956848,-2.217506 1.003306,-1.162212 1.846914,-2.12763 1.874678,-2.145368 0.233884,-0.14942 1.64857,-0.10002 1.64857,0.0575 0,0.05962 -11.199698,13.609726 -13.153974,15.914444 -0.05139,0.06064 -0.07872,0.1253 -0.06076,0.14388 0.01798,0.0186 0.306502,-0.02398 0.641226,-0.09446 0.436194,-0.0919 0.841652,-0.12818 1.4313,-0.12818 2.797654,0 5.831902,1.145582 7.554498,2.852206 1.165966,1.155152 1.643574,2.239698 1.644156,3.733488 0.0015,2.990706 -1.796402,4.918466 -5.154584,5.527918 -0.667916,0.12122 -2.702446,0.210384 -3.277864,0.14366 z m 9.28344,-5.76879 c -0.0015,-2.164982 -0.860726,-4.161312 -2.54632,-5.915294 -0.88655,-0.922518 -1.886182,-1.669206 -3.03168,-2.264542 -0.501844,-0.26081 -1.819294,-0.752072 -2.02161,-0.753826 -0.05842,-5e-4 -0.1062,-0.03762 -0.1062,-0.08238 0,-0.06106 6.373184,-7.70146 11.905346,-14.272566 l 0.17718,-0.210458 0.423368,0.14074 c 0.514476,0.171 1.26322,0.557766 1.347672,0.696158 0.06374,0.1045 0.228,-0.09674 -8.103498,9.9274 -1.29277,1.55541 -2.350846,2.84685 -2.351286,2.869856 -4.26e-4,0.02296 0.238126,0.23441 0.53014,0.469786 2.05375,1.655364 3.65413,4.288328 4.054162,6.669922 0.17096,1.01781 0.0386,2.949708 -0.221128,3.226988 -0.03412,0.03642 -0.05592,-0.15882 -0.05614,-0.501766 z"
     id="path6" />
</svg>
