<?xml version="1.0" encoding="UTF-8" standalone="no"?>
<svg
   width="64"
   height="64"
   version="1.1"
   id="svg7"
   sodipodi:docname="application-vnd.chess-pgn.svg"
   inkscape:version="1.3.2 (091e20ef0f, 2023-11-25, custom)"
   xmlns:inkscape="http://www.inkscape.org/namespaces/inkscape"
   xmlns:sodipodi="http://sodipodi.sourceforge.net/DTD/sodipodi-0.dtd"
   xmlns:xlink="http://www.w3.org/1999/xlink"
   xmlns="http://www.w3.org/2000/svg"
   xmlns:svg="http://www.w3.org/2000/svg">
  <defs
     id="defs7">
    <inkscape:path-effect
       effect="fillet_chamfer"
       id="path-effect12"
       is_visible="true"
       lpeversion="1"
       nodesatellites_param="F,0,0,1,0,0,0,1 @ F,0,0,1,0,0,0,1 @ F,0,0,1,0,0,0,1 @ F,0,0,1,0,0,0,1 @ F,0,0,1,0,0,0,1 @ F,0,0,1,0,0,0,1 @ F,0,0,1,0,1.2870236,0,1 @ F,0,0,1,0,0,0,1 @ F,0,0,1,0,0,0,1 @ F,0,0,1,0,0,0,1 @ F,0,0,1,0,0,0,1 @ F,0,0,1,0,0,0,1 @ F,0,1,1,0,1.3441979,0,1 @ F,0,0,1,0,0,0,1 @ F,0,0,1,0,1.3441979,0,1 @ F,0,0,1,0,0,0,1 @ F,0,0,1,0,0,0,1 @ F,0,0,1,0,0,0,1 @ F,0,0,1,0,0,0,1 @ F,0,0,1,0,0,0,1 @ F,0,0,1,0,1.2870236,0,1 @ F,0,0,1,0,0,0,1 @ F,0,0,1,0,0,0,1 @ F,0,0,1,0,0,0,1 @ F,0,0,1,0,0,0,1 @ F,0,0,1,0,0,0,1 @ F,0,0,1,0,0,0,1 @ F,0,0,1,0,0,0,1 @ F,0,0,1,0,0,0,1 @ F,0,0,1,0,0,0,1"
       radius="0"
       unit="px"
       method="auto"
       mode="F"
       chamfer_steps="1"
       flexible="false"
       use_knot_distance="true"
       apply_no_radius="true"
       apply_with_radius="true"
       only_selected="false"
       hide_knots="false" />
    <linearGradient
       id="linearGradient12"
       inkscape:collect="always">
      <stop
         style="stop-color:#828282;stop-opacity:1;"
         offset="0"
         id="stop11" />
      <stop
         style="stop-color:#696969;stop-opacity:1;"
         offset="1"
         id="stop12" />
    </linearGradient>
    <linearGradient
       id="linearGradient8"
       inkscape:collect="always">
      <stop
         style="stop-color:#434343;stop-opacity:1;"
         offset="0"
         id="stop8" />
      <stop
         style="stop-color:#696969;stop-opacity:1;"
         offset="1"
         id="stop9" />
    </linearGradient>
    <filter
       inkscape:collect="always"
       style="color-interpolation-filters:sRGB"
       id="filter7"
       x="-0.11175621"
       y="-0.11175621"
       width="1.2235124"
       height="1.2235124">
      <feGaussianBlur
         inkscape:collect="always"
         stdDeviation="0.8381716"
         id="feGaussianBlur7" />
    </filter>
    <filter
       inkscape:collect="always"
       style="color-interpolation-filters:sRGB"
       id="filter8"
       x="-0.045718451"
       y="-0.03592164"
       width="1.0914369"
       height="1.0718433">
      <feGaussianBlur
         inkscape:collect="always"
         stdDeviation="0.8381716"
         id="feGaussianBlur8" />
    </filter>
    <radialGradient
       inkscape:collect="always"
       xlink:href="#linearGradient8"
       id="radialGradient9"
       cx="11.859903"
       cy="50.481674"
       fx="11.859903"
       fy="50.481674"
       r="22"
       gradientTransform="matrix(2.342594,-1.3524973,1.7213602,2.9814833,-102.82018,-78.94765)"
       gradientUnits="userSpaceOnUse" />
    <radialGradient
       inkscape:collect="always"
       xlink:href="#linearGradient12"
       id="radialGradient11"
       cx="26.395231"
       cy="36.292236"
       fx="26.395231"
       fy="36.292236"
       r="9"
       gradientUnits="userSpaceOnUse"
       gradientTransform="matrix(3.9882283,-1.0686425,1.0686423,3.9882275,-107.19649,-94.240434)" />
    <filter
       inkscape:collect="always"
       style="color-interpolation-filters:sRGB"
       id="filter12"
       x="-0.077477475"
       y="-0.055340579"
       width="1.1549549"
       height="1.1106812">
      <feGaussianBlur
         inkscape:collect="always"
         stdDeviation="0.64564011"
         id="feGaussianBlur12" />
    </filter>
  </defs>
  <sodipodi:namedview
     id="namedview7"
     pagecolor="#ffffff"
     bordercolor="#000000"
     borderopacity="0.25"
     inkscape:showpageshadow="2"
     inkscape:pageopacity="0.0"
     inkscape:pagecheckerboard="0"
     inkscape:deskcolor="#d1d1d1"
     inkscape:zoom="9.8221551"
     inkscape:cx="9.7229171"
     inkscape:cy="27.845213"
     inkscape:window-width="1920"
     inkscape:window-height="1018"
     inkscape:window-x="0"
     inkscape:window-y="0"
     inkscape:window-maximized="1"
     inkscape:current-layer="svg7" />
  <path
     style="opacity:0.42551073;filter:url(#filter8)"
     d="M 12.75,5 C 11.2265,5 10,6.2488 10,7.8 v 50.4 c 0,1.55008 1.2265,2.8 2.75,2.8 h 38.5 C 52.7724,61 54,59.75008 54,58.2 V 23 L 40,19 36,5 Z"
     id="path1" />
  <path
     style="fill:url(#radialGradient9)"
     d="M 12.75,4 C 11.2265,4 10,5.2488 10,6.8 v 50.4 c 0,1.55008 1.2265,2.8 2.75,2.8 h 38.5 C 52.7724,60 54,58.75008 54,57.2 V 22 L 40,18 36,4 Z"
     id="path2" />
  <path
     style="opacity:0.42551073;filter:url(#filter7)"
     d="M 54,23 36,5 V 20.1875 C 36,21.74675 37.2555,23 38.8125,23 Z"
     id="path3" />
  <path
     style="fill:url(#radialGradient11)"
     d="M 54,22 36,4 V 19.1875 C 36,20.74675 37.2555,22 38.8125,22 Z"
     id="path4" />
  <path
     style="opacity:0.41112566;filter:url(#filter12)"
     d="m 31.89844,28.000242 a 5.999948,5.999948 0 0 0 -0.449216,0.02734 5.7142362,5.5999196 0 0 0 -0.105459,0.0078 5.999948,5.999948 0 0 0 -0.02734,0.004 5.7142362,5.5999196 0 0 0 -0.253904,0.03516 5.999948,5.999948 0 0 0 -5.062468,5.925649 5.999948,5.999948 0 0 0 3.128879,5.269486 c -0.0098,1.503755 -0.04814,3.880156 -0.132819,4.628866 -0.400215,3.540015 -0.619155,5.600481 -2.31248,6.664004 -0.548335,0.344389 -1.208687,0.576011 -2.148419,0.749994 -1.6883,0.312581 -1.856412,0.380372 -2.121076,0.902336 -0.281935,0.556025 -0.342145,0.956176 -0.378903,2.441385 L 22.000085,56 h 9.999916 9.999914 l -0.03516,-1.343738 c -0.03674,-1.485209 -0.09696,-1.88536 -0.378903,-2.441385 -0.263448,-0.519565 -0.453524,-0.604156 -1.91014,-0.85937 -1.404891,-0.246152 -2.216626,-0.583143 -2.9531,-1.222645 -1.647162,-1.430286 -1.782029,-4.264117 -1.906234,-8.765548 -0.0068,-0.244072 0.0114,-1.250467 0.02344,-2.082014 a 5.999948,5.999948 0 0 0 3.160131,-5.28511 5.999948,5.999948 0 0 0 -5.0273,-5.917917 5.999948,5.999948 0 0 0 -0.246092,-0.03906 5.999948,5.999948 0 0 0 -0.0664,-0.0078 5.999948,5.999948 0 0 0 -0.253904,-0.0196 5.7142362,5.5999196 0 0 0 -0.113279,-0.0078 5.999948,5.999948 0 0 0 -0.0586,0 A 5.7142362,5.5999196 0 0 0 32,28.000213 a 5.999948,5.999948 0 0 0 -0.101559,0 z"
     id="path6" />
  <path
     style="fill:#ffffff;fill-opacity:1"
     d="m 31.89844,27.000243 c -0.150028,0.0035 -0.299872,0.01261 -0.449216,0.02734 -0.03518,0.0023 -0.07033,0.0049 -0.105459,0.0078 -0.0091,0.0013 -0.01823,0.0026 -0.02734,0.004 -0.08489,0.0099 -0.169548,0.02158 -0.253904,0.03516 -2.915278,0.461171 -5.06217,2.97412 -5.062468,5.925649 -3.11e-4,1.762187 0.771914,3.41149 2.073116,4.537722 0.536422,0.464292 1.052478,1.307985 1.042292,2.018714 -0.01904,1.328638 -0.05638,2.785217 -0.119348,3.341916 -0.400215,3.540015 -0.619155,5.600481 -2.31248,6.664004 -0.548335,0.344389 -1.208687,0.576011 -2.148419,0.749994 -1.6883,0.312581 -1.856412,0.380372 -2.121076,0.902336 -0.281935,0.556025 -0.342145,0.956176 -0.378903,2.441385 a 1.3094956,1.3094956 45.749206 0 0 1.309048,1.343738 l 8.655718,0 h 8.655716 a 1.3094859,1.3094859 134.25058 0 0 1.309038,-1.343738 l 0,0 c -0.03674,-1.485209 -0.09696,-1.88536 -0.378903,-2.441385 -0.263448,-0.519565 -0.453524,-0.604156 -1.91014,-0.85937 -1.404891,-0.246152 -2.216626,-0.583143 -2.9531,-1.222645 -1.647162,-1.430286 -1.782029,-4.264117 -1.906234,-8.765548 -0.0033,-0.119372 -6.71e-4,-0.421095 0.0043,-0.795528 0.0095,-0.710522 0.540035,-1.550873 1.079195,-2.011973 1.316718,-1.12608 2.09999,-2.78519 2.100058,-4.559623 -0.0013,-2.937266 -2.128885,-5.441759 -5.0273,-5.917917 -0.08175,-0.01472 -0.1638,-0.02775 -0.246092,-0.03906 -0.02212,-0.0027 -0.04425,-0.0053 -0.0664,-0.0078 -0.08449,-0.0083 -0.16914,-0.01486 -0.253904,-0.0196 -0.03773,-0.003 -0.07549,-0.0056 -0.113279,-0.0078 -0.01953,-9.5e-5 -0.03907,-9.5e-5 -0.0586,0 -0.07806,-0.0042 -0.156203,-0.0068 -0.234374,-0.0078 -0.03385,-2.87e-4 -0.06771,-2.87e-4 -0.101559,0 z"
     id="path7"
     inkscape:path-effect="#path-effect12"
     inkscape:original-d="m 31.89844,27.000243 a 5.999948,5.999948 0 0 0 -0.449216,0.02734 5.7142362,5.5999196 0 0 0 -0.105459,0.0078 5.999948,5.999948 0 0 0 -0.02734,0.004 5.7142362,5.5999196 0 0 0 -0.253904,0.03516 5.999948,5.999948 0 0 0 -5.062468,5.925649 5.999948,5.999948 0 0 0 3.128879,5.269486 c -0.0098,1.503755 -0.04814,3.880156 -0.132819,4.628866 -0.400215,3.540015 -0.619155,5.600481 -2.31248,6.664004 -0.548335,0.344389 -1.208687,0.576011 -2.148419,0.749994 -1.6883,0.312581 -1.856412,0.380372 -2.121076,0.902336 -0.281935,0.556025 -0.342145,0.956176 -0.378903,2.441385 l -0.03515,1.343738 h 9.999916 9.999914 l -0.03516,-1.343738 c -0.03674,-1.485209 -0.09696,-1.88536 -0.378903,-2.441385 -0.263448,-0.519565 -0.453524,-0.604156 -1.91014,-0.85937 -1.404891,-0.246152 -2.216626,-0.583143 -2.9531,-1.222645 -1.647162,-1.430286 -1.782029,-4.264117 -1.906234,-8.765548 -0.0068,-0.244072 0.0114,-1.250467 0.02344,-2.082014 a 5.999948,5.999948 0 0 0 3.160131,-5.28511 5.999948,5.999948 0 0 0 -5.0273,-5.917917 5.999948,5.999948 0 0 0 -0.246092,-0.03906 5.999948,5.999948 0 0 0 -0.0664,-0.0078 5.999948,5.999948 0 0 0 -0.253904,-0.0196 5.7142362,5.5999196 0 0 0 -0.113279,-0.0078 5.999948,5.999948 0 0 0 -0.0586,0 A 5.7142362,5.5999196 0 0 0 32,27.000214 a 5.999948,5.999948 0 0 0 -0.101559,0 z" />
</svg>
