<?xml version="1.0" encoding="UTF-8" standalone="no"?>
<svg
   width="64"
   height="64"
   version="1"
   id="svg5"
   sodipodi:docname="image-x-win-bitmap.svg"
   inkscape:version="1.3.2 (091e20ef0f, 2023-11-25, custom)"
   xmlns:inkscape="http://www.inkscape.org/namespaces/inkscape"
   xmlns:sodipodi="http://sodipodi.sourceforge.net/DTD/sodipodi-0.dtd"
   xmlns:xlink="http://www.w3.org/1999/xlink"
   xmlns="http://www.w3.org/2000/svg"
   xmlns:svg="http://www.w3.org/2000/svg">
  <defs
     id="defs5">
    <linearGradient
       id="linearGradient5"
       inkscape:collect="always">
      <stop
         style="stop-color:#3dc1fd;stop-opacity:1;"
         offset="0"
         id="stop5" />
      <stop
         style="stop-color:#2986e1;stop-opacity:1;"
         offset="1"
         id="stop6" />
    </linearGradient>
    <radialGradient
       inkscape:collect="always"
       xlink:href="#linearGradient5"
       id="radialGradient6"
       cx="9.7754583"
       cy="45.003433"
       fx="9.7754583"
       fy="45.003433"
       r="26"
       gradientTransform="matrix(1.3516956,1.254133,-2.4605465,2.6519595,107.29506,-90.303673)"
       gradientUnits="userSpaceOnUse" />
    <filter
       inkscape:collect="always"
       style="color-interpolation-filters:sRGB"
       id="filter1"
       x="-0.017189704"
       y="-0.020835762"
       width="1.0343794"
       height="1.0416715">
      <feGaussianBlur
         inkscape:collect="always"
         stdDeviation="0.3724436"
         id="feGaussianBlur1" />
    </filter>
    <filter
       inkscape:collect="always"
       style="color-interpolation-filters:sRGB"
       id="filter2"
       x="-0.022919605"
       y="-0.040630209"
       width="1.0458392"
       height="1.0812604">
      <feGaussianBlur
         inkscape:collect="always"
         stdDeviation="0.3724436"
         id="feGaussianBlur2" />
    </filter>
  </defs>
  <sodipodi:namedview
     id="namedview5"
     pagecolor="#ffffff"
     bordercolor="#000000"
     borderopacity="0.25"
     inkscape:showpageshadow="2"
     inkscape:pageopacity="0.0"
     inkscape:pagecheckerboard="0"
     inkscape:deskcolor="#d1d1d1"
     inkscape:zoom="8.9382717"
     inkscape:cx="21.368784"
     inkscape:cy="28.752762"
     inkscape:window-width="1920"
     inkscape:window-height="1017"
     inkscape:window-x="0"
     inkscape:window-y="0"
     inkscape:window-maximized="1"
     inkscape:current-layer="svg5" />
  <path
     style="opacity:0.417829;filter:url(#filter1)"
     d="m 58.000001,50.78285 v -37.5661 c 0,-1.4777 -1.16,-2.667 -2.6,-2.667 H 8.6000012 c -1.4404,0 -2.6,1.1893 -2.6,2.6667 v 37.5671 c 0,1.4773 1.1596,2.6667 2.6,2.6667 H 55.400001 c 1.4404,0 2.6,-1.1893 2.6,-2.6667 z"
     id="path1"
     sodipodi:nodetypes="cssssssssc" />
  <path
     fill="#36aca3"
     d="m 58,50.63305 v -37.2665 c 0,-1.4777 -1.16,-2.667 -2.6,-2.667 H 8.6000002 c -1.4404,0 -2.6,1.1893 -2.6,2.6667 v 37.2675 c 0,1.4773 1.1596,2.6667 2.6,2.6667 H 55.4 c 1.4404,0 2.6,-1.1893 2.6,-2.6667 z"
     id="path2"
     style="fill:url(#radialGradient6)"
     sodipodi:nodetypes="cssssssssc" />
  <path
     style="opacity:0.417829;filter:url(#filter2)"
     d="m 22.5,26.3 12,15 9,-8 8,8 v 7 h -39 v -10 z"
     id="path3" />
  <path
     fill="#ffffff"
     d="m 22.5,26.3 12,15 9,-8 8,8 v 7 h -39 v -10 z"
     id="path4" />
</svg>
