<?xml version="1.0" encoding="UTF-8" standalone="no"?>
<svg
   width="64"
   height="64"
   version="1.1"
   id="svg7"
   sodipodi:docname="application-vnd.ms-asf.svg"
   inkscape:version="1.3.2 (091e20ef0f, 2023-11-25, custom)"
   xmlns:inkscape="http://www.inkscape.org/namespaces/inkscape"
   xmlns:sodipodi="http://sodipodi.sourceforge.net/DTD/sodipodi-0.dtd"
   xmlns:xlink="http://www.w3.org/1999/xlink"
   xmlns="http://www.w3.org/2000/svg"
   xmlns:svg="http://www.w3.org/2000/svg">
  <defs
     id="defs7">
    <radialGradient
       inkscape:collect="always"
       xlink:href="#linearGradient8"
       id="radialGradient11"
       cx="63.46014"
       cy="14.893303"
       fx="63.46014"
       fy="14.893303"
       r="9"
       gradientUnits="userSpaceOnUse"
       gradientTransform="matrix(9.0483133,2.4244883,-2.4244872,9.0483094,-522.84431,-235.45881)" />
    <linearGradient
       id="linearGradient8"
       inkscape:collect="always">
      <stop
         style="stop-color:#00ffdb;stop-opacity:1;"
         offset="0"
         id="stop8" />
      <stop
         style="stop-color:#136dff;stop-opacity:1;"
         offset="1"
         id="stop9" />
    </linearGradient>
    <filter
       inkscape:collect="always"
       style="color-interpolation-filters:sRGB"
       id="filter7"
       x="-0.13311102"
       y="-0.13311102"
       width="1.266222"
       height="1.266222">
      <feGaussianBlur
         inkscape:collect="always"
         stdDeviation="0.99833261"
         id="feGaussianBlur7" />
    </filter>
    <radialGradient
       inkscape:collect="always"
       xlink:href="#linearGradient2"
       id="radialGradient9"
       cx="12.124838"
       cy="52.623104"
       fx="12.124838"
       fy="52.623104"
       r="22"
       gradientTransform="matrix(2.2768343,-1.3145309,1.6730393,2.8977891,-103.52193,-79.304598)"
       gradientUnits="userSpaceOnUse" />
    <linearGradient
       id="linearGradient2"
       inkscape:collect="always">
      <stop
         style="stop-color:#00c7ff;stop-opacity:1;"
         offset="0"
         id="stop1" />
      <stop
         style="stop-color:#136dff;stop-opacity:1;"
         offset="1"
         id="stop2" />
    </linearGradient>
    <filter
       inkscape:collect="always"
       style="color-interpolation-filters:sRGB"
       id="filter8"
       x="-0.054454507"
       y="-0.042785684"
       width="1.108909"
       height="1.0855714">
      <feGaussianBlur
         inkscape:collect="always"
         stdDeviation="0.99833261"
         id="feGaussianBlur8" />
    </filter>
    <filter
       inkscape:collect="always"
       style="color-interpolation-filters:sRGB"
       id="filter9"
       x="-0.091379031"
       y="-0.07995665"
       width="1.1827581"
       height="1.1599133">
      <feGaussianBlur
         inkscape:collect="always"
         stdDeviation="0.79956649"
         id="feGaussianBlur9" />
    </filter>
  </defs>
  <sodipodi:namedview
     id="namedview7"
     pagecolor="#ffffff"
     bordercolor="#000000"
     borderopacity="0.25"
     inkscape:showpageshadow="2"
     inkscape:pageopacity="0.0"
     inkscape:pagecheckerboard="0"
     inkscape:deskcolor="#d1d1d1"
     inkscape:zoom="13.890625"
     inkscape:cx="32"
     inkscape:cy="32"
     inkscape:window-width="1920"
     inkscape:window-height="1018"
     inkscape:window-x="0"
     inkscape:window-y="0"
     inkscape:window-maximized="1"
     inkscape:current-layer="svg7" />
  <path
     style="opacity:0.72546;filter:url(#filter8)"
     d="m 12.75,3.999999 c -1.5235,0 -2.75,1.2488 -2.75,2.8 v 50.4 c 0,1.55008 1.2265,2.8 2.75,2.8 h 38.5 c 1.5224,0 2.75,-1.24992 2.75,-2.8 v -35.2 l -14,-4 -4,-14 z"
     id="path1" />
  <path
     style="fill:url(#radialGradient9)"
     d="m 12.75,2.999999 c -1.5235,0 -2.75,1.2488 -2.75,2.8 v 50.4 c 0,1.55008 1.2265,2.8 2.75,2.8 h 38.5 c 1.5224,0 2.75,-1.24992 2.75,-2.8 v -35.2 l -14,-4 -4,-14 z"
     id="path2" />
  <path
     style="opacity:0.72546;filter:url(#filter7)"
     d="m 54,21.999999 -18,-18 v 15.1875 c 0,1.55925 1.2555,2.8125 2.8125,2.8125 z"
     id="path3" />
  <path
     style="fill:url(#radialGradient11)"
     d="m 54,20.999999 -18,-18 v 15.1875 c 0,1.55925 1.2555,2.8125 2.8125,2.8125 z"
     id="path4" />
  <path
     style="opacity:0.3492814;filter:url(#filter9)"
     d="M 24.098869,30.000567 A 2.0510081,2.0845584 0 0 0 22,32.084917 v 19.831178 a 2.0510081,2.0845584 0 0 0 3.076205,1.804807 l 16.899097,-9.91559 a 2.0510081,2.0845584 0 0 0 0,-3.609614 l -16.899097,-9.91559 a 2.0510081,2.0845584 0 0 0 -0.977336,-0.279541 z"
     id="path6" />
  <path
     style="fill:#ffffff"
     d="M 24.098869,29.000567 A 2.0510081,2.0845584 0 0 0 22,31.084917 v 19.831178 a 2.0510081,2.0845584 0 0 0 3.076205,1.804807 l 16.899097,-9.91559 a 2.0510081,2.0845584 0 0 0 0,-3.609614 l -16.899097,-9.91559 a 2.0510081,2.0845584 0 0 0 -0.977336,-0.279541 z"
     id="path7" />
</svg>
