<?xml version="1.0" encoding="UTF-8" standalone="no"?>
<svg
   width="64"
   height="64"
   version="1.1"
   id="svg6"
   sodipodi:docname="application-pkix-crl.svg"
   inkscape:version="1.3.2 (091e20ef0f, 2023-11-25, custom)"
   xmlns:inkscape="http://www.inkscape.org/namespaces/inkscape"
   xmlns:sodipodi="http://sodipodi.sourceforge.net/DTD/sodipodi-0.dtd"
   xmlns:xlink="http://www.w3.org/1999/xlink"
   xmlns="http://www.w3.org/2000/svg"
   xmlns:svg="http://www.w3.org/2000/svg">
  <defs
     id="defs6">
    <inkscape:path-effect
       effect="fillet_chamfer"
       id="path-effect10"
       is_visible="true"
       lpeversion="1"
       nodesatellites_param="F,0,1,1,0,1.5026856,0,1 @ F,0,1,1,0,1.5026856,0,1 @ F,0,0,1,0,1.5026856,0,1 @ F,0,1,1,0,1.5026856,0,1 | F,0,1,1,0,1.5026856,0,1 @ F,0,1,1,0,1.5026856,0,1 @ F,0,1,1,0,1.5026856,0,1 @ F,0,1,1,0,1.5026856,0,1 | F,0,1,1,0,1.5026856,0,1 @ F,0,1,1,0,1.5026856,0,1 @ F,0,1,1,0,1.5026856,0,1 @ F,0,1,1,0,1.5026856,0,1 | F,0,1,1,0,1.5026856,0,1 @ F,0,1,1,0,1.5026856,0,1 @ F,0,1,1,0,1.5026856,0,1 @ F,0,1,1,0,1.5026856,0,1"
       radius="0"
       unit="px"
       method="auto"
       mode="F"
       chamfer_steps="1"
       flexible="false"
       use_knot_distance="true"
       apply_no_radius="true"
       apply_with_radius="true"
       only_selected="false"
       hide_knots="false" />
    <linearGradient
       id="linearGradient8"
       inkscape:collect="always">
      <stop
         style="stop-color:#fafafa;stop-opacity:1;"
         offset="0"
         id="stop9" />
      <stop
         style="stop-color:#aaaaaa;stop-opacity:1;"
         offset="1"
         id="stop10" />
    </linearGradient>
    <linearGradient
       id="linearGradient7"
       inkscape:collect="always">
      <stop
         style="stop-color:#ffffff;stop-opacity:1;"
         offset="0"
         id="stop7" />
      <stop
         style="stop-color:#c9c9c9;stop-opacity:1;"
         offset="1"
         id="stop8" />
    </linearGradient>
    <filter
       inkscape:collect="always"
       style="color-interpolation-filters:sRGB"
       id="filter6"
       x="-0.077278805"
       y="-0.077278805"
       width="1.1545576"
       height="1.1545576">
      <feGaussianBlur
         inkscape:collect="always"
         stdDeviation="0.57959106"
         id="feGaussianBlur6" />
    </filter>
    <filter
       inkscape:collect="always"
       style="color-interpolation-filters:sRGB"
       id="filter7"
       x="-0.031614057"
       y="-0.024839616"
       width="1.0632281"
       height="1.0496792">
      <feGaussianBlur
         inkscape:collect="always"
         stdDeviation="0.57959106"
         id="feGaussianBlur7" />
    </filter>
    <radialGradient
       inkscape:collect="always"
       xlink:href="#linearGradient7"
       id="radialGradient8"
       cx="13.860722"
       cy="50.874687"
       fx="13.860722"
       fy="50.874687"
       r="22"
       gradientTransform="matrix(2.15787,-1.2458468,1.5856233,2.7463801,-96.717002,-66.43056)"
       gradientUnits="userSpaceOnUse" />
    <radialGradient
       inkscape:collect="always"
       xlink:href="#linearGradient8"
       id="radialGradient10"
       cx="58.856777"
       cy="-0.47705048"
       fx="58.856777"
       fy="-0.47705048"
       r="9"
       gradientUnits="userSpaceOnUse"
       gradientTransform="matrix(-3.6697035,0,0,-3.6697019,252.03474,17.928838)" />
  </defs>
  <sodipodi:namedview
     id="namedview6"
     pagecolor="#ffffff"
     bordercolor="#000000"
     borderopacity="0.25"
     inkscape:showpageshadow="2"
     inkscape:pageopacity="0.0"
     inkscape:pagecheckerboard="0"
     inkscape:deskcolor="#d1d1d1"
     inkscape:zoom="13.890625"
     inkscape:cx="23.505062"
     inkscape:cy="33.079865"
     inkscape:window-width="1920"
     inkscape:window-height="1018"
     inkscape:window-x="0"
     inkscape:window-y="0"
     inkscape:window-maximized="1"
     inkscape:current-layer="svg6" />
  <path
     style="opacity:0.5115106;filter:url(#filter7)"
     d="M 12.75,5 C 11.2265,5 10,6.2488 10,7.8 v 50.4 c 0,1.55008 1.2265,2.8 2.75,2.8 h 38.5 C 52.7724,61 54,59.75008 54,58.2 V 23 L 40,19 36,5 Z"
     id="path1" />
  <path
     style="fill:url(#radialGradient8)"
     d="M 12.75,4 C 11.2265,4 10,5.2488 10,6.8 v 50.4 c 0,1.55008 1.2265,2.8 2.75,2.8 h 38.5 C 52.7724,60 54,58.75008 54,57.2 V 22 L 40,18 36,4 Z"
     id="path2" />
  <path
     style="opacity:0.5115106;filter:url(#filter6)"
     d="M 54,23 36,5 V 20.1875 C 36,21.74675 37.2555,23 38.8125,23 Z"
     id="path3" />
  <path
     style="fill:url(#radialGradient10)"
     d="M 54,22 36,4 V 19.1875 C 36,20.74675 37.2555,22 38.8125,22 Z"
     id="path4" />
  <path
     style="opacity:0.5"
     d="M 20,32.502686 A 1.5000024,1.5000024 44.897418 0 0 21.502686,34 H 42.497314 A 1.5026856,1.5026856 135 0 0 44,32.497314 1.5000024,1.5000024 44.897418 0 0 42.497314,31 H 21.502686 A 1.5026856,1.5026856 135 0 0 20,32.502686 Z m 0,6 A 1.5000024,1.5000024 44.897418 0 0 21.502686,40 l 20.994628,0 A 1.5026856,1.5026856 135 0 0 44,38.497314 1.5000024,1.5000024 44.897418 0 0 42.497314,37 H 21.502686 A 1.5026856,1.5026856 135 0 0 20,38.502686 Z m 0,6 A 1.5000024,1.5000024 44.897418 0 0 21.502686,46 l 20.994628,0 A 1.5026856,1.5026856 135 0 0 44,44.497314 1.5000024,1.5000024 44.897418 0 0 42.497314,43 L 21.502686,43 A 1.5026856,1.5026856 135 0 0 20,44.502686 Z m 0,6 A 1.5000024,1.5000024 44.897418 0 0 21.502686,52 H 33.497314 A 1.5026856,1.5026856 135 0 0 35,50.497314 1.5000024,1.5000024 44.897418 0 0 33.497314,49 H 21.502686 A 1.5026856,1.5026856 135 0 0 20,50.502686 Z"
     id="path6"
     inkscape:path-effect="#path-effect10"
     inkscape:original-d="m 20,31 v 3 h 24 v -3 z m 0,6 v 3 h 24 v -3 z m 0,6 v 3 h 24 v -3 z m 0,6 v 3 h 15 v -3 z" />
</svg>
