<?xml version="1.0" encoding="UTF-8" standalone="no"?>
<svg
   width="64"
   height="64"
   version="1.1"
   id="svg9"
   sodipodi:docname="application-ld+json.svg"
   inkscape:version="1.3.2 (091e20ef0f, 2023-11-25, custom)"
   xmlns:inkscape="http://www.inkscape.org/namespaces/inkscape"
   xmlns:sodipodi="http://sodipodi.sourceforge.net/DTD/sodipodi-0.dtd"
   xmlns:xlink="http://www.w3.org/1999/xlink"
   xmlns="http://www.w3.org/2000/svg"
   xmlns:svg="http://www.w3.org/2000/svg">
  <defs
     id="defs9">
    <linearGradient
       id="linearGradient11"
       inkscape:collect="always">
      <stop
         style="stop-color:#39d6ff;stop-opacity:1;"
         offset="0"
         id="stop11" />
      <stop
         style="stop-color:#0080ff;stop-opacity:1;"
         offset="1"
         id="stop12" />
    </linearGradient>
    <filter
       inkscape:collect="always"
       style="color-interpolation-filters:sRGB"
       id="filter9"
       x="-0.069068329"
       y="-0.064134877"
       width="1.1381367"
       height="1.1282698">
      <feGaussianBlur
         inkscape:collect="always"
         stdDeviation="0.74824026"
         id="feGaussianBlur9" />
    </filter>
    <filter
       inkscape:collect="always"
       style="color-interpolation-filters:sRGB"
       id="filter10"
       x="-0.02377573"
       y="-0.018680931"
       width="1.0475515"
       height="1.0373619">
      <feGaussianBlur
         inkscape:collect="always"
         stdDeviation="0.43588838"
         id="feGaussianBlur10" />
    </filter>
    <filter
       inkscape:collect="always"
       style="color-interpolation-filters:sRGB"
       id="filter11"
       x="-0.058118451"
       y="-0.058118451"
       width="1.1162369"
       height="1.1162369">
      <feGaussianBlur
         inkscape:collect="always"
         stdDeviation="0.43588838"
         id="feGaussianBlur11" />
    </filter>
    <radialGradient
       inkscape:collect="always"
       xlink:href="#linearGradient11"
       id="radialGradient12"
       cx="15.183045"
       cy="48.665798"
       fx="15.183045"
       fy="48.665798"
       r="22"
       gradientTransform="matrix(2.1627863,-1.2486853,1.5892358,2.7526372,-94.996067,-61.789426)"
       gradientUnits="userSpaceOnUse" />
    <radialGradient
       inkscape:collect="always"
       xlink:href="#linearGradient11"
       id="radialGradient15"
       cx="32.133286"
       cy="26.785015"
       fx="32.133286"
       fy="26.785015"
       r="9"
       gradientUnits="userSpaceOnUse"
       gradientTransform="matrix(4.978301,-1.3339317,1.3339317,4.978301,-163.56527,-63.695244)" />
  </defs>
  <sodipodi:namedview
     id="namedview9"
     pagecolor="#ffffff"
     bordercolor="#000000"
     borderopacity="0.25"
     inkscape:showpageshadow="2"
     inkscape:pageopacity="0.0"
     inkscape:pagecheckerboard="0"
     inkscape:deskcolor="#d1d1d1"
     inkscape:zoom="13.890625"
     inkscape:cx="32.035996"
     inkscape:cy="32"
     inkscape:window-width="1920"
     inkscape:window-height="1018"
     inkscape:window-x="0"
     inkscape:window-y="0"
     inkscape:window-maximized="1"
     inkscape:current-layer="svg9" />
  <path
     style="opacity:0.53056744;filter:url(#filter10)"
     d="M 12.75,5 C 11.2265,5 10,6.2488 10,7.8 v 50.4 c 0,1.55008 1.2265,2.8 2.75,2.8 h 38.5 C 52.7724,61 54,59.75008 54,58.2 V 23 L 40,19 36,5 Z"
     id="path1" />
  <path
     style="fill:url(#radialGradient12)"
     d="M 12.75,4 C 11.2265,4 10,5.2488 10,6.8 v 50.4 c 0,1.55008 1.2265,2.8 2.75,2.8 h 38.5 C 52.7724,60 54,58.75008 54,57.2 V 22 L 40,18 36,4 Z"
     id="path2" />
  <path
     style="opacity:0.53056744;filter:url(#filter11)"
     d="M 54,23 36,5 V 20.1875 C 36,21.74675 37.2555,23 38.8125,23 Z"
     id="path3" />
  <path
     style="fill:url(#radialGradient15)"
     d="M 54,22 36,4 V 19.1875 C 36,20.74675 37.2555,22 38.8125,22 Z"
     id="path4" />
  <path
     style="fill:#ffffff;fill-opacity:1;opacity:0.62457017"
     d="m 36.077736,28.604 c 0,0 -2.211334,3.836604 -3.773844,5.366554 -0.960228,0.940228 -2.119798,1.700574 -3.346674,2.249034 -2.586528,1.156278 -8.23797,2.096268 -8.23797,2.096268 l 1.45126,1.983106 -1.612508,4.399052 c 0,0 5.072184,0.640636 7.51375,1.357908 1.233702,0.36243 2.496484,0.756478 3.56167,1.476724 1.831192,1.23819 4.636686,4.741354 4.636686,4.741354 l 1.114616,-2.232056 3.94359,-0.248952 c 0,0 -1.457186,-4.896862 -1.785086,-7.42039 -0.16568,-1.275118 -0.317386,-2.59356 -0.0877,-3.858716 0.394882,-2.174964 2.469694,-6.153012 2.469694,-6.153012 l -3.802136,-0.18672 z m -1.179684,6.696176 c 0.202116,0.0209 0.332274,0.06426 0.393234,0.0905 0.15688,0.11976 0.318844,0.231924 0.489406,0.333814 0.32448,0.19336 0.65725,0.346334 0.995798,0.458304 0.396438,0.423782 1.12655,1.626554 1.202316,4.789444 0.07746,3.187064 -0.756044,4.414428 -1.210806,4.848854 -0.468686,0.238296 -0.907758,0.556066 -1.301316,0.942048 -0.432206,0.17162 -1.664444,0.362238 -4.263268,-1.202308 -2.814346,-1.696118 -3.231878,-3.113726 -3.292916,-3.539046 0.04002,-0.516008 0.0138,-1.031156 -0.06506,-1.533304 l 0.0174,0.0311 c 0,0 -0.23004,-1.37906 2.990222,-3.623916 2.161714,-1.505946 3.43897,-1.65799 4.045428,-1.595534 z"
     id="path6" />
  <path
     style="opacity:0.45703411;filter:url(#filter9)"
     d="m 39,28 a 5,5 0 0 0 -5,5 5,5 0 0 0 5,5 5,5 0 0 0 5,-5 5,5 0 0 0 -5,-5 z M 23,38 a 5,5 0 0 0 -5,5 5,5 0 0 0 5,5 5,5 0 0 0 5,-5 5,5 0 0 0 -5,-5 z m 16,8 a 5,5 0 0 0 -5,5 5,5 0 0 0 5,5 5,5 0 0 0 5,-5 5,5 0 0 0 -5,-5 z"
     id="path7" />
  <circle
     style="fill:#ffffff;fill-opacity:1"
     cx="23"
     cy="42"
     r="5"
     id="circle7" />
  <circle
     style="fill:#ffffff;fill-opacity:1"
     cx="39"
     cy="32"
     r="5"
     id="circle8" />
  <circle
     style="fill:#ffffff;fill-opacity:1"
     cx="39"
     cy="50"
     r="5"
     id="circle9" />
</svg>
