<?xml version="1.0" encoding="UTF-8" standalone="no"?>
<svg
   width="64"
   height="64"
   version="1.1"
   id="svg6"
   sodipodi:docname="application-octet-stream.svg"
   inkscape:version="1.3.2 (091e20ef0f, 2023-11-25, custom)"
   xmlns:inkscape="http://www.inkscape.org/namespaces/inkscape"
   xmlns:sodipodi="http://sodipodi.sourceforge.net/DTD/sodipodi-0.dtd"
   xmlns:xlink="http://www.w3.org/1999/xlink"
   xmlns="http://www.w3.org/2000/svg"
   xmlns:svg="http://www.w3.org/2000/svg">
  <defs
     id="defs6">
    <inkscape:path-effect
       effect="fillet_chamfer"
       id="path-effect1"
       is_visible="true"
       lpeversion="1"
       nodesatellites_param="F,0,0,1,0,0,0,1 @ F,0,0,1,0,2.0994278,0,1 @ F,0,0,1,0,2.0994278,0,1 @ F,0,0,1,0,0,0,1 @ F,0,0,1,0,0,0,1 @ F,0,1,1,0,1.9886837,0,1 @ F,0,0,1,0,1.9886837,0,1 @ F,0,0,1,0,0,0,1 | F,0,1,1,0,1.9886837,0,1 @ F,0,1,1,0,1.9886837,0,1 @ F,0,1,1,0,1.9886837,0,1 @ F,0,1,1,0,1.9886837,0,1"
       radius="0"
       unit="px"
       method="auto"
       mode="F"
       chamfer_steps="1"
       flexible="false"
       use_knot_distance="true"
       apply_no_radius="true"
       apply_with_radius="true"
       only_selected="false"
       hide_knots="false" />
    <radialGradient
       inkscape:collect="always"
       xlink:href="#linearGradient8"
       id="radialGradient10"
       cx="58.856777"
       cy="-0.47705048"
       fx="58.856777"
       fy="-0.47705048"
       r="9"
       gradientUnits="userSpaceOnUse"
       gradientTransform="matrix(-3.6697035,0,0,-3.6697019,252.03474,16.92884)" />
    <linearGradient
       id="linearGradient8"
       inkscape:collect="always">
      <stop
         style="stop-color:#fafafa;stop-opacity:1;"
         offset="0"
         id="stop9" />
      <stop
         style="stop-color:#aaaaaa;stop-opacity:1;"
         offset="1"
         id="stop10" />
    </linearGradient>
    <filter
       inkscape:collect="always"
       style="color-interpolation-filters:sRGB"
       id="filter6"
       x="-0.077278805"
       y="-0.077278801"
       width="1.1545576"
       height="1.1545576">
      <feGaussianBlur
         inkscape:collect="always"
         stdDeviation="0.57959106"
         id="feGaussianBlur6" />
    </filter>
    <radialGradient
       inkscape:collect="always"
       xlink:href="#linearGradient7"
       id="radialGradient8"
       cx="13.860722"
       cy="50.874687"
       fx="13.860722"
       fy="50.874687"
       r="22"
       gradientTransform="matrix(2.15787,-1.2458468,1.5856233,2.7463801,-96.717002,-67.430557)"
       gradientUnits="userSpaceOnUse" />
    <linearGradient
       id="linearGradient7"
       inkscape:collect="always">
      <stop
         style="stop-color:#ffffff;stop-opacity:1;"
         offset="0"
         id="stop7" />
      <stop
         style="stop-color:#c9c9c9;stop-opacity:1;"
         offset="1"
         id="stop8" />
    </linearGradient>
    <filter
       inkscape:collect="always"
       style="color-interpolation-filters:sRGB"
       id="filter7"
       x="-0.031614057"
       y="-0.024839616"
       width="1.0632281"
       height="1.0496792">
      <feGaussianBlur
         inkscape:collect="always"
         stdDeviation="0.57959106"
         id="feGaussianBlur7" />
    </filter>
  </defs>
  <sodipodi:namedview
     id="namedview6"
     pagecolor="#ffffff"
     bordercolor="#000000"
     borderopacity="0.25"
     inkscape:showpageshadow="2"
     inkscape:pageopacity="0.0"
     inkscape:pagecheckerboard="0"
     inkscape:deskcolor="#d1d1d1"
     inkscape:zoom="13.890625"
     inkscape:cx="32"
     inkscape:cy="32"
     inkscape:window-width="1920"
     inkscape:window-height="1018"
     inkscape:window-x="0"
     inkscape:window-y="0"
     inkscape:window-maximized="1"
     inkscape:current-layer="svg6" />
  <path
     style="opacity:0.511511;filter:url(#filter7)"
     d="m 12.75,4.0000022 c -1.5235,0 -2.75,1.2488 -2.75,2.8 V 57.200002 c 0,1.55008 1.2265,2.8 2.75,2.8 h 38.5 c 1.5224,10e-7 2.75,-1.24992 2.75,-2.799999 v -35.2 l -14,-4 -4,-14.0000008 z"
     id="path1" />
  <path
     style="fill:url(#radialGradient8)"
     d="m 12.75,3.0000022 c -1.5235,0 -2.75,1.2488 -2.75,2.8 V 56.200002 c 0,1.55008 1.2265,2.8 2.75,2.8 h 38.5 c 1.5224,10e-7 2.75,-1.24992 2.75,-2.799999 v -35.2 l -14,-4 -4,-14.0000008 z"
     id="path2" />
  <path
     style="opacity:0.511511;filter:url(#filter6)"
     d="M 54,22.000003 36,4.0000022 V 19.187503 c 0,1.559249 1.2555,2.8125 2.8125,2.8125 z"
     id="path3" />
  <path
     style="fill:url(#radialGradient10)"
     d="M 54,21.000003 36,3.0000022 V 18.187503 c 0,1.559249 1.2555,2.8125 2.8125,2.8125 z"
     id="path4" />
  <path
     style="opacity:0.5"
     d="m 32,28 c -3.290935,0.0028 -6.363284,2.763021 -7.532006,5.959406 C 24.070934,35.04534 24.939946,36 26.099428,36 27.149103,36 28.126882,35.043155 28.637766,34.005842 29.202909,32.858362 30.189741,31.880209 32,32 c 1.932996,0 4,2.067004 4,4 0,3.144458 -4.842913,4.65034 -5.826833,10.021754 C 29.975558,47.100538 30.890364,48 31.988684,48 h 0.02263 c 1.09832,0 1.899385,-0.917688 2.206773,-1.966007 C 35.310615,42.308032 39.900307,39.730455 40,36 40,31.747408 37.074856,28 32,28 Z m -2,23.988684 v 0.02263 A 1.9886837,1.9886837 45 0 0 31.988684,54 h 0.02263 A 1.9886837,1.9886837 135 0 0 34,52.011316 v -0.02263 A 1.9886837,1.9886837 45 0 0 32.011316,50 h -0.02263 A 1.9886837,1.9886837 135 0 0 30,51.988684 Z"
     id="path6"
     inkscape:path-effect="#path-effect1"
     inkscape:original-d="m 32,28 c -3.978906,0.0034 -7.638282,4.03757 -8,8 h 4 c 0.332606,-1.62943 1.135198,-4.189574 4,-4 1.932996,0 4,2.067004 4,4 0,3.5 -6,4.96993 -6,12 h 4 c -0.341168,-4.866068 5.883718,-7.648794 6,-12 0,-4.252592 -2.925144,-8 -8,-8 z m -2,22 v 4 h 4 v -4 z" />
</svg>
