<?xml version="1.0" encoding="UTF-8" standalone="no"?>
<svg
   width="64"
   height="64"
   version="1.1"
   id="svg7"
   sodipodi:docname="application-msexcel.svg"
   inkscape:version="1.3.2 (091e20ef0f, 2023-11-25, custom)"
   xmlns:inkscape="http://www.inkscape.org/namespaces/inkscape"
   xmlns:sodipodi="http://sodipodi.sourceforge.net/DTD/sodipodi-0.dtd"
   xmlns:xlink="http://www.w3.org/1999/xlink"
   xmlns="http://www.w3.org/2000/svg"
   xmlns:svg="http://www.w3.org/2000/svg">
  <defs
     id="defs7">
    <linearGradient
       id="linearGradient2"
       inkscape:collect="always">
      <stop
         style="stop-color:#8be38e;stop-opacity:1;"
         offset="0"
         id="stop1" />
      <stop
         style="stop-color:#88fd8e;stop-opacity:1;"
         offset="1"
         id="stop2" />
    </linearGradient>
    <linearGradient
       id="linearGradient9"
       inkscape:collect="always">
      <stop
         style="stop-color:#28a268;stop-opacity:1;"
         offset="0"
         id="stop9" />
      <stop
         style="stop-color:#1fc327;stop-opacity:1;"
         offset="1"
         id="stop10" />
    </linearGradient>
    <filter
       inkscape:collect="always"
       style="color-interpolation-filters:sRGB"
       id="filter7"
       x="-0.075817069"
       y="-0.098116207"
       width="1.1516341"
       height="1.1962324">
      <feGaussianBlur
         inkscape:collect="always"
         stdDeviation="0.69498981"
         id="feGaussianBlur7" />
    </filter>
    <filter
       inkscape:collect="always"
       style="color-interpolation-filters:sRGB"
       id="filter8"
       x="-0.037908535"
       y="-0.029785277"
       width="1.0758171"
       height="1.0595706">
      <feGaussianBlur
         inkscape:collect="always"
         stdDeviation="0.69498981"
         id="feGaussianBlur8" />
    </filter>
    <filter
       inkscape:collect="always"
       style="color-interpolation-filters:sRGB"
       id="filter9"
       x="-0.092665307"
       y="-0.092665307"
       width="1.1853306"
       height="1.1853306">
      <feGaussianBlur
         inkscape:collect="always"
         stdDeviation="0.69498981"
         id="feGaussianBlur9" />
    </filter>
    <radialGradient
       inkscape:collect="always"
       xlink:href="#linearGradient9"
       id="radialGradient10"
       cx="11.199748"
       cy="52.255859"
       fx="11.199748"
       fy="52.255859"
       r="22"
       gradientTransform="matrix(2.3937499,-0.64140334,0.81633154,3.0465908,-58.267754,-94.238478)"
       gradientUnits="userSpaceOnUse" />
    <radialGradient
       inkscape:collect="always"
       xlink:href="#linearGradient2"
       id="radialGradient12"
       cx="14.185725"
       cy="56.828354"
       fx="14.185725"
       fy="56.828354"
       r="9"
       gradientUnits="userSpaceOnUse"
       gradientTransform="matrix(14.9291,-8.6193199,8.6193199,14.9291,-687.41615,-669.29652)" />
  </defs>
  <sodipodi:namedview
     id="namedview7"
     pagecolor="#ffffff"
     bordercolor="#000000"
     borderopacity="0.25"
     inkscape:showpageshadow="2"
     inkscape:pageopacity="0.0"
     inkscape:pagecheckerboard="0"
     inkscape:deskcolor="#d1d1d1"
     inkscape:zoom="9.8221551"
     inkscape:cx="22.75468"
     inkscape:cy="35.27739"
     inkscape:window-width="1920"
     inkscape:window-height="1018"
     inkscape:window-x="0"
     inkscape:window-y="0"
     inkscape:window-maximized="1"
     inkscape:current-layer="svg7" />
  <path
     style="opacity:0.54068867;filter:url(#filter8)"
     d="M 12.75,5 C 11.2265,5 10,6.2488 10,7.8 v 50.4 c 0,1.55008 1.2265,2.8 2.75,2.8 h 38.5 C 52.7724,61 54,59.75008 54,58.2 V 23 L 40,19 36,5 Z"
     id="path1" />
  <path
     style="fill:url(#radialGradient10);fill-opacity:1"
     d="M 12.75,4 C 11.2265,4 10,5.2488 10,6.8 v 50.4 c 0,1.55008 1.2265,2.8 2.75,2.8 h 38.5 C 52.7724,60 54,58.75008 54,57.2 V 22 L 40,18 36,4 Z"
     id="path2" />
  <path
     style="opacity:0.54068867;filter:url(#filter9)"
     d="M 54,23 36,5 V 20.1875 C 36,21.74675 37.2555,23 38.8125,23 Z"
     id="path3" />
  <path
     style="fill:url(#radialGradient12)"
     d="M 54,22 36,4 V 19.1875 C 36,20.74675 37.2555,22 38.8125,22 Z"
     id="path4" />
  <path
     style="opacity:0.54068867;filter:url(#filter7)"
     d="M 21,33 V 50 H 43 V 33 Z m 2,2 h 8 v 3 h -8 z m 10,0 h 8 v 3 h -8 z m -10,5 h 8 v 3 h -8 z m 10,0 h 8 v 3 h -8 z m -10,5 h 8 v 3 h -8 z m 10,0 h 8 v 3 h -8 z"
     id="path6" />
  <path
     style="fill:#ffffff"
     d="M 21,32 V 49 H 43 V 32 Z m 2,2 h 8 v 3 h -8 z m 10,0 h 8 v 3 h -8 z m -10,5 h 8 v 3 h -8 z m 10,0 h 8 v 3 h -8 z m -10,5 h 8 v 3 h -8 z m 10,0 h 8 v 3 h -8 z"
     id="path7" />
</svg>
