<?xml version="1.0" encoding="UTF-8" standalone="no"?>
<svg
   width="64"
   height="64"
   version="1.1"
   id="svg7"
   sodipodi:docname="application-rtf.svg"
   inkscape:version="1.3.2 (091e20ef0f, 2023-11-25, custom)"
   xmlns:inkscape="http://www.inkscape.org/namespaces/inkscape"
   xmlns:sodipodi="http://sodipodi.sourceforge.net/DTD/sodipodi-0.dtd"
   xmlns:xlink="http://www.w3.org/1999/xlink"
   xmlns="http://www.w3.org/2000/svg"
   xmlns:svg="http://www.w3.org/2000/svg">
  <defs
     id="defs7">
    <inkscape:path-effect
       effect="fillet_chamfer"
       id="path-effect1"
       is_visible="true"
       lpeversion="1"
       nodesatellites_param="F,0,1,1,0,1.4262277,0,1 @ F,0,1,1,0,1.4262277,0,1 @ F,0,1,1,0,1.4262277,0,1 @ F,0,1,1,0,1.4262277,0,1 | F,0,1,1,0,1.4262277,0,1 @ F,0,0,1,0,1.4262277,0,1 @ F,0,1,1,0,1.4262277,0,1 @ F,0,1,1,0,1.4262277,0,1 | F,0,1,1,0,1.4262277,0,1 @ F,0,1,1,0,1.4262277,0,1 @ F,0,1,1,0,1.4262277,0,1 @ F,0,1,1,0,1.4262277,0,1 | F,0,1,1,0,1.4262277,0,1 @ F,0,1,1,0,1.4262277,0,1 @ F,0,1,1,0,1.4262277,0,1 @ F,0,1,1,0,1.4262277,0,1"
       radius="0"
       unit="px"
       method="auto"
       mode="F"
       chamfer_steps="1"
       flexible="false"
       use_knot_distance="true"
       apply_no_radius="true"
       apply_with_radius="true"
       only_selected="false"
       hide_knots="false" />
    <linearGradient
       id="linearGradient2"
       inkscape:collect="always">
      <stop
         style="stop-color:#00c7ff;stop-opacity:1;"
         offset="0"
         id="stop1" />
      <stop
         style="stop-color:#136dff;stop-opacity:1;"
         offset="1"
         id="stop2" />
    </linearGradient>
    <linearGradient
       id="linearGradient8"
       inkscape:collect="always">
      <stop
         style="stop-color:#00ffdb;stop-opacity:1;"
         offset="0"
         id="stop8" />
      <stop
         style="stop-color:#136dff;stop-opacity:1;"
         offset="1"
         id="stop9" />
    </linearGradient>
    <filter
       inkscape:collect="always"
       style="color-interpolation-filters:sRGB"
       id="filter7"
       x="-0.13311102"
       y="-0.13311102"
       width="1.266222"
       height="1.266222">
      <feGaussianBlur
         inkscape:collect="always"
         stdDeviation="0.99833261"
         id="feGaussianBlur7" />
    </filter>
    <filter
       inkscape:collect="always"
       style="color-interpolation-filters:sRGB"
       id="filter8"
       x="-0.054454507"
       y="-0.042785684"
       width="1.108909"
       height="1.0855714">
      <feGaussianBlur
         inkscape:collect="always"
         stdDeviation="0.99833261"
         id="feGaussianBlur8" />
    </filter>
    <radialGradient
       inkscape:collect="always"
       xlink:href="#linearGradient2"
       id="radialGradient9"
       cx="12.124838"
       cy="52.623104"
       fx="12.124838"
       fy="52.623104"
       r="22"
       gradientTransform="matrix(2.2768343,-1.3145309,1.6730393,2.8977891,-103.52193,-78.304597)"
       gradientUnits="userSpaceOnUse" />
    <radialGradient
       inkscape:collect="always"
       xlink:href="#linearGradient8"
       id="radialGradient11"
       cx="63.46014"
       cy="14.893303"
       fx="63.46014"
       fy="14.893303"
       r="9"
       gradientUnits="userSpaceOnUse"
       gradientTransform="matrix(9.0483133,2.4244883,-2.4244872,9.0483094,-522.84431,-234.45881)" />
    <filter
       inkscape:collect="always"
       style="color-interpolation-filters:sRGB"
       id="filter11"
       x="-0.060096276"
       y="-0.068681458"
       width="1.1201926"
       height="1.1373629">
      <feGaussianBlur
         inkscape:collect="always"
         stdDeviation="0.60096274"
         id="feGaussianBlur11" />
    </filter>
  </defs>
  <sodipodi:namedview
     id="namedview7"
     pagecolor="#ffffff"
     bordercolor="#000000"
     borderopacity="0.25"
     inkscape:showpageshadow="2"
     inkscape:pageopacity="0.0"
     inkscape:pagecheckerboard="0"
     inkscape:deskcolor="#d1d1d1"
     inkscape:zoom="13.890625"
     inkscape:cx="18.105737"
     inkscape:cy="32.935883"
     inkscape:window-width="1920"
     inkscape:window-height="1018"
     inkscape:window-x="0"
     inkscape:window-y="0"
     inkscape:window-maximized="1"
     inkscape:current-layer="svg7" />
  <g
     id="g1">
    <path
       style="opacity:0.72545957;filter:url(#filter8)"
       d="M 12.75,5 C 11.2265,5 10,6.2488 10,7.8 v 50.4 c 0,1.55008 1.2265,2.8 2.75,2.8 h 38.5 C 52.7724,61 54,59.75008 54,58.2 V 23 L 40,19 36,5 Z"
       id="path1" />
    <path
       style="fill:url(#radialGradient9)"
       d="M 12.75,4 C 11.2265,4 10,5.2488 10,6.8 v 50.4 c 0,1.55008 1.2265,2.8 2.75,2.8 h 38.5 C 52.7724,60 54,58.75008 54,57.2 V 22 L 40,18 36,4 Z"
       id="path2" />
    <path
       style="opacity:0.72545957;filter:url(#filter7)"
       d="M 54,23 36,5 V 20.1875 C 36,21.74675 37.2555,23 38.8125,23 Z"
       id="path3" />
    <path
       style="fill:url(#radialGradient11)"
       d="M 54,22 36,4 V 19.1875 C 36,20.74675 37.2555,22 38.8125,22 Z"
       id="path4" />
  </g>
  <path
     style="opacity:0.38286178;filter:url(#filter11)"
     d="m 20,32 v 3 h 24 v -3 z m 0,6 v 3 h 24 v -3 z m 0,6 v 3 h 24 v -3 z m 0,6 v 3 h 15 v -3 z"
     id="path6" />
  <path
     style="fill:#ffffff"
     d="m 20,32.426228 v 0.147544 A 1.4262277,1.4262277 45 0 0 21.426228,34 H 42.573772 A 1.4262277,1.4262277 135 0 0 44,32.573772 V 32.426228 A 1.4262277,1.4262277 45 0 0 42.573772,31 H 21.426228 A 1.4262277,1.4262277 135 0 0 20,32.426228 Z m 0,6 v 0.147544 A 1.4262277,1.4262277 45 0 0 21.426228,40 H 42.573772 A 1.4262277,1.4262277 135 0 0 44,38.573772 V 38.426228 A 1.4262277,1.4262277 45 0 0 42.573772,37 L 21.426228,37 A 1.4262277,1.4262277 135 0 0 20,38.426228 Z m 0,6 v 0.147544 A 1.4262277,1.4262277 45 0 0 21.426228,46 H 42.573772 A 1.4262277,1.4262277 135 0 0 44,44.573772 V 44.426228 A 1.4262277,1.4262277 45 0 0 42.573772,43 L 21.426228,43 A 1.4262277,1.4262277 135 0 0 20,44.426228 Z m 0,6 v 0.147544 A 1.4262277,1.4262277 45 0 0 21.426228,52 H 33.573772 A 1.4262277,1.4262277 135 0 0 35,50.573772 V 50.426228 A 1.4262277,1.4262277 45 0 0 33.573772,49 H 21.426228 A 1.4262277,1.4262277 135 0 0 20,50.426228 Z"
     id="path7"
     inkscape:path-effect="#path-effect1"
     inkscape:original-d="m 20,31 v 3 h 24 v -3 z m 0,6 v 3 h 24 v -3 z m 0,6 v 3 h 24 v -3 z m 0,6 v 3 h 15 v -3 z" />
</svg>
