<?xml version="1.0" encoding="UTF-8" standalone="no"?>
<svg
   width="64"
   height="64"
   version="1.1"
   id="svg7"
   sodipodi:docname="1password.svg"
   inkscape:version="1.3.2 (091e20ef0f, 2023-11-25, custom)"
   xmlns:inkscape="http://www.inkscape.org/namespaces/inkscape"
   xmlns:sodipodi="http://sodipodi.sourceforge.net/DTD/sodipodi-0.dtd"
   xmlns:xlink="http://www.w3.org/1999/xlink"
   xmlns="http://www.w3.org/2000/svg"
   xmlns:svg="http://www.w3.org/2000/svg">
  <defs
     id="defs7">
    <linearGradient
       id="linearGradient14"
       inkscape:collect="always">
      <stop
         style="stop-color:#2e2e2e;stop-opacity:1;"
         offset="0"
         id="stop15" />
      <stop
         style="stop-color:#868686;stop-opacity:1;"
         offset="1"
         id="stop16" />
    </linearGradient>
    <linearGradient
       id="linearGradient12"
       inkscape:collect="always">
      <stop
         style="stop-color:#3e5c6d;stop-opacity:1;"
         offset="0"
         id="stop13" />
      <stop
         style="stop-color:#292d30;stop-opacity:1;"
         offset="1"
         id="stop14" />
    </linearGradient>
    <linearGradient
       id="linearGradient10"
       inkscape:collect="always">
      <stop
         style="stop-color:#ededed;stop-opacity:1;"
         offset="0"
         id="stop11" />
      <stop
         style="stop-color:#b2b2b2;stop-opacity:1;"
         offset="1"
         id="stop12" />
    </linearGradient>
    <linearGradient
       id="linearGradient9"
       inkscape:collect="always">
      <stop
         style="stop-color:#00dbe2;stop-opacity:1;"
         offset="0"
         id="stop9" />
      <stop
         style="stop-color:#0076e2;stop-opacity:1;"
         offset="1"
         id="stop10" />
    </linearGradient>
    <radialGradient
       inkscape:collect="always"
       xlink:href="#linearGradient9"
       id="radialGradient10"
       cx="24.79254"
       cy="33.970783"
       fx="24.79254"
       fy="33.970783"
       r="22"
       gradientUnits="userSpaceOnUse"
       gradientTransform="matrix(1.1184113,-0.29967743,0.29959453,1.118102,-13.380855,5.8041568)" />
    <radialGradient
       inkscape:collect="always"
       xlink:href="#linearGradient10"
       id="radialGradient12"
       cx="13.023033"
       cy="49.444138"
       fx="13.023033"
       fy="49.444138"
       r="28"
       gradientUnits="userSpaceOnUse"
       gradientTransform="matrix(1.7551157,-1.0133165,1.0133165,1.7551157,-58.976247,-25.03279)" />
    <radialGradient
       inkscape:collect="always"
       xlink:href="#linearGradient12"
       id="radialGradient14"
       cx="25.125341"
       cy="35.857056"
       fx="25.125341"
       fy="35.857056"
       r="4"
       gradientTransform="matrix(4.0680839,-4.0680839,12.204252,12.204252,-505.86726,-284.94712)"
       gradientUnits="userSpaceOnUse" />
    <radialGradient
       inkscape:collect="always"
       xlink:href="#linearGradient14"
       id="radialGradient16"
       cx="32"
       cy="32"
       fx="32"
       fy="32"
       r="8"
       gradientUnits="userSpaceOnUse"
       gradientTransform="matrix(3.896999,-1.0441977,1.0441977,3.896999,-126.12297,-59.295898)" />
    <filter
       inkscape:collect="always"
       style="color-interpolation-filters:sRGB"
       id="filter25"
       x="-0.04705728"
       y="-0.04705728"
       width="1.0941146"
       height="1.0941146">
      <feGaussianBlur
         inkscape:collect="always"
         stdDeviation="1.1078068"
         id="feGaussianBlur25" />
    </filter>
  </defs>
  <sodipodi:namedview
     id="namedview7"
     pagecolor="#ffffff"
     bordercolor="#000000"
     borderopacity="0.25"
     inkscape:showpageshadow="2"
     inkscape:pageopacity="0.0"
     inkscape:pagecheckerboard="0"
     inkscape:deskcolor="#d1d1d1"
     inkscape:zoom="9.8221551"
     inkscape:cx="28.608793"
     inkscape:cy="34.259284"
     inkscape:window-width="1920"
     inkscape:window-height="1020"
     inkscape:window-x="0"
     inkscape:window-y="0"
     inkscape:window-maximized="1"
     inkscape:current-layer="svg7"
     showguides="false" />
  <g
     id="g1">
    <path
       id="circle2"
       style="fill:url(#radialGradient12);stroke-width:0.949155"
       d="M 58.571679,31.993744 A 26.576346,26.576346 0 0 1 31.995333,58.57009 26.576346,26.576346 0 0 1 5.4189863,31.993744 26.576346,26.576346 0 0 1 31.995333,5.4173974 26.576346,26.576346 0 0 1 58.571679,31.993744 Z" />
    <path
       id="circle3"
       style="opacity:0.66043;fill:url(#radialGradient16);stroke-width:0.949155"
       d="m 39.588575,31.993744 a 7.5932418,7.5932418 0 0 1 -7.593242,7.593242 7.5932418,7.5932418 0 0 1 -7.593242,-7.593242 7.5932418,7.5932418 0 0 1 7.593242,-7.593242 7.5932418,7.5932418 0 0 1 7.593242,7.593242 z" />
    <path
       style="fill:url(#radialGradient14);stroke-width:0.949155"
       d="m 29.524819,20.542255 c -0.701108,0 -1.26554,0.564432 -1.26554,1.26554 v 5.128899 c 0,0 1.371826,1.205657 1.371826,2.019428 0,0.813769 -1.371826,2.019426 -1.371826,2.019426 v 11.080893 c 0,0.701108 0.564432,1.26554 1.26554,1.26554 h 5.062162 c 0.701109,0 1.26554,-0.564432 1.26554,-1.26554 v -5.109125 l -0.01241,-0.0173 c 0,0 -1.430915,-1.257205 -1.431148,-2.10594 -2.32e-4,-0.849414 1.431148,-2.108406 1.431148,-2.108406 l 0.01241,-0.0173 V 21.807795 c 0,-0.701108 -0.564431,-1.26554 -1.26554,-1.26554 z"
       id="path4" />
    <path
       style="fill:url(#radialGradient10);stroke-width:0.949155"
       d="m 31.995333,11.112329 c -11.501571,0 -20.881415,9.379844 -20.881415,20.881415 0,11.501571 9.379844,20.881415 20.881415,20.881415 11.50157,0 20.881415,-9.379844 20.881415,-20.881415 0,-11.501571 -9.379845,-20.881415 -20.881415,-20.881415 z m 0,4.745776 c 8.943319,0 16.135639,7.19232 16.135639,16.135639 0,8.943319 -7.19232,16.135639 -16.135639,16.135639 -8.94332,0 -16.135639,-7.19232 -16.135639,-16.135639 0,-8.943319 7.192319,-16.135639 16.135639,-16.135639 z"
       id="path6" />
    <path
       id="path25"
       style="mix-blend-mode:normal;filter:url(#filter25)"
       d="m 31.908203,3.6269531 c -15.599005,0 -28.2499999,12.6509949 -28.2499999,28.2499999 0,15.599007 12.6509949,28.25 28.2499999,28.25 15.599007,0 28.25,-12.650993 28.25,-28.25 0,-15.599005 -12.650993,-28.2499999 -28.25,-28.2499999 z m 0,0.5 c 15.328786,0 27.75,12.4212149 27.75,27.7499999 0,15.328786 -12.421214,27.75 -27.75,27.75 -15.328785,0 -27.7499999,-12.421214 -27.7499999,-27.75 0,-15.328785 12.4212149,-27.7499999 27.7499999,-27.7499999 z m 0,5.5 c -12.253565,0 -22.2499999,9.9964349 -22.2499999,22.2499999 0,12.253565 9.9964349,22.25 22.2499999,22.25 12.253565,0 22.25,-9.996435 22.25,-22.25 0,-12.253565 -9.996435,-22.2499999 -22.25,-22.2499999 z m 0,0.4999999 c 11.981723,0 21.75,9.768278 21.75,21.75 0,11.981723 -9.768277,21.75 -21.75,21.75 -11.981722,0 -21.75,-9.768277 -21.75,-21.75 0,-11.981722 9.768278,-21.75 21.75,-21.75 z m 0,4.5 c -9.556395,0 -17.25,7.693605 -17.25,17.25 0,9.556398 7.693605,17.25 17.25,17.25 9.556398,0 17.25,-7.693602 17.25,-17.25 0,-9.556395 -7.693602,-17.25 -17.25,-17.25 z m 0,0.5 c 9.288327,0 16.75,7.461674 16.75,16.75 0,9.288327 -7.461673,16.75 -16.75,16.75 -9.288326,0 -16.75,-7.461673 -16.75,-16.75 0,-9.288326 7.461674,-16.75 16.75,-16.75 z M 29.306641,19.5625 c -0.872546,0 -1.583985,0.709048 -1.583985,1.582031 v 3.628907 c -2.430581,1.435378 -4.064453,4.078305 -4.064453,7.103515 0,3.025211 1.633872,5.668138 4.064453,7.103516 v 3.498047 c 0,0.872983 0.710998,1.583984 1.583985,1.583984 h 5.332031 c 0.872984,0 1.583984,-0.711001 1.583984,-1.583984 v -3.574219 c 2.359455,-1.451807 3.935547,-4.055683 3.935547,-7.027344 0,-2.971659 -1.576092,-5.575537 -3.935547,-7.027344 v -3.705078 c 0,-0.872983 -0.711441,-1.582031 -1.583984,-1.582031 z m 0,0.5 h 5.332031 c 0.604778,0 1.083984,0.477693 1.083984,1.082031 v 11.376953 c -0.06099,0.05448 -0.353806,0.310387 -0.708984,0.728516 -0.390406,0.459602 -0.81266,1.021459 -0.8125,1.609375 1.61e-4,0.587558 0.424082,1.148706 0.814453,1.607422 0.354135,0.416135 0.644575,0.668907 0.707031,0.724609 v 5.28711 c 0,0.604336 -0.479646,1.083984 -1.083984,1.083984 h -5.332031 c -0.60434,0 -1.083985,-0.479648 -1.083985,-1.083984 V 30.90625 c 0.07016,-0.06287 0.331319,-0.29021 0.664063,-0.681641 0.374756,-0.440853 0.78125,-0.979668 0.78125,-1.548828 0,-0.569158 -0.40842,-1.106495 -0.783203,-1.546875 -0.331802,-0.389872 -0.59064,-0.615702 -0.66211,-0.679687 v -5.304688 c 0,-0.604338 0.479204,-1.082031 1.083985,-1.082031 z m -1.583985,5.300781 c -0.04482,0.02886 -0.08472,0.064 -0.128906,0.09375 0.04256,-0.02867 0.08575,-0.05615 0.128906,-0.08398 v 1.289062 l 0.08594,0.07422 c 0,0 0.349397,0.308043 0.697265,0.716797 0.347871,0.408754 0.66211,0.934459 0.66211,1.222656 0,0.2882 -0.316166,0.815353 -0.664063,1.22461 -0.347895,0.409254 -0.697265,0.716797 -0.697265,0.716797 l -0.08398,0.07422 v 7.652344 c -1.591106,-1.033017 -2.794355,-2.612851 -3.300781,-4.484375 -0.07204,-0.266236 -0.127044,-0.539072 -0.169922,-0.816406 -0.05875,-0.379992 -0.09375,-0.768441 -0.09375,-1.166016 0,-0.372825 0.0271,-0.739159 0.07813,-1.097656 7.65e-4,-0.0054 0.0031,-0.01026 0.0039,-0.01563 0.327489,-2.266984 1.637417,-4.21228 3.482422,-5.400391 z m 8.5,0.13086 c 2.055785,1.393349 3.435547,3.710394 3.435547,6.382812 0,2.672419 -1.379762,4.989461 -3.435547,6.382813 v -1.25 l -0.08008,-0.103516 -0.01953,-0.01563 c 0,0 -0.36309,-0.32094 -0.726563,-0.748047 -0.36347,-0.427106 -0.695228,-0.976567 -0.695312,-1.283203 -8.4e-5,-0.306994 0.331755,-0.857162 0.695312,-1.285156 0.36356,-0.427995 0.728516,-0.75 0.728516,-0.75 l 0.01758,-0.01563 0.08008,-0.103516 z m -9.18164,0.367187 c -0.07581,0.06133 -0.147286,0.127331 -0.220704,0.191406 0.07326,-0.06403 0.145051,-0.130123 0.220704,-0.191406 z m -0.708985,0.650391 c -0.07119,0.07376 -0.136823,0.152 -0.205078,0.228515 0.06807,-0.0765 0.134072,-0.154775 0.205078,-0.228515 z m -0.625,0.734375 c -0.06775,0.09025 -0.127563,0.186061 -0.191406,0.279297 0.06374,-0.09339 0.123746,-0.188897 0.191406,-0.279297 z m -0.523437,0.792968 c -0.07678,0.133645 -0.142067,0.273601 -0.210938,0.41211 0.06858,-0.138469 0.134479,-0.278485 0.210938,-0.41211 z m -0.427735,0.865235 c -0.07246,0.173347 -0.129542,0.353707 -0.189453,0.533203 0.0596,-0.179254 0.117376,-0.360049 0.189453,-0.533203 z"
       transform="matrix(0.94915523,0,0,0.94915523,1.6223653,1.6207764)" />
  </g>
</svg>
