<?xml version="1.0" encoding="UTF-8" standalone="no"?>
<svg
   width="64"
   height="64"
   version="1.1"
   id="svg5"
   sodipodi:docname="accessories-ebook-reader.svg"
   inkscape:version="1.3.2 (091e20ef0f, 2023-11-25, custom)"
   xmlns:inkscape="http://www.inkscape.org/namespaces/inkscape"
   xmlns:sodipodi="http://sodipodi.sourceforge.net/DTD/sodipodi-0.dtd"
   xmlns:xlink="http://www.w3.org/1999/xlink"
   xmlns="http://www.w3.org/2000/svg"
   xmlns:svg="http://www.w3.org/2000/svg">
  <defs
     id="defs5">
    <inkscape:path-effect
       effect="fillet_chamfer"
       id="path-effect9"
       is_visible="true"
       lpeversion="1"
       nodesatellites_param="F,0,0,1,0,8.4491927,0,1 @ F,0,0,1,0,0,0,1 @ F,0,0,1,0,0,0,1 @ F,0,1,1,0,8.4491927,0,1"
       radius="0"
       unit="px"
       method="auto"
       mode="F"
       chamfer_steps="1"
       flexible="false"
       use_knot_distance="true"
       apply_no_radius="true"
       apply_with_radius="true"
       only_selected="false"
       hide_knots="false" />
    <inkscape:path-effect
       effect="fillet_chamfer"
       id="path-effect8"
       is_visible="true"
       lpeversion="1"
       nodesatellites_param="F,0,0,1,0,8.3189409,0,1 @ F,0,1,1,0,8.3189409,0,1 @ F,0,1,1,0,8.3189409,0,1 @ F,0,1,1,0,8.3189409,0,1"
       radius="0"
       unit="px"
       method="auto"
       mode="F"
       chamfer_steps="1"
       flexible="false"
       use_knot_distance="true"
       apply_no_radius="true"
       apply_with_radius="true"
       only_selected="false"
       hide_knots="false" />
    <linearGradient
       id="linearGradient6"
       inkscape:collect="always">
      <stop
         style="stop-color:#ff2d68;stop-opacity:1;"
         offset="0"
         id="stop7" />
      <stop
         style="stop-color:#e04444;stop-opacity:1;"
         offset="1"
         id="stop8" />
    </linearGradient>
    <linearGradient
       id="linearGradient5"
       inkscape:collect="always">
      <stop
         style="stop-color:#dbd557;stop-opacity:1;"
         offset="0"
         id="stop5" />
      <stop
         style="stop-color:#db7936;stop-opacity:1;"
         offset="1"
         id="stop6" />
    </linearGradient>
    <radialGradient
       inkscape:collect="always"
       xlink:href="#linearGradient5"
       id="radialGradient6"
       cx="49.226494"
       cy="51.68441"
       fx="49.226494"
       fy="51.68441"
       r="22"
       gradientTransform="matrix(0,-2.1193287,1.7310572,0,-42.113298,158.65878)"
       gradientUnits="userSpaceOnUse" />
    <radialGradient
       inkscape:collect="always"
       xlink:href="#linearGradient6"
       id="radialGradient8"
       cx="40.354919"
       cy="24.756115"
       fx="40.354919"
       fy="24.756115"
       r="4"
       gradientTransform="matrix(8.2552068,-4.7661459,5.2027102,9.0113582,-417.81096,18.272806)"
       gradientUnits="userSpaceOnUse" />
    <inkscape:path-effect
       effect="fillet_chamfer"
       id="path-effect9-1"
       is_visible="true"
       lpeversion="1"
       nodesatellites_param="F,0,0,1,0,8.4491927,0,1 @ F,0,0,1,0,0,0,1 @ F,0,0,1,0,0,0,1 @ F,0,1,1,0,8.4491927,0,1"
       radius="0"
       unit="px"
       method="auto"
       mode="F"
       chamfer_steps="1"
       flexible="false"
       use_knot_distance="true"
       apply_no_radius="true"
       apply_with_radius="true"
       only_selected="false"
       hide_knots="false" />
    <inkscape:path-effect
       effect="fillet_chamfer"
       id="path-effect8-0"
       is_visible="true"
       lpeversion="1"
       nodesatellites_param="F,0,0,1,0,8.3189409,0,1 @ F,0,1,1,0,8.3189409,0,1 @ F,0,1,1,0,8.3189409,0,1 @ F,0,1,1,0,8.3189409,0,1"
       radius="0"
       unit="px"
       method="auto"
       mode="F"
       chamfer_steps="1"
       flexible="false"
       use_knot_distance="true"
       apply_no_radius="true"
       apply_with_radius="true"
       only_selected="false"
       hide_knots="false" />
    <filter
       inkscape:collect="always"
       style="color-interpolation-filters:sRGB"
       id="filter15"
       x="-0.10980544"
       y="-0.086566739"
       width="1.2196109"
       height="1.1731335">
      <feGaussianBlur
         inkscape:collect="always"
         stdDeviation="1.8196727"
         id="feGaussianBlur15" />
    </filter>
  </defs>
  <sodipodi:namedview
     id="namedview5"
     pagecolor="#505050"
     bordercolor="#eeeeee"
     borderopacity="1"
     inkscape:showpageshadow="0"
     inkscape:pageopacity="0"
     inkscape:pagecheckerboard="0"
     inkscape:deskcolor="#505050"
     inkscape:zoom="8"
     inkscape:cx="33.0625"
     inkscape:cy="38.6875"
     inkscape:window-width="1920"
     inkscape:window-height="1020"
     inkscape:window-x="0"
     inkscape:window-y="0"
     inkscape:window-maximized="1"
     inkscape:current-layer="svg5" />
  <path
     id="rect2"
     style="fill:url(#radialGradient6);stroke-width:0.891381"
     d="m 20.708557,7.0413289 h 22.582886 a 8.3189409,8.3189409 45 0 1 8.318941,8.3189411 v 33.279461 a 8.3189409,8.3189409 135 0 1 -8.318941,8.318941 H 20.708557 A 8.3189409,8.3189409 45 0 1 12.389616,48.639731 V 15.36027 a 8.3189409,8.3189409 135 0 1 8.318941,-8.3189411 z"
     inkscape:path-effect="#path-effect8"
     inkscape:original-d="M 12.389616,7.0413289 H 51.610384 V 56.958672 H 12.389616 Z"
     transform="matrix(1.0760643,0,0,1.0760643,-2.4338855,-2.4355412)" />
  <path
     style="fill:url(#radialGradient8);stroke-width:0.959183"
     d="M 37.670787,5.1728305 V 32.029965 l 3.836733,-3.836734 3.836734,3.836734 V 5.1728305 Z"
     id="path3" />
  <path
     id="rect8"
     style="opacity:0.199018;fill:#ff0000;fill-opacity:1;stroke-width:0.3;stroke-linecap:round;stroke-linejoin:round;stroke-miterlimit:4.6;paint-order:stroke fill markers"
     d="m 20.827847,7.0215149 h 1.273605 V 56.956268 H 20.827847 A 8.4491927,8.4491927 45 0 1 12.378654,48.507075 V 15.470708 a 8.4491927,8.4491927 135 0 1 8.449193,-8.4491931 z"
     inkscape:path-effect="#path-effect9"
     inkscape:original-d="m 12.378654,7.0215149 h 9.722798 V 56.956268 h -9.722798 z"
     transform="matrix(1.0760643,0,0,1.0760643,-2.4338855,-2.4355412)" />
  <path
     id="path14"
     style="color:#000000;mix-blend-mode:normal;fill:#000000;-inkscape-stroke:none;filter:url(#filter15);opacity:0.7866595"
     d="m 20.814453,6.796875 c -4.47099,-0.1003019 -8.536851,3.747937 -8.684828,8.219306 -0.02455,11.329856 -0.02331,22.661196 -6.57e-4,33.991081 0.142856,4.576217 4.392694,8.453507 8.95159,8.227382 7.690993,-0.02848 15.385617,0.05765 23.074284,-0.04433 4.553,-0.34982 8.130135,-4.783266 7.692813,-9.294527 -0.0061,-10.968852 0.01214,-21.937983 -0.0091,-32.906661 C 51.730679,11.046635 48.537366,7.4969744 44.638671,6.9414062 44.030459,6.7386273 43.021169,6.8585458 42.251967,6.8183592 35.106845,6.8059766 27.952805,6.8443535 20.814453,6.796875 Z m 1.109838,0.4918823 C 26.95148,7.2497965 31.97867,7.2108358 37.005859,7.171875 c 0,8.495443 0,16.990885 0,25.486328 1.272136,-1.271484 2.544271,-2.542969 3.816407,-3.814453 1.272135,1.271484 2.544271,2.542969 3.816406,3.814453 0,-8.389323 0,-16.778646 0,-25.1679686 4.057535,0.595203 7.112504,4.6028016 6.708984,8.6669786 -0.007,10.974704 0.01401,21.949764 -0.01052,32.924247 -0.103673,4.415062 -4.327989,8.060994 -8.699919,7.652915 -6.766443,0 -13.532885,0 -20.299328,0 0,-16.5625 0,-33.125 0,-49.6875 -0.176885,-0.046857 -0.216948,0.3083945 -0.4136,0.2418823 z m -1.109838,0.00812 c 1.151386,-0.3393831 1.105531,0.5184758 1.023438,1.4125718 0,16.0076579 0,32.0153169 0,48.0229749 -3.6421,0.360772 -7.42655,-1.77605 -8.675381,-5.278839 -0.907184,-2.543082 -0.424541,-5.284024 -0.547279,-7.928672 0.0068,-9.47681 -0.01353,-18.953962 0.01016,-28.430557 0.138584,-4.25901 3.930166,-7.8683332 8.189059,-7.7974787 z m 23.007813,0.00977 c 0.696374,0.1399015 0.136219,1.4539062 0.316406,2.0761339 0,7.3561318 0,14.7122648 0,22.0683968 -1.105469,-1.104818 -2.210937,-2.209635 -3.316406,-3.314453 -1.105469,1.104818 -2.210938,2.209635 -3.316407,3.314453 0,-8.035158 0,-16.070317 0,-24.1054749 2.092141,-0.025958 4.286523,0.051943 6.316407,-0.039056 z"
     transform="matrix(1.0760643,0,0,1.0760643,-2.4338855,-2.4355412)" />
</svg>
