<?xml version="1.0" encoding="UTF-8" standalone="no"?>
<svg
   width="64"
   height="64"
   version="1.1"
   id="svg5"
   sodipodi:docname="brave.svg"
   inkscape:version="1.3.2 (091e20ef0f, 2023-11-25, custom)"
   xmlns:inkscape="http://www.inkscape.org/namespaces/inkscape"
   xmlns:sodipodi="http://sodipodi.sourceforge.net/DTD/sodipodi-0.dtd"
   xmlns:xlink="http://www.w3.org/1999/xlink"
   xmlns="http://www.w3.org/2000/svg"
   xmlns:svg="http://www.w3.org/2000/svg">
  <defs
     id="defs5">
    <inkscape:path-effect
       effect="fillet_chamfer"
       id="path-effect6"
       is_visible="true"
       lpeversion="1"
       nodesatellites_param="F,0,0,1,0,2.668425,0,1 @ F,0,0,1,0,0,0,1 @ F,0,0,1,0,0,0,1 @ F,0,0,1,0,0,0,1 @ F,0,0,1,0,0,0,1 @ F,0,0,1,0,0,0,1 @ F,0,0,1,0,0,0,1 @ F,0,1,1,0,1.1080049,0,1 @ F,0,0,1,0,1.1080049,0,1 @ F,0,0,1,0,0,0,1 @ F,0,0,1,0,0,0,1 @ F,0,0,1,0,0,0,1 @ F,0,0,1,0,0,0,1 @ F,0,0,1,0,0,0,1 @ F,0,0,1,0,0,0,1 @ F,0,0,1,0,0,0,1 @ F,0,1,1,0,1.1080049,0,1 @ F,0,1,1,0,1.1080049,0,1 @ F,0,0,1,0,0,0,1 @ F,0,0,1,0,0,0,1 @ F,0,0,1,0,0,0,1 @ F,0,0,1,0,0,0,1 @ F,0,0,1,0,0,0,1 @ F,0,0,1,0,0,0,1 @ F,0,0,1,0,2.668425,0,1 @ F,0,0,1,0,0,0,1"
       radius="0"
       unit="px"
       method="auto"
       mode="F"
       chamfer_steps="1"
       flexible="false"
       use_knot_distance="true"
       apply_no_radius="true"
       apply_with_radius="true"
       only_selected="false"
       hide_knots="false" />
    <linearGradient
       id="linearGradient5"
       inkscape:collect="always">
      <stop
         style="stop-color:#eeaa32;stop-opacity:1;"
         offset="0"
         id="stop5" />
      <stop
         style="stop-color:#ee5132;stop-opacity:1;"
         offset="1"
         id="stop6" />
    </linearGradient>
    <radialGradient
       inkscape:collect="always"
       xlink:href="#linearGradient5"
       id="radialGradient6"
       cx="12.203731"
       cy="51.563877"
       fx="12.203731"
       fy="51.563877"
       r="24"
       gradientTransform="matrix(2.007369,0,0,2.3419305,-16.452123,-60.899924)"
       gradientUnits="userSpaceOnUse" />
    <inkscape:path-effect
       effect="fillet_chamfer"
       id="path-effect6-5"
       is_visible="true"
       lpeversion="1"
       nodesatellites_param="F,0,0,1,0,2.668425,0,1 @ F,0,0,1,0,0,0,1 @ F,0,0,1,0,0,0,1 @ F,0,0,1,0,0,0,1 @ F,0,0,1,0,0,0,1 @ F,0,0,1,0,0,0,1 @ F,0,0,1,0,0,0,1 @ F,0,1,1,0,1.1080049,0,1 @ F,0,0,1,0,1.1080049,0,1 @ F,0,0,1,0,0,0,1 @ F,0,0,1,0,0,0,1 @ F,0,0,1,0,0,0,1 @ F,0,0,1,0,0,0,1 @ F,0,0,1,0,0,0,1 @ F,0,0,1,0,0,0,1 @ F,0,0,1,0,0,0,1 @ F,0,1,1,0,1.1080049,0,1 @ F,0,1,1,0,1.1080049,0,1 @ F,0,0,1,0,0,0,1 @ F,0,0,1,0,0,0,1 @ F,0,0,1,0,0,0,1 @ F,0,0,1,0,0,0,1 @ F,0,0,1,0,0,0,1 @ F,0,0,1,0,0,0,1 @ F,0,0,1,0,2.668425,0,1 @ F,0,0,1,0,0,0,1"
       radius="0"
       unit="px"
       method="auto"
       mode="F"
       chamfer_steps="1"
       flexible="false"
       use_knot_distance="true"
       apply_no_radius="true"
       apply_with_radius="true"
       only_selected="false"
       hide_knots="false" />
    <filter
       inkscape:collect="always"
       style="color-interpolation-filters:sRGB"
       id="filter7"
       x="-0.078363253"
       y="-0.067168502"
       width="1.1567265"
       height="1.1343375">
      <feGaussianBlur
         inkscape:collect="always"
         stdDeviation="1.5255984"
         id="feGaussianBlur7" />
    </filter>
    <filter
       inkscape:collect="always"
       style="color-interpolation-filters:sRGB"
       id="filter8"
       x="-0.10035174"
       y="-0.11166118"
       width="1.2007718"
       height="1.2231776">
      <feGaussianBlur
         inkscape:collect="always"
         stdDeviation="1.6102426"
         id="feGaussianBlur8" />
    </filter>
  </defs>
  <sodipodi:namedview
     id="namedview5"
     pagecolor="#505050"
     bordercolor="#eeeeee"
     borderopacity="1"
     inkscape:showpageshadow="0"
     inkscape:pageopacity="0"
     inkscape:pagecheckerboard="0"
     inkscape:deskcolor="#505050"
     inkscape:zoom="13.328125"
     inkscape:cx="30.424385"
     inkscape:cy="29.899179"
     inkscape:window-width="1920"
     inkscape:window-height="1010"
     inkscape:window-x="0"
     inkscape:window-y="0"
     inkscape:window-maximized="1"
     inkscape:current-layer="svg5" />
  <path
     style="fill:url(#radialGradient6)"
     d="M 21.273445,5.9030279 18.432,8.7938 C 18.37,8.8144 17.909,8.43 17.407,8.2824 16.061,7.8871 14.352,7.9545 13.191,8.482 12.432,8.8271 12.137,9.0699 10.331,10.845 8.3843,12.757 8,13.216 8,13.623 c 0,0.105 0.7035,1.132 1.0498,1.936 l 0.1908189,0.444019 c 0.2416141,0.562215 0.267513,1.484025 0.057823,2.058911 -0.3034943,0.83206 -0.606707,1.664223 -0.9073458,2.497313 C 8.183379,21.134842 8.112978,22.088535 8.2570285,22.682886 9.4070215,27.427748 14.29144,46.186122 14.58,46.872 c 0.598,1.42 1.538,2.693 2.755,3.735 1.1,0.942 12.257,8.557 13.362,9.12 0.327,0.166 0.853,0.262 1.303,0.273 0.45,-0.011 0.976,-0.107 1.303,-0.273 1.105,-0.563 12.262,-8.178 13.362,-9.12 1.217,-1.042 2.157,-2.315 2.755,-3.735 0.288587,-0.685942 5.173672,-19.447803 6.322875,-24.190461 0.143838,-0.593606 0.07364,-1.546839 -0.133926,-2.122496 -0.30039,-0.833106 -0.603783,-1.665139 -0.90732,-2.49711 -0.209735,-0.574865 -0.183841,-1.496732 0.05768,-2.05899 L 54.95,15.559 C 55.297,14.755 56,13.728 56,13.623 56,13.216 55.616,12.757 53.669,10.845 51.863,9.0699 51.568,8.8271 50.809,8.482 49.648,7.9545 47.939,7.8871 46.593,8.2824 46.091,8.43 45.63,8.8144 45.568,8.7938 L 42.726555,5.9030279 A 6.3645563,6.3645563 22.746517 0 0 38.187575,4 H 32 25.812425 a 6.3645563,6.3645563 157.25348 0 0 -4.53898,1.9030279 z"
     id="path2"
     inkscape:path-effect="#path-effect6"
     inkscape:original-d="M 23.144,4 18.432,8.7938 C 18.37,8.8144 17.909,8.43 17.407,8.2824 16.061,7.8871 14.352,7.9545 13.191,8.482 12.432,8.8271 12.137,9.0699 10.331,10.845 8.3843,12.757 8,13.216 8,13.623 c 0,0.105 0.7035,1.132 1.0498,1.936 l 0.6283,1.462 c -0.556312,1.526115 -1.1148926,3.05142 -1.6616,4.581 -0.0688,0.213 6.2345,24.488 6.5635,25.27 0.598,1.42 1.538,2.693 2.755,3.735 1.1,0.942 12.257,8.557 13.362,9.12 0.327,0.166 0.853,0.262 1.303,0.273 0.45,-0.011 0.976,-0.107 1.303,-0.273 1.105,-0.563 12.262,-8.178 13.362,-9.12 1.217,-1.042 2.157,-2.315 2.755,-3.735 0.329,-0.782 6.632,-25.057 6.563,-25.27 -0.545432,-1.529951 -1.104977,-3.054866 -1.661,-4.581 L 54.95,15.559 C 55.297,14.755 56,13.728 56,13.623 56,13.216 55.616,12.757 53.669,10.845 51.863,9.0699 51.568,8.8271 50.809,8.482 49.648,7.9545 47.939,7.8871 46.593,8.2824 46.091,8.43 45.63,8.8144 45.568,8.7938 L 40.856,4 H 32 Z"
     sodipodi:nodetypes="cccccscccccccccccccsccccccc" />
  <path
     style="fill:#ffffff;fill-opacity:1;opacity:1"
     d="M 34.257,46.494 C 34.257,46.494 36.711,44.877 38.896,43.314 40.125,42.434 40.319,42.21 40.118,41.899 39.957,41.651 35.991,39.701 34.096,38.938 32.102,38.136 31.892,38.135 29.958,38.922 28.223,39.626 24.321,41.555 23.993,41.871 23.655,42.197 23.825,42.496 24.677,43.072 26.433,44.259 29.799,46.543 29.799,46.543 32.087,48.493 31.91,48.494 34.257,46.495 Z M 25.057,39.519 C 27.437,38.401 27.793,38.17 29.613,36.559 31.142,35.205 31.425,34.802 31.208,34.289 31.134,34.116 29.985,33.056 28.654,31.934 25.508,29.283 25.639,29.657 26.836,26.78 27.547,25.071 27.733,24.499 27.73,24.025 27.726,23.31 27.461,22.773 26.927,22.402 26.71,22.251 24.809,21.485 22.703,20.699 20.596,19.913 18.884,19.217 18.899,19.154 18.932,19.008 21.256,18.755 22.943,18.714 L 24.218,18.682 26.564,19.5 C 28.61,20.215 28.931,20.361 29.085,20.651 29.182,20.834 29.26,21.08 29.258,21.197 29.257,21.314 28.877,23.012 28.415,24.97 27.606,28.398 27.583,28.537 27.794,28.746 28.127,29.079 31.399,29.85 32.42,29.772 33.587,29.683 35.97,28.972 36.211,28.734 36.405,28.54 36.368,28.322 35.576,24.97 35.113,23.012 34.733,21.314 34.732,21.197 34.73,21.08 34.809,20.833 34.906,20.649 35.06,20.359 35.362,20.217 37.184,19.58 40.123,18.552 40.063,18.561 42.733,18.798 43.978,18.908 45.046,19.045 45.107,19.102 45.173,19.164 45.099,19.252 44.925,19.317 44.764,19.378 43.046,20.023 41.108,20.749 39.17,21.476 37.381,22.202 37.132,22.363 36.547,22.74 36.264,23.28 36.26,24.021 36.257,24.49 36.441,25.057 37.133,26.711 37.615,27.864 38.01,28.916 38.01,29.048 38.01,29.583 37.611,30.015 35.399,31.874 34.128,32.943 33,33.974 32.892,34.166 32.784,34.358 32.723,34.652 32.755,34.818 32.811,35.103 34.333,36.573 35.883,37.84 36.534,38.372 40.477,40.839 41.109,40.939 41.638,41.023 42.203,40.234 43.129,39.468 44.036,38.716 44.577,37.964 44.944,36.943 45.289,35.984 45.202,35.339 44.52,33.786 44,32.601 43.862,31.95 44.036,31.506 44.077,31.404 45.485,30.072 47.165,28.546 50.826,25.222 51.7,24.627 51.901,24.033 52.124,23.374 51.967,21.506 51.466,20.632 50.27,18.542 45.3,12 44.878,12 42.704,12.348 40.885,13.117 38.594,13.47 38.414,13.47 37.648,13.283 36.893,13.053 33.666,12.075 32.62,12 31.995,12 31.37,12 30.324,12.075 27.097,13.053 26.342,13.282 25.568,13.47 25.378,13.47 23.121,13.144 21.448,12.266 19.111,12 18.747,12.241 15.515,16.673 14.177,18.61 12.604,20.886 12.159,22.179 12.031,23.046 11.852,24.259 12.307,24.463 17.008,28.723 18.589,30.155 19.915,31.41 19.955,31.51 20.131,31.959 19.992,32.636 19.479,33.822 18.775,35.451 18.712,35.903 19.052,36.887 19.421,37.956 20.048,38.821 20.994,39.567 21.874,40.261 22.214,40.957 22.734,40.968 22.919,40.972 23.965,40.032 25.057,39.519 Z"
     id="path4" />
  <path
     style="fill:none;stroke:#000000;stroke-opacity:1;stroke-width:0.19999992;stroke-dasharray:none;filter:url(#filter7)"
     d="M 21.273445,5.9030279 18.432,8.7938 C 18.37,8.8144 17.909,8.43 17.407,8.2824 16.061,7.8871 14.352,7.9545 13.191,8.482 12.432,8.8271 12.137,9.0699 10.331,10.845 8.3843,12.757 8,13.216 8,13.623 c 0,0.105 0.7035,1.132 1.0498,1.936 l 0.1908189,0.444019 c 0.2416141,0.562215 0.267513,1.484025 0.057823,2.058911 -0.3034943,0.83206 -0.606707,1.664223 -0.9073458,2.497313 C 8.183379,21.134842 8.112978,22.088535 8.2570285,22.682886 9.4070215,27.427748 14.29144,46.186122 14.58,46.872 c 0.598,1.42 1.538,2.693 2.755,3.735 1.1,0.942 12.257,8.557 13.362,9.12 0.327,0.166 0.853,0.262 1.303,0.273 0.45,-0.011 0.976,-0.107 1.303,-0.273 1.105,-0.563 12.262,-8.178 13.362,-9.12 1.217,-1.042 2.157,-2.315 2.755,-3.735 0.288587,-0.685942 5.173672,-19.447803 6.322875,-24.190461 0.143838,-0.593606 0.07364,-1.546839 -0.133926,-2.122496 -0.30039,-0.833106 -0.603783,-1.665139 -0.90732,-2.49711 -0.209735,-0.574865 -0.183841,-1.496732 0.05768,-2.05899 L 54.95,15.559 C 55.297,14.755 56,13.728 56,13.623 56,13.216 55.616,12.757 53.669,10.845 51.863,9.0699 51.568,8.8271 50.809,8.482 49.648,7.9545 47.939,7.8871 46.593,8.2824 46.091,8.43 45.63,8.8144 45.568,8.7938 L 42.726555,5.9030279 A 6.3645563,6.3645563 22.746517 0 0 38.187575,4 H 32 25.812425 a 6.3645563,6.3645563 157.25348 0 0 -4.53898,1.9030279 z"
     id="path2-3"
     inkscape:path-effect="#path-effect6-5"
     inkscape:original-d="M 23.144,4 18.432,8.7938 C 18.37,8.8144 17.909,8.43 17.407,8.2824 16.061,7.8871 14.352,7.9545 13.191,8.482 12.432,8.8271 12.137,9.0699 10.331,10.845 8.3843,12.757 8,13.216 8,13.623 c 0,0.105 0.7035,1.132 1.0498,1.936 l 0.6283,1.462 c -0.556312,1.526115 -1.1148926,3.05142 -1.6616,4.581 -0.0688,0.213 6.2345,24.488 6.5635,25.27 0.598,1.42 1.538,2.693 2.755,3.735 1.1,0.942 12.257,8.557 13.362,9.12 0.327,0.166 0.853,0.262 1.303,0.273 0.45,-0.011 0.976,-0.107 1.303,-0.273 1.105,-0.563 12.262,-8.178 13.362,-9.12 1.217,-1.042 2.157,-2.315 2.755,-3.735 0.329,-0.782 6.632,-25.057 6.563,-25.27 -0.545432,-1.529951 -1.104977,-3.054866 -1.661,-4.581 L 54.95,15.559 C 55.297,14.755 56,13.728 56,13.623 56,13.216 55.616,12.757 53.669,10.845 51.863,9.0699 51.568,8.8271 50.809,8.482 49.648,7.9545 47.939,7.8871 46.593,8.2824 46.091,8.43 45.63,8.8144 45.568,8.7938 L 40.856,4 H 32 Z"
     sodipodi:nodetypes="cccccscccccccccccccsccccccc"
     transform="translate(-0.02535628,-0.01555402)" />
  <path
     style="fill:none;fill-opacity:0.774897;stroke:#ff0c00;stroke-opacity:1;stroke-width:0.3;stroke-dasharray:none;filter:url(#filter8)"
     d="m 34.231644,46.478446 c 0,0 2.454,-1.617 4.639,-3.18 1.229,-0.88 1.423,-1.104 1.222,-1.415 -0.161,-0.248 -4.127,-2.198 -6.022,-2.961 -1.994,-0.802 -2.204,-0.803 -4.138,-0.016 -1.735,0.704 -5.637,2.633 -5.965,2.949 -0.338,0.326 -0.168,0.625 0.684,1.201 1.756,1.187 5.122,3.471 5.122,3.471 2.288,1.95 2.111,1.951 4.458,-0.048 z m -9.2,-6.975 c 2.38,-1.118 2.736,-1.349 4.556,-2.96 1.529,-1.354 1.812,-1.757 1.595,-2.27 -0.074,-0.173 -1.223,-1.233 -2.554,-2.355 -3.146,-2.651 -3.015,-2.277 -1.818,-5.154 0.711,-1.709 0.897,-2.281 0.894,-2.755 -0.004,-0.715 -0.269,-1.252 -0.803,-1.623 -0.217,-0.151 -2.118,-0.917 -4.224,-1.703 -2.107,-0.786 -3.819,-1.482 -3.804,-1.545 0.033,-0.146 2.357,-0.399 4.044,-0.44 l 1.275,-0.032 2.346,0.818 c 2.046,0.715 2.367,0.861 2.521,1.151 0.097,0.183 0.175,0.429 0.173,0.546 -0.001,0.117 -0.381,1.815 -0.843,3.773 -0.809,3.428 -0.832,3.567 -0.621,3.776 0.333,0.333 3.605,1.104 4.626,1.026 1.167,-0.089 3.55,-0.8 3.791,-1.038 0.194,-0.194 0.157,-0.412 -0.635,-3.764 -0.463,-1.958 -0.843,-3.656 -0.844,-3.773 -0.002,-0.117 0.077,-0.364 0.174,-0.548 0.154,-0.29 0.456,-0.432 2.278,-1.069 2.939,-1.028 2.879,-1.019 5.549,-0.782 1.245,0.11 2.313,0.247 2.374,0.304 0.066,0.062 -0.008,0.15 -0.182,0.215 -0.161,0.061 -1.879,0.706 -3.817,1.432 -1.938,0.727 -3.727,1.453 -3.976,1.614 -0.585,0.377 -0.868,0.917 -0.872,1.658 -0.003,0.469 0.181,1.036 0.873,2.69 0.482,1.153 0.877,2.205 0.877,2.337 0,0.535 -0.399,0.967 -2.611,2.826 -1.271,1.069 -2.399,2.1 -2.507,2.292 -0.108,0.192 -0.169,0.486 -0.137,0.652 0.056,0.285 1.578,1.755 3.128,3.022 0.651,0.532 4.594,2.999 5.226,3.099 0.529,0.084 1.094,-0.705 2.02,-1.471 0.907,-0.752 1.448,-1.504 1.815,-2.525 0.345,-0.959 0.258,-1.604 -0.424,-3.157 -0.52,-1.185 -0.658,-1.836 -0.484,-2.28 0.041,-0.102 1.449,-1.434 3.129,-2.96 3.661,-3.324 4.535,-3.919 4.736,-4.513 0.223,-0.659 0.066,-2.527 -0.435,-3.401 -1.196,-2.09 -6.166,-8.632 -6.588,-8.632 -2.174,0.348 -3.993,1.117 -6.284,1.47 -0.18,0 -0.946,-0.187 -1.701,-0.417 -3.227,-0.978 -4.273,-1.053 -4.898,-1.053 -0.625,0 -1.671,0.075 -4.898,1.053 -0.755,0.229 -1.529,0.417 -1.719,0.417 -2.257,-0.326 -3.93,-1.204 -6.267,-1.47 -0.364,0.241 -3.596,4.673 -4.934,6.61 -1.573,2.276 -2.018,3.569 -2.146,4.436 -0.179,1.213 0.276,1.417 4.977,5.677 1.581,1.432 2.907,2.687 2.947,2.787 0.176,0.449 0.037,1.126 -0.476,2.312 -0.704,1.629 -0.767,2.081 -0.427,3.065 0.369,1.069 0.996,1.934 1.942,2.68 0.88,0.694 1.22,1.39 1.74,1.401 0.185,0.004 1.231,-0.936 2.323,-1.449 z"
     id="path4-5" />
</svg>
