<?xml version="1.0" encoding="UTF-8" standalone="no"?>
<svg
   width="64"
   height="64"
   version="1"
   id="svg7"
   sodipodi:docname="chromium-browser.svg"
   inkscape:version="1.3.2 (091e20ef0f, 2023-11-25, custom)"
   xmlns:inkscape="http://www.inkscape.org/namespaces/inkscape"
   xmlns:sodipodi="http://sodipodi.sourceforge.net/DTD/sodipodi-0.dtd"
   xmlns:xlink="http://www.w3.org/1999/xlink"
   xmlns="http://www.w3.org/2000/svg"
   xmlns:svg="http://www.w3.org/2000/svg">
  <defs
     id="defs7">
    <linearGradient
       id="linearGradient24"
       inkscape:collect="always">
      <stop
         style="stop-color:#1c4cef;stop-opacity:0.9999854;"
         offset="0"
         id="stop24" />
      <stop
         style="stop-color:#43b8be;stop-opacity:0.9999854;"
         offset="1"
         id="stop25" />
    </linearGradient>
    <clipPath
       clipPathUnits="userSpaceOnUse"
       id="clipPath1">
      <path
         d="m 32.000001,5.9627538 c -14.424863,0 -26.0372472,11.6123842 -26.0372472,26.0372472 0,14.42486 11.6123842,26.037244 26.0372472,26.037244 14.42486,0 26.037244,-11.612384 26.037244,-26.037244 0,-14.424863 -11.612384,-26.0372472 -26.037244,-26.0372472 z"
         style="fill:url(#radialGradient1);stroke-width:2.36706"
         id="path1" />
    </clipPath>
    <radialGradient
       inkscape:collect="always"
       xlink:href="#linearGradient9"
       id="radialGradient1"
       gradientUnits="userSpaceOnUse"
       gradientTransform="matrix(5.956662,0,0,5.956662,-139.31925,-182.04672)"
       cx="24.407768"
       cy="40.411434"
       fx="24.407768"
       fy="40.411434"
       r="11.125" />
    <linearGradient
       id="linearGradient9"
       inkscape:collect="always">
      <stop
         style="stop-color:#2bb4ff;stop-opacity:1;"
         offset="0"
         id="stop9" />
      <stop
         style="stop-color:#0087ff;stop-opacity:1;"
         offset="1"
         id="stop10" />
    </linearGradient>
    <clipPath
       clipPathUnits="userSpaceOnUse"
       id="clipPath2">
      <path
         d="m 32.000001,5.9627538 c -14.424863,0 -26.0372472,11.6123842 -26.0372472,26.0372472 0,14.42486 11.6123842,26.037244 26.0372472,26.037244 14.42486,0 26.037244,-11.612384 26.037244,-26.037244 0,-14.424863 -11.612384,-26.0372472 -26.037244,-26.0372472 z"
         style="fill:url(#radialGradient2);stroke-width:2.36706"
         id="path2" />
    </clipPath>
    <radialGradient
       inkscape:collect="always"
       xlink:href="#linearGradient9"
       id="radialGradient2"
       gradientUnits="userSpaceOnUse"
       gradientTransform="matrix(5.956662,0,0,5.956662,-139.31925,-182.04672)"
       cx="24.407768"
       cy="40.411434"
       fx="24.407768"
       fy="40.411434"
       r="11.125" />
    <clipPath
       clipPathUnits="userSpaceOnUse"
       id="clipPath3">
      <path
         d="m 32.000001,5.9627538 c -14.424863,0 -26.0372472,11.6123842 -26.0372472,26.0372472 0,14.42486 11.6123842,26.037244 26.0372472,26.037244 14.42486,0 26.037244,-11.612384 26.037244,-26.037244 0,-14.424863 -11.612384,-26.0372472 -26.037244,-26.0372472 z"
         style="fill:url(#radialGradient3);stroke-width:2.36706"
         id="path3" />
    </clipPath>
    <radialGradient
       inkscape:collect="always"
       xlink:href="#linearGradient9"
       id="radialGradient3"
       gradientUnits="userSpaceOnUse"
       gradientTransform="matrix(5.956662,0,0,5.956662,-139.31925,-182.04672)"
       cx="24.407768"
       cy="40.411434"
       fx="24.407768"
       fy="40.411434"
       r="11.125" />
    <filter
       inkscape:collect="always"
       style="color-interpolation-filters:sRGB"
       id="filter24"
       x="-0.10114443"
       y="-0.10164613"
       width="1.2022904"
       height="1.2033176">
      <feGaussianBlur
         inkscape:collect="always"
         stdDeviation="2.1966029"
         id="feGaussianBlur24" />
    </filter>
    <radialGradient
       inkscape:collect="always"
       xlink:href="#linearGradient24"
       id="radialGradient25"
       cx="26.9249"
       cy="37.07753"
       fx="26.9249"
       fy="37.07753"
       r="9.3756175"
       gradientUnits="userSpaceOnUse"
       gradientTransform="matrix(3.9582298,0,0,3.9582295,-86.652121,-102.65174)" />
  </defs>
  <sodipodi:namedview
     id="namedview7"
     pagecolor="#505050"
     bordercolor="#eeeeee"
     borderopacity="1"
     inkscape:showpageshadow="0"
     inkscape:pageopacity="0"
     inkscape:pagecheckerboard="0"
     inkscape:deskcolor="#505050"
     inkscape:zoom="9.4244076"
     inkscape:cx="13.210379"
     inkscape:cy="31.779186"
     inkscape:window-width="1920"
     inkscape:window-height="1010"
     inkscape:window-x="0"
     inkscape:window-y="0"
     inkscape:window-maximized="1"
     inkscape:current-layer="svg7" />
  <path
     d="m 9.2421875,18.867187 c -5.9687544,9.939369 -4.1569542,23.711115 4.1958265,31.76766 4.959025,4.998778 12.017306,7.902423 19.05612,7.699098 -0.570717,-0.329677 0.92229,-1.845039 1.190431,-2.656093 3.161405,-5.457692 6.298719,-10.947709 9.475584,-16.38497 -3.752464,6.076635 -12.629433,7.920461 -18.50042,3.851448 C 21.895548,41.474169 20.273558,38.617615 18.998541,35.766181 15.746423,30.133183 12.494305,24.500185 9.2421875,18.867187 Z"
     style="fill:#59a8fd;stroke-width:0.941818"
     id="path24" />
  <path
     d="m 54.832031,18.789062 c -6.84863,0.05469 -13.861597,0.0078 -20.773437,0.02344 7.233297,0.917002 12.57827,8.530203 11.041022,15.64603 -0.742839,3.783325 -3.295448,6.793839 -5.028446,10.156679 -2.639608,4.572275 -5.279217,9.144549 -7.918826,13.716823 11.578327,0.214939 22.559732,-8.193573 25.438953,-19.399387 1.872027,-6.71015 0.881656,-14.13869 -2.640125,-20.143585 z"
     style="fill:#81c0ff;stroke-width:0.941818"
     id="path23" />
  <path
     d="M 32.035156,5.6269531 C 22.789158,5.542274 13.778709,10.80079 9.2207031,18.830078 c 3.4095049,5.905599 6.8190109,11.811198 10.2285159,17.716797 -2.684547,-6.844242 1.468685,-15.307697 8.56692,-17.294958 3.316314,-1.081766 6.781853,-0.225576 10.188714,-0.439417 5.546299,0 11.092598,0 16.638897,0 C 50.270403,10.73493 41.292966,5.6241807 32.035156,5.6269531 Z"
     style="fill:#3f7bd6;stroke-width:0.941818"
     id="path22" />
  <path
     d="M 31.983096,18.652965 C 24.59569,18.42976 18.063629,25.31244 18.664093,32.677514 18.821247,40.065176 26.028581,46.226795 33.35035,45.256943 40.719121,44.722425 46.498437,37.214297 45.16626,29.953092 44.313323,23.591409 38.402218,18.525428 31.983096,18.652965 Z"
     style="fill:#ffffff;fill-opacity:1;stroke-width:1.14054;stroke-dasharray:none"
     id="path6" />
  <path
     d="m 31.990826,22.614266 c -5.733733,-0.207186 -10.532289,5.698141 -9.185802,11.269772 0.954724,5.634836 7.661457,9.134417 12.842034,6.746953 5.32101,-2.039421 7.450178,-9.276916 4.122439,-13.890208 -1.699874,-2.558682 -4.706169,-4.154204 -7.778671,-4.126517 z"
     style="fill:url(#radialGradient25);stroke-width:0.852343"
     id="path5" />
  <path
     d="M 32.082071,5.5620796 C 20.964159,5.3978283 10.314075,13.065038 6.9434861,23.625036 3.246277,34.131042 7.1885837,46.681303 16.24173,53.183628 25.44978,60.280674 39.267162,60.108783 48.35888,52.901397 57.326015,46.222621 61.076187,33.535323 57.101791,23.075728 53.551278,12.931444 43.323236,5.6673 32.568408,5.5727173 c -1.534192,0.5698342 3.193323,0.404919 3.869077,0.7530777 7.447034,1.2186024 14.28315,5.82282 18.108379,12.342286 -1.902208,0.05243 -4.288031,0.0065 -6.372025,0.02198 -5.610006,-0.04739 -11.231914,0.121196 -16.830162,-0.14005 -7.53806,0.149608 -13.840826,7.54803 -12.737855,15.016435 0.708183,2.73993 -0.431665,0.213808 -1.090397,-0.823988 C 14.839541,28.129096 12.163657,23.515735 9.4877733,18.902373 14.037126,10.990891 22.956066,5.8592327 32.085681,5.9357547 32.071993,5.8244995 32.099053,5.6700433 32.082071,5.5620796 Z M 32.041591,18.906036 C 39.179122,18.742764 45.57969,25.323196 45.091436,32.492164 44.978679,38.653376 40.03289,44.272584 33.870635,44.960368 26.930207,46.113747 19.737761,40.770135 19.006893,33.7294 17.849248,26.638343 23.575272,19.459656 30.734301,18.969354 l 0.649366,-0.04728 0.657948,-0.01592 z m 3.770316,0.157505 c 6.329862,0 12.659724,0 18.989586,0 5.590498,9.318119 4.321195,22.059526 -2.995238,30.097618 -4.794413,5.499504 -11.980496,8.806965 -19.275264,8.875673 3.919688,-6.793618 7.907823,-13.570347 11.789748,-20.369645 3.279726,-6.592135 -0.09919,-15.375742 -6.963399,-18.056995 -0.503429,-0.21332 -1.020028,-0.395987 -1.545433,-0.546651 z M 9.2853646,19.305292 c 3.3734384,5.8975 6.8963464,11.72372 10.1758424,17.66602 2.458115,6.586532 10.497239,10.21192 17.074747,7.731241 1.556102,-0.07512 4.826562,-3.135862 4.723596,-2.627777 -3.090442,5.327401 -6.180883,10.654801 -9.271324,15.982202 C 20.205583,58.211106 9.0891276,49.392164 6.6134354,37.863144 5.1579575,31.630667 6.1072697,24.866149 9.2853646,19.305292 Z"
     style="mix-blend-mode:normal;stroke:#000000;stroke-width:0.2;stroke-linejoin:round;stroke-dasharray:none;stroke-opacity:1;filter:url(#filter24)"
     id="path13" />
</svg>
