<?xml version="1.0" encoding="UTF-8" standalone="no"?>
<!-- Generator: Adobe Illustrator 25.2.1, SVG Export Plug-In . SVG Version: 6.00 Build 0)  -->

<svg
   version="1.1"
   id="Layer_1"
   x="0px"
   y="0px"
   viewBox="0 0 64 64"
   style="enable-background:new 0 0 64 64;"
   xml:space="preserve"
   sodipodi:docname="disk-manager.svg"
   inkscape:version="1.3.2 (091e20ef0f, 2023-11-25, custom)"
   xmlns:inkscape="http://www.inkscape.org/namespaces/inkscape"
   xmlns:sodipodi="http://sodipodi.sourceforge.net/DTD/sodipodi-0.dtd"
   xmlns:xlink="http://www.w3.org/1999/xlink"
   xmlns="http://www.w3.org/2000/svg"
   xmlns:svg="http://www.w3.org/2000/svg"><defs
   id="defs8"><filter
     inkscape:collect="always"
     style="color-interpolation-filters:sRGB"
     id="filter8"
     x="-0.043643519"
     y="-0.081197245"
     width="1.087287"
     height="1.1623945"><feGaussianBlur
       inkscape:collect="always"
       stdDeviation="0.58191361"
       id="feGaussianBlur8" /></filter><filter
     inkscape:collect="always"
     style="color-interpolation-filters:sRGB"
     id="filter4"
     x="-0.090093347"
     y="-0.090093347"
     width="1.1801867"
     height="1.1801867"><feGaussianBlur
       inkscape:collect="always"
       stdDeviation="1.051089"
       id="feGaussianBlur4" /></filter><radialGradient
     inkscape:collect="always"
     xlink:href="#linearGradient4"
     id="radialGradient5"
     cx="-54.994705"
     cy="-7.5219774"
     fx="-54.994705"
     fy="-7.5219774"
     r="28"
     gradientTransform="matrix(1.3536269,1.1037459,-1.6610116,2.037054,7.9375669,63.611992)"
     gradientUnits="userSpaceOnUse" /><linearGradient
     id="linearGradient4"
     inkscape:collect="always"><stop
       style="stop-color:#8e8e8e;stop-opacity:1;"
       offset="0"
       id="stop4-7" /><stop
       style="stop-color:#5f5f5f;stop-opacity:1;"
       offset="1"
       id="stop5-9" /></linearGradient><filter
     inkscape:collect="always"
     style="color-interpolation-filters:sRGB"
     id="filter3"
     x="-0.016186089"
     y="-0.020600477"
     width="1.0323722"
     height="1.041201"><feGaussianBlur
       inkscape:collect="always"
       stdDeviation="0.37767542"
       id="feGaussianBlur3" /></filter></defs><sodipodi:namedview
   id="namedview8"
   pagecolor="#ffffff"
   bordercolor="#000000"
   borderopacity="0.25"
   inkscape:showpageshadow="2"
   inkscape:pageopacity="0.0"
   inkscape:pagecheckerboard="0"
   inkscape:deskcolor="#d1d1d1"
   inkscape:zoom="13.875"
   inkscape:cx="32"
   inkscape:cy="32"
   inkscape:window-width="1920"
   inkscape:window-height="1017"
   inkscape:window-x="0"
   inkscape:window-y="0"
   inkscape:window-maximized="1"
   inkscape:current-layer="Layer_1" />
<style
   type="text/css"
   id="style1">
	.st0{opacity:0.2;enable-background:new    ;}
	.st1{fill:url(#SVGID_1_);}
	.st2{fill:url(#SVGID_2_);stroke:url(#SVGID_3_);stroke-miterlimit:10;}
	.st3{fill:url(#SVGID_4_);}
	.st4{fill:#FFFFFF;}
</style>

<radialGradient
   id="SVGID_1_"
   cx="22.9318"
   cy="16.1993"
   r="35.575"
   gradientUnits="userSpaceOnUse">
	<stop
   offset="0"
   style="stop-color:#6B6B6B"
   id="stop1" />
	<stop
   offset="1"
   style="stop-color:#292929"
   id="stop2" />
</radialGradient>

<radialGradient
   id="SVGID_2_"
   cx="22.0813"
   cy="13.643"
   r="29.7189"
   gradientUnits="userSpaceOnUse">
	<stop
   offset="0"
   style="stop-color:#6B6B6B"
   id="stop3" />
	<stop
   offset="1"
   style="stop-color:#292929"
   id="stop4" />
</radialGradient>
<radialGradient
   id="SVGID_3_"
   cx="32.554"
   cy="24.0811"
   r="16.2826"
   gradientUnits="userSpaceOnUse">
	<stop
   offset="0"
   style="stop-color:#6B6B6B"
   id="stop5" />
	<stop
   offset="1"
   style="stop-color:#292929"
   id="stop6" />
</radialGradient>

<rect
   style="enable-background:new 0 0 64 64;filter:url(#filter3)"
   width="56"
   height="44"
   x="-61"
   y="-54"
   rx="9.9486523"
   ry="9.9486523"
   transform="matrix(0,-0.98852591,-0.98852591,0,0.01076332,-1.0466057)"
   id="rect1" /><rect
   style="enable-background:new 0 0 64 64;fill:url(#radialGradient5)"
   width="56"
   height="44"
   x="-59.015949"
   y="-53.643593"
   rx="9.9131765"
   ry="9.9131765"
   transform="matrix(0,-1,-1,0,0,0)"
   id="rect2" /><path
   style="enable-background:new 0 0 64 64;opacity:0.5"
   d="m 31.643592,11.015949 c -7.732,0 -14,6.268 -14,14 v 14 h 14 c 7.732,0 14,-6.268 14,-14 0,-7.732 -6.268,-14 -14,-14 z m 0,8 a 6,6 0 0 1 6,6 6,6 0 0 1 -6,6 6,6 0 0 1 -6,-6 6,6 0 0 1 6,-6 z"
   id="path2" /><path
   style="enable-background:new 0 0 64 64;opacity:0.5;filter:url(#filter4)"
   d="m 31.489286,11.397596 c -7.732,0 -14,6.268 -14,14 v 14 h 14 c 7.732,0 14,-6.268 14,-14 0,-7.732 -6.268,-14 -14,-14 z m 0,8 a 6,6 0 0 1 6,6 6,6 0 0 1 -6,6 6,6 0 0 1 -6,-6 6,6 0 0 1 6,-6 z"
   id="path2-3" /><path
   class="st0"
   d="M64,45.8C63.5,54.3,56.5,61,48,61c-8.4,0-15.4-6.5-16-14.8c0,0.3,0,0.6,0,0.8c0,8.8,7.2,16,16,16s16-7.2,16-16  C64,46.6,64,46.2,64,45.8L64,45.8z"
   id="path7"
   style="opacity:0.41288764;filter:url(#filter8)" />
<radialGradient
   id="SVGID_4_"
   cx="38.7218"
   cy="35.9683"
   r="27.4728"
   gradientUnits="userSpaceOnUse">
	<stop
   offset="0"
   style="stop-color:#EB55FF"
   id="stop7" />
	<stop
   offset="1"
   style="stop-color:#C400FF"
   id="stop8" />
</radialGradient>
<circle
   class="st3"
   cx="48"
   cy="46"
   r="16"
   id="circle8" />
<path
   class="st4"
   d="M46,38l-0.2,2.1c-0.7,0.2-1.3,0.6-1.8,1.1l-1.9-0.9l-2,3.5l1.7,1.2c-0.1,0.4-0.1,0.7-0.1,1.1  c0,0.4,0,0.7,0.1,1.1l-1.7,1.2l2,3.5l1.9-0.9c0.5,0.5,1.2,0.8,1.8,1.1L46,54h4l0.2-2.1c0.7-0.2,1.3-0.6,1.8-1.1l1.9,0.9l2-3.5  l-1.7-1.2c0.1-0.4,0.1-0.7,0.1-1.1c0-0.4,0-0.7-0.1-1.1l1.7-1.2l-2-3.5L52,41.2c-0.5-0.5-1.2-0.8-1.8-1.1L50,38L46,38L46,38z   M48,43.7c1.3,0,2.3,1,2.3,2.3c0,0,0,0,0,0c0,1.3-1,2.3-2.3,2.3c0,0,0,0,0,0c-1.3,0-2.3-1-2.3-2.3c0,0,0,0,0,0  C45.7,44.7,46.7,43.7,48,43.7C48,43.7,48,43.7,48,43.7z"
   id="path8" />
</svg>
