<?xml version="1.0" encoding="UTF-8" standalone="no"?>
<svg
   width="64"
   height="64"
   version="1.1"
   id="svg5"
   sodipodi:docname="chrome-bllmngcdibgbgjnginpehneeofhbmdjm-Default.svg"
   xml:space="preserve"
   inkscape:version="1.3.2 (091e20ef0f, 2023-11-25, custom)"
   xmlns:inkscape="http://www.inkscape.org/namespaces/inkscape"
   xmlns:sodipodi="http://sodipodi.sourceforge.net/DTD/sodipodi-0.dtd"
   xmlns="http://www.w3.org/2000/svg"
   xmlns:svg="http://www.w3.org/2000/svg"><defs
     id="defs5"><radialGradient
       id="a"
       cx="101.9"
       cy="809"
       r="1.1"
       gradientTransform="matrix(54.063279,0,0,-54.063279,-5495.0242,43796.224)"
       gradientUnits="userSpaceOnUse"><stop
         offset="0"
         style="stop-color:#00d3ff;stop-opacity:1;"
         id="stop1" /><stop
         offset="1"
         style="stop-color:#ff21eb;stop-opacity:1;"
         id="stop4" /></radialGradient><radialGradient
       id="a-5"
       cx="101.9"
       cy="809"
       r="1.1"
       gradientTransform="matrix(58.865074,0,0,-58.865074,-5985.9237,47683.277)"
       gradientUnits="userSpaceOnUse"><stop
         offset="0"
         style="stop-color:#0057ff;stop-opacity:1;"
         id="stop1-3" /><stop
         offset="1"
         style="stop-color:#61e1ff;stop-opacity:1;"
         id="stop4-5" /></radialGradient><radialGradient
       id="a-0"
       cx="101.9"
       cy="809"
       r="1.1"
       gradientTransform="matrix(57.098952,0,0,-57.098952,-5805.3686,46253.601)"
       gradientUnits="userSpaceOnUse"><stop
         offset="0"
         style="stop-color:#0057ff;stop-opacity:1;"
         id="stop1-36" /><stop
         offset="1"
         style="stop-color:#61e1ff;stop-opacity:1;"
         id="stop4-1" /></radialGradient><filter
       inkscape:collect="always"
       style="color-interpolation-filters:sRGB"
       id="filter2"
       x="-0.089589275"
       y="-0.089586817"
       width="1.1791785"
       height="1.1791614"><feGaussianBlur
         inkscape:collect="always"
         stdDeviation="1.9708141"
         id="feGaussianBlur2" /></filter><filter
       inkscape:collect="always"
       style="color-interpolation-filters:sRGB"
       id="filter3"
       x="-0.069909102"
       y="-0.13008826"
       width="1.1398241"
       height="1.2601804"><feGaussianBlur
         inkscape:collect="always"
         stdDeviation="0.92547093"
         id="feGaussianBlur3" /></filter></defs><sodipodi:namedview
     id="namedview5"
     pagecolor="#ffffff"
     bordercolor="#000000"
     borderopacity="0.25"
     inkscape:showpageshadow="2"
     inkscape:pageopacity="0.0"
     inkscape:pagecheckerboard="0"
     inkscape:deskcolor="#d1d1d1"
     inkscape:zoom="8.9382717"
     inkscape:cx="33.675414"
     inkscape:cy="44.583563"
     inkscape:window-width="1920"
     inkscape:window-height="1020"
     inkscape:window-x="0"
     inkscape:window-y="0"
     inkscape:window-maximized="1"
     inkscape:current-layer="svg5" /><path
     fill="url(#a)"
     d="m 32,4.9675995 c -15.225572,0 -27.0316405,11.1573095 -27.0316405,26.2206915 0,7.879723 3.2302816,14.691696 8.4879355,19.395201 0.439264,0.39196 0.709581,0.946108 0.723096,1.540804 l 0.148675,4.811632 a 2.1625312,2.1625312 0 0 0 3.034301,1.912489 l 5.36578,-2.365269 c 0.45278,-0.202738 0.966381,-0.236526 1.446193,-0.108126 2.466637,0.67579 5.088706,1.040717 7.82566,1.040717 15.225572,0 27.031641,-11.157309 27.031641,-26.22069 C 59.031641,16.131667 47.225572,4.9675995 32,4.9675995 Z"
     id="path4-3"
     style="fill:url(#a);stroke-width:0.0675791" /><path
     fill="#ffffff"
     d="m 15.765705,38.858824 7.940544,-12.596745 a 4.054746,4.054746 0 0 1 5.865866,-1.081266 l 6.318646,4.737295 a 1.6218984,1.6218984 0 0 0 1.953036,-0.0067 l 8.528482,-6.474078 c 1.135329,-0.865013 2.62207,0.500085 1.865184,1.709751 l -7.947302,12.589986 a 4.054746,4.054746 0 0 1 -5.865866,1.081266 l -6.318647,-4.737294 a 1.6218984,1.6218984 0 0 0 -1.953035,0.0067 l -8.528483,6.474078 c -1.135328,0.865012 -2.622069,-0.493327 -1.858425,-1.702993 z"
     id="path5-6-7"
     style="stroke-width:0.0675791" /><path
     fill="url(#a)"
     d="m 32,3.4497398 c -16.080493,0 -28.549477,11.7837972 -28.549477,27.6929932 0,8.322172 3.411663,15.51664 8.964536,20.484249 0.463929,0.413968 0.749424,0.999232 0.763698,1.62732 l 0.157023,5.081807 a 2.2839581,2.2839581 0 0 0 3.204678,2.019876 l 5.667071,-2.49808 c 0.478204,-0.214121 1.020644,-0.249807 1.527397,-0.114197 2.60514,0.713736 5.374439,1.099154 8.265074,1.099154 16.080493,0 28.549477,-11.783796 28.549477,-27.692992 C 60.549477,15.240674 48.080493,3.4497398 32,3.4497398 Z"
     id="path4-3-0"
     style="fill:none;stroke:#000000;stroke-width:0.771;stroke-dasharray:none;stroke-opacity:1;filter:url(#filter2)"
     transform="matrix(0.94683488,0,0,0.94683488,1.701284,1.7012654)" /><path
     fill="#ffffff"
     d="m 14.853956,39.243903 8.386409,-13.304057 a 4.2824215,4.2824215 0 0 1 6.195236,-1.141979 l 6.673441,5.003296 a 1.7129686,1.7129686 0 0 0 2.062699,-0.0071 l 9.00736,-6.8376 c 1.199078,-0.913583 2.7693,0.528165 1.969914,1.805754 l -8.393546,13.296919 a 4.2824215,4.2824215 0 0 1 -6.195236,1.141979 L 27.886792,34.19782 a 1.7129686,1.7129686 0 0 0 -2.062699,0.0071 l -9.00736,6.8376 c -1.199078,0.913583 -2.7693,-0.521028 -1.962777,-1.798617 z"
     id="path5-6-7-6"
     style="opacity:1;mix-blend-mode:normal;fill:none;stroke:#0024ff;stroke-width:0.42246015;stroke-dasharray:none;stroke-opacity:1;filter:url(#filter3)"
     transform="matrix(0.94683488,0,0,0.94683488,1.701284,1.7012654)" /></svg>
