<?xml version="1.0" encoding="UTF-8" standalone="no"?>
<svg
   width="64"
   height="64"
   version="1.1"
   id="svg17"
   sodipodi:docname="gimp.svg"
   inkscape:version="1.3.2 (091e20ef0f, 2023-11-25, custom)"
   xmlns:inkscape="http://www.inkscape.org/namespaces/inkscape"
   xmlns:sodipodi="http://sodipodi.sourceforge.net/DTD/sodipodi-0.dtd"
   xmlns:xlink="http://www.w3.org/1999/xlink"
   xmlns="http://www.w3.org/2000/svg"
   xmlns:svg="http://www.w3.org/2000/svg">
  <defs
     id="defs17">
    <linearGradient
       id="linearGradient27"
       inkscape:collect="always">
      <stop
         style="stop-color:#1a1a1a;stop-opacity:1;"
         offset="0"
         id="stop28" />
      <stop
         style="stop-color:#000000;stop-opacity:1;"
         offset="1"
         id="stop29" />
    </linearGradient>
    <linearGradient
       id="linearGradient26"
       inkscape:collect="always">
      <stop
         style="stop-color:#272727;stop-opacity:1;"
         offset="0"
         id="stop26" />
      <stop
         style="stop-color:#0e0e0e;stop-opacity:1;"
         offset="1"
         id="stop27" />
    </linearGradient>
    <linearGradient
       id="linearGradient20"
       inkscape:collect="always">
      <stop
         style="stop-color:#8a8a8a;stop-opacity:1;"
         offset="0"
         id="stop21" />
      <stop
         style="stop-color:#5b5b5b;stop-opacity:1;"
         offset="1"
         id="stop22" />
    </linearGradient>
    <linearGradient
       id="linearGradient18"
       inkscape:collect="always">
      <stop
         style="stop-color:#ff9a0c;stop-opacity:1;"
         offset="0"
         id="stop19" />
      <stop
         style="stop-color:#ff6b0c;stop-opacity:1;"
         offset="1"
         id="stop20" />
    </linearGradient>
    <linearGradient
       id="linearGradient17"
       inkscape:collect="always">
      <stop
         style="stop-color:#ab6b32;stop-opacity:1;"
         offset="0"
         id="stop17" />
      <stop
         style="stop-color:#dea141;stop-opacity:1;"
         offset="1"
         id="stop18" />
    </linearGradient>
    <radialGradient
       inkscape:collect="always"
       xlink:href="#linearGradient17"
       id="radialGradient18"
       cx="14.462611"
       cy="40.196156"
       fx="14.462611"
       fy="40.196156"
       r="25"
       gradientTransform="matrix(1.2509628,0.80612061,-0.91679006,1.422703,33.221859,-30.113185)"
       gradientUnits="userSpaceOnUse" />
    <radialGradient
       inkscape:collect="always"
       xlink:href="#linearGradient18"
       id="radialGradient20"
       cx="38.420204"
       cy="39.934105"
       fx="38.420204"
       fy="39.934105"
       r="7.1047445"
       gradientTransform="matrix(3.5065559,1.7678969,-0.28616213,0.56759167,-84.874761,-48.854622)"
       gradientUnits="userSpaceOnUse" />
    <radialGradient
       inkscape:collect="always"
       xlink:href="#linearGradient20"
       id="radialGradient22"
       cx="47.060272"
       cy="47.249897"
       fx="47.060272"
       fy="47.249897"
       r="4.5737787"
       gradientTransform="matrix(2.5845844,2.3536055,-2.1046882,2.3112386,24.875328,-172.43947)"
       gradientUnits="userSpaceOnUse" />
    <radialGradient
       inkscape:collect="always"
       xlink:href="#linearGradient26"
       id="radialGradient27"
       cx="2.6373563"
       cy="31.312056"
       fx="2.6373563"
       fy="31.312056"
       r="8.0000003"
       gradientTransform="matrix(4.6924827,4.1146205,-2.6903937,3.0682356,70.643988,-80.268601)"
       gradientUnits="userSpaceOnUse" />
    <radialGradient
       inkscape:collect="always"
       xlink:href="#linearGradient27"
       id="radialGradient29"
       cx="34"
       cy="29"
       fx="34"
       fy="29"
       r="3"
       gradientTransform="translate(0)"
       gradientUnits="userSpaceOnUse" />
    <radialGradient
       inkscape:collect="always"
       xlink:href="#linearGradient27"
       id="radialGradient29-3"
       cx="34"
       cy="29"
       fx="34"
       fy="29"
       r="3"
       gradientUnits="userSpaceOnUse"
       gradientTransform="translate(-12.679223,-0.27852577)" />
    <filter
       inkscape:collect="always"
       style="color-interpolation-filters:sRGB"
       id="filter4"
       x="-0.21368771"
       y="-0.21368769"
       width="1.4273754"
       height="1.4273754">
      <feGaussianBlur
         inkscape:collect="always"
         stdDeviation="1.1631783"
         id="feGaussianBlur4" />
    </filter>
    <filter
       inkscape:collect="always"
       style="color-interpolation-filters:sRGB"
       id="filter5"
       x="-0.11268039"
       y="-0.10624484"
       width="1.2253607"
       height="1.2124173">
      <feGaussianBlur
         inkscape:collect="always"
         stdDeviation="0.71090109"
         id="feGaussianBlur5" />
    </filter>
    <filter
       inkscape:collect="always"
       style="color-interpolation-filters:sRGB"
       id="filter6"
       x="-0.21368771"
       y="-0.21368771"
       width="1.4273754"
       height="1.4273754">
      <feGaussianBlur
         inkscape:collect="always"
         stdDeviation="1.1631783"
         id="feGaussianBlur6" />
    </filter>
    <filter
       inkscape:collect="always"
       style="color-interpolation-filters:sRGB"
       id="filter7"
       x="-0.1162441"
       y="-0.13097121"
       width="1.231549"
       height="1.2619295">
      <feGaussianBlur
         inkscape:collect="always"
         stdDeviation="2.2550854"
         id="feGaussianBlur7" />
    </filter>
    <filter
       inkscape:collect="always"
       style="color-interpolation-filters:sRGB"
       id="filter1"
       x="-0.20960732"
       y="-0.30714625"
       width="1.4230596"
       height="1.6043901">
      <feGaussianBlur
         inkscape:collect="always"
         stdDeviation="0.75735997"
         id="feGaussianBlur1" />
    </filter>
    <filter
       inkscape:collect="always"
       style="color-interpolation-filters:sRGB"
       id="filter2"
       x="-0.14005665"
       y="-0.21345841"
       width="1.2769371"
       height="1.4278796">
      <feGaussianBlur
         inkscape:collect="always"
         stdDeviation="0.75735997"
         id="feGaussianBlur2" />
    </filter>
    <filter
       inkscape:collect="always"
       style="color-interpolation-filters:sRGB"
       id="filter3"
       x="-0.21307288"
       y="-0.21306017"
       width="1.4332374"
       height="1.4363901">
      <feGaussianBlur
         inkscape:collect="always"
         stdDeviation="0.75735997"
         id="feGaussianBlur3" />
    </filter>
  </defs>
  <sodipodi:namedview
     id="namedview17"
     pagecolor="#ffffff"
     bordercolor="#000000"
     borderopacity="0.25"
     inkscape:showpageshadow="2"
     inkscape:pageopacity="0.0"
     inkscape:pagecheckerboard="0"
     inkscape:deskcolor="#d1d1d1"
     inkscape:zoom="8.9714173"
     inkscape:cx="21.568498"
     inkscape:cy="35.390172"
     inkscape:window-width="1920"
     inkscape:window-height="1020"
     inkscape:window-x="0"
     inkscape:window-y="0"
     inkscape:window-maximized="1"
     inkscape:current-layer="svg17" />
  <path
     style="fill:url(#radialGradient18);fill-rule:evenodd"
     d="M 54.197711,6.0122063 C 53.74834,5.9406823 53.344625,6.1945944 53.101923,6.4836971 52.859224,6.7729431 52.690825,7.1312821 52.544173,7.5828893 52.29055,8.3643687 51.359126,11.265127 48.000462,14.132122 44.641797,16.999265 38.849904,21.741367 28.811529,22 c -6.104,0.07152 -9.813821,-3.546121 -12.24783,-8.369033 -0.607444,-1.20362 -1.563684,-3.446634 -1.563684,-2.01943 v 2.206682 l -0.031,11.42064 0.06197,0.150345 c 0,0 0.546833,1.21635 -0.03099,2.855126 -0.577822,1.638916 -3.285157,4.030541 -8.3774517,5.561026 L 6,33.990606 6.1183106,34.64706 c 0.282455,1.590281 1.4083374,3.220187 3.0704548,4.888858 1.6621176,1.66853 3.8875446,3.356657 6.4789406,4.882852 5.182794,3.05239 11.820986,5.464489 18.270616,5.577212 6.449628,0.113015 12.760001,-2.145456 16.935389,-8.400579 4.17539,-6.254983 6.211706,-18.192671 4.543709,-33.7405766 h -0.0029 C 55.361571,7.4279668 55.267549,7.0634769 55.099129,6.7440473 54.930708,6.4247608 54.647082,6.0950317 54.197711,6.0237932 Z"
     id="path2" />
  <path
     style="fill:none;fill-rule:evenodd;stroke:#000000;stroke-opacity:1;stroke-width:0.6999999;stroke-dasharray:none;filter:url(#filter7)"
     d="M 54.197711,6.0122063 C 53.74834,5.9406823 53.344625,6.1945944 53.101923,6.4836971 52.859224,6.7729431 52.690825,7.1312821 52.544173,7.5828893 52.29055,8.3643687 51.359126,11.265127 48.000462,14.132122 44.641797,16.999265 38.849904,21.741367 28.811529,22 c -6.104,0.07152 -9.813821,-3.546121 -12.24783,-8.369033 -0.607444,-1.20362 -1.563684,-3.446634 -1.563684,-2.01943 v 2.206682 l -0.031,11.42064 0.06197,0.150345 c 0,0 0.546833,1.21635 -0.03099,2.855126 -0.577822,1.638916 -3.285157,4.030541 -8.3774517,5.561026 L 6,33.990606 6.1183106,34.64706 c 0.282455,1.590281 1.4083374,3.220187 3.0704548,4.888858 1.6621176,1.66853 3.8875446,3.356657 6.4789406,4.882852 5.182794,3.05239 11.820986,5.464489 18.270616,5.577212 6.449628,0.113015 12.760001,-2.145456 16.935389,-8.400579 4.17539,-6.254983 6.211706,-18.192671 4.543709,-33.7405766 h -0.0029 C 55.361571,7.4279668 55.267549,7.0634769 55.099129,6.7440473 54.930708,6.4247608 54.647082,6.0950317 54.197711,6.0237932 Z"
     id="path2-1" />
  <path
     style="fill:#ffffff;fill-rule:evenodd"
     d="M 20.998703,21 C 19.266976,21 17.526547,21.57246 16.20152,22.750281 14.876491,23.928099 14,25.723039 14,28.001261 14,30.27948 14.876491,32.0719 16.20152,33.24972 17.526547,34.427541 19.266976,35 20.998703,35 22.730432,35 24.470861,34.427541 25.795889,33.24972 27.120919,32.0719 28,30.27948 28,28.001261 28,25.723039 27.120919,23.928099 25.795889,22.750281 24.470861,21.57246 22.730432,21 20.998703,21 Z"
     id="path6" />
  <path
     style="fill:none;fill-rule:evenodd;stroke:#000000;stroke-opacity:1;stroke-width:0.39999991;stroke-dasharray:none;filter:url(#filter6)"
     d="M 20.998703,21 C 19.266976,21 17.526547,21.57246 16.20152,22.750281 14.876491,23.928099 14,25.723039 14,28.001261 14,30.27948 14.876491,32.0719 16.20152,33.24972 17.526547,34.427541 19.266976,35 20.998703,35 22.730432,35 24.470861,34.427541 25.795889,33.24972 27.120919,32.0719 28,30.27948 28,28.001261 28,25.723039 27.120919,23.928099 25.795889,22.750281 24.470861,21.57246 22.730432,21 20.998703,21 Z"
     id="path6-9" />
  <path
     style="opacity:0.94494832;fill-rule:evenodd"
     d="m 20,41.389583 c 2.743077,0 5.243866,0.140026 7.512178,0 3.768146,-0.236895 7.080382,-0.654103 8.754968,-1.96557 -0.708335,-0.927896 -0.9059,-1.945753 -0.9059,-1.945753 0,0 2.130702,0.885916 3.237509,2.33493 1.103637,1.444972 -0.388469,2.33519 -0.6773,4.183942 -0.642997,-1.623721 -1.044918,-2.232713 -1.207403,-2.877952 -1.168626,1.638584 -3.181511,2.813806 -5.888856,2.877952 -2.881782,0.06779 -6.550399,-1.074049 -10.825195,-2.604941 z"
     id="path8" />
  <path
     style="fill:url(#radialGradient27);fill-rule:evenodd"
     d="m 7.9652917,23.999998 c -0.3549789,0 -0.7030886,0.02125 -1.0414678,0.07366 -0.902344,0.138834 -1.7378042,0.471467 -2.4580876,0.976084 -2.8811334,2.01861 -3.63990819,6.593456 -0.081191,11.384059 3.5587193,4.790745 8.2670507,5.534213 11.1481837,3.515604 2.881134,-2.018611 3.64271,-6.593457 0.08399,-11.384061 -2.335406,-3.143869 -5.166573,-4.543961 -7.6514243,-4.565069 z"
     id="path10" />
  <path
     style="fill:none;fill-rule:evenodd;stroke:#000000;stroke-opacity:1;stroke-width:0.19999992;stroke-dasharray:none;filter:url(#filter5)"
     d="m 7.9652917,23.999998 c -0.3549789,0 -0.7030886,0.02125 -1.0414678,0.07366 -0.902344,0.138834 -1.7378042,0.471467 -2.4580876,0.976084 -2.8811334,2.01861 -3.63990819,6.593456 -0.081191,11.384059 3.5587193,4.790745 8.2670507,5.534213 11.1481837,3.515604 2.881134,-2.018611 3.64271,-6.593457 0.08399,-11.384061 -2.335406,-3.143869 -5.166573,-4.543961 -7.6514243,-4.565069 z"
     id="path10-4" />
  <path
     style="fill:#ffffff;fill-rule:evenodd"
     d="m 32.998703,20.999999 c -1.731727,0 -3.472157,0.57246 -4.797184,1.750281 C 26.87649,23.928098 26,25.723039 26,28.00126 c 0,2.27822 0.87649,4.07064 2.201519,5.24846 C 29.526546,34.427541 31.266976,35 32.998703,35 34.730432,35 36.470861,34.427541 37.79589,33.24972 39.120918,32.0719 40,30.27948 40,28.00126 40,25.723039 39.120918,23.928098 37.79589,22.75028 36.470861,21.572459 34.730432,20.999999 32.998703,20.999999 Z"
     id="path11" />
  <path
     style="fill:none;fill-rule:evenodd;stroke:#000000;stroke-opacity:1;stroke-width:0.39999991;stroke-dasharray:none;filter:url(#filter4)"
     d="m 32.998703,20.999999 c -1.731727,0 -3.472157,0.57246 -4.797184,1.750281 C 26.87649,23.928098 26,25.723039 26,28.00126 c 0,2.27822 0.87649,4.07064 2.201519,5.24846 C 29.526546,34.427541 31.266976,35 32.998703,35 34.730432,35 36.470861,34.427541 37.79589,33.24972 39.120918,32.0719 40,30.27948 40,28.00126 40,25.723039 39.120918,23.928098 37.79589,22.75028 36.470861,21.572459 34.730432,20.999999 32.998703,20.999999 Z"
     id="path11-7" />
  <path
     style="fill:url(#radialGradient29);fill-rule:evenodd;fill-opacity:1"
     d="m 34,26.000001 c -0.735109,0 -1.478265,0.243 -2.050781,0.75192 C 31.376704,27.260841 31,28.044681 31,29 c 0,0.955321 0.376704,1.739161 0.949219,2.248081 C 32.521735,31.757 33.264891,32 34,32 34.735109,32 35.478265,31.757 36.050781,31.248081 36.623296,30.739161 37,29.955321 37,29 37,28.044681 36.623296,27.260841 36.050781,26.751921 35.478265,26.243001 34.735109,26.000001 34,26.000001 Z"
     id="path12" />
  <path
     style="fill:url(#radialGradient29-3);fill-opacity:1;fill-rule:evenodd"
     d="m 21.320777,25.721475 c -0.735109,0 -1.478265,0.243 -2.050781,0.75192 -0.572515,0.50892 -0.949219,1.29276 -0.949219,2.248079 0,0.955321 0.376704,1.739161 0.949219,2.248081 0.572516,0.508919 1.315672,0.751919 2.050781,0.751919 0.735109,0 1.478265,-0.243 2.050781,-0.751919 0.572515,-0.50892 0.949219,-1.29276 0.949219,-2.248081 0,-0.955319 -0.376704,-1.739159 -0.949219,-2.248079 -0.572516,-0.50892 -1.315672,-0.75192 -2.050781,-0.75192 z"
     id="path12-5" />
  <path
     style="fill:url(#radialGradient20)"
     d="m 48.914487,49.391875 1.20834,-2.406359 C 45.627615,43.696818 37.235631,40.359634 37.235631,40.359634 l -1.322293,0.726895 c 0,0 7.619357,6.757871 13.001149,8.305346 z"
     id="path14" />
  <path
     style="fill:none;stroke:#000000;stroke-opacity:1;stroke-width:0.20000001;stroke-dasharray:none;filter:url(#filter2)"
     d="m 48.914487,49.391875 1.20834,-2.406359 C 45.627615,43.696818 37.235631,40.359634 37.235631,40.359634 l -1.322293,0.726895 c 0,0 7.619357,6.757871 13.001149,8.305346 z"
     id="path14-8" />
  <path
     style="fill:url(#radialGradient22)"
     d="m 48.956523,44.956566 -0.630097,0.414375 c -0.583609,0.319446 -1.057092,0.862398 -1.441141,1.490336 -0.439456,1.032279 -0.612994,1.677807 -0.537458,2.686371 l 0.913044,-0.156343 c 0,0 4.76729,1.367658 7.024072,2.086956 l 0.263985,-0.508551 0.929334,-1.798762 -6.521739,-3.341006 z"
     id="path15" />
  <path
     style="fill:none;stroke:#000000;stroke-opacity:1;stroke-width:0.20000001;stroke-dasharray:none;filter:url(#filter1)"
     d="m 48.956523,44.956566 -0.630097,0.414375 c -0.583609,0.319446 -1.057092,0.862398 -1.441141,1.490336 -0.439456,1.032279 -0.612994,1.677807 -0.537458,2.686371 l 0.913044,-0.156343 c 0,0 4.76729,1.367658 7.024072,2.086956 l 0.263985,-0.508551 0.929334,-1.798762 -6.521739,-3.341006 z"
     id="path15-4" />
  <path
     style="fill:#3f3f3f"
     d="m 62,58 c -1.603267,-5.209178 -2.171913,-9.345252 -6.361777,-8.977205 -3.37645,0.296597 -3.612833,4.927287 -0.123777,6.205111 C 58.875515,56.458855 61.999996,58 61.999996,58 Z"
     id="path16" />
  <path
     style="fill:none;stroke:#000000;stroke-opacity:1;stroke-width:0.20000001;stroke-dasharray:none;filter:url(#filter3)"
     d="m 62,58 c -1.603267,-5.209178 -2.171913,-9.345252 -6.361777,-8.977205 -3.37645,0.296597 -3.612833,4.927287 -0.123777,6.205111 C 58.875515,56.458855 61.999996,58 61.999996,58 Z"
     id="path16-5" />
</svg>
