<?xml version="1.0" encoding="UTF-8" standalone="no"?>
<svg
   width="64"
   height="64"
   version="1"
   id="svg7"
   sodipodi:docname="com.google.ChromeDev.svg"
   inkscape:version="1.3.2 (091e20ef0f, 2023-11-25, custom)"
   xmlns:inkscape="http://www.inkscape.org/namespaces/inkscape"
   xmlns:sodipodi="http://sodipodi.sourceforge.net/DTD/sodipodi-0.dtd"
   xmlns:xlink="http://www.w3.org/1999/xlink"
   xmlns="http://www.w3.org/2000/svg"
   xmlns:svg="http://www.w3.org/2000/svg">
  <defs
     id="defs7">
    <filter
       inkscape:collect="always"
       style="color-interpolation-filters:sRGB"
       id="filter24"
       x="-0.10114443"
       y="-0.10164613"
       width="1.2022904"
       height="1.2033176">
      <feGaussianBlur
         inkscape:collect="always"
         stdDeviation="2.1966029"
         id="feGaussianBlur24" />
    </filter>
    <radialGradient
       inkscape:collect="always"
       xlink:href="#linearGradient24"
       id="radialGradient25"
       cx="26.9249"
       cy="37.07753"
       fx="26.9249"
       fy="37.07753"
       r="9.375617"
       gradientUnits="userSpaceOnUse"
       gradientTransform="matrix(3.9582298,0,0,3.9582295,-86.774367,-102.63617)" />
    <linearGradient
       id="linearGradient24"
       inkscape:collect="always">
      <stop
         style="stop-color:#ff4a4a;stop-opacity:1;"
         offset="0"
         id="stop24" />
      <stop
         style="stop-color:#ffa339;stop-opacity:1;"
         offset="1"
         id="stop25" />
    </linearGradient>
  </defs>
  <sodipodi:namedview
     id="namedview7"
     pagecolor="#505050"
     bordercolor="#eeeeee"
     borderopacity="1"
     inkscape:showpageshadow="0"
     inkscape:pageopacity="0"
     inkscape:pagecheckerboard="0"
     inkscape:deskcolor="#505050"
     inkscape:zoom="13.328125"
     inkscape:cx="32.037515"
     inkscape:cy="32"
     inkscape:window-width="1920"
     inkscape:window-height="1010"
     inkscape:window-x="0"
     inkscape:window-y="0"
     inkscape:window-maximized="1"
     inkscape:current-layer="svg7" />
  <path
     d="m 9.1199413,18.882758 c -5.9687544,9.939369 -4.1569542,23.711115 4.1958267,31.76766 4.959025,4.998778 12.017306,7.902423 19.05612,7.699098 -0.570717,-0.329677 0.92229,-1.845039 1.190431,-2.656093 3.161405,-5.457692 6.298719,-10.947709 9.475584,-16.38497 -3.752464,6.076635 -12.629433,7.920461 -18.50042,3.851448 C 21.773302,41.48974 20.151312,38.633186 18.876295,35.781752 15.624177,30.148754 12.372059,24.515756 9.1199413,18.882758 Z"
     style="fill:#fd5959;stroke-width:0.941818;fill-opacity:1"
     id="path24" />
  <path
     d="m 54.709785,18.804633 c -6.84863,0.05469 -13.861597,0.0078 -20.773437,0.02344 7.233297,0.917002 12.57827,8.530203 11.041022,15.64603 -0.742839,3.783325 -3.295448,6.793839 -5.028446,10.156679 -2.639608,4.572275 -5.279217,9.144549 -7.918826,13.716823 11.578327,0.214939 22.559732,-8.193573 25.438953,-19.399387 1.872027,-6.71015 0.881656,-14.13869 -2.640125,-20.143585 z"
     style="fill:#ff8181;stroke-width:0.941818;fill-opacity:1"
     id="path23" />
  <path
     d="M 31.91291,5.6425244 C 22.666912,5.5578453 13.656463,10.816361 9.0984569,18.845649 c 3.4095051,5.905599 6.8190111,11.811198 10.2285161,17.716797 -2.684547,-6.844242 1.468685,-15.307697 8.56692,-17.294958 3.316314,-1.081766 6.781853,-0.225576 10.188714,-0.439417 5.546299,0 11.092598,0 16.638897,0 C 50.148157,10.750501 41.17072,5.639752 31.91291,5.6425244 Z"
     style="fill:#d63f3f;stroke-width:0.941818;fill-opacity:1"
     id="path22" />
  <path
     d="m 31.86085,18.668536 c -7.387406,-0.223205 -13.919467,6.659475 -13.319003,14.024549 0.157154,7.387662 7.364488,13.549281 14.686257,12.579429 7.368771,-0.534518 13.148087,-8.042646 11.81591,-15.303851 C 44.191077,23.60698 38.279972,18.540999 31.86085,18.668536 Z"
     style="fill:#ffffff;fill-opacity:1;stroke-width:1.14054;stroke-dasharray:none"
     id="path6" />
  <path
     d="m 31.86858,22.629837 c -5.733733,-0.207186 -10.532289,5.698141 -9.185802,11.269772 0.954724,5.634836 7.661457,9.134417 12.842034,6.746953 5.32101,-2.039421 7.450178,-9.276916 4.122439,-13.890208 -1.699874,-2.558682 -4.706169,-4.154204 -7.778671,-4.126517 z"
     style="fill:url(#radialGradient25);stroke-width:0.852343"
     id="path5" />
  <path
     d="M 31.959825,5.5776509 C 20.841913,5.4133996 10.191829,13.080609 6.8212399,23.640607 3.1240308,34.146613 7.0663375,46.696874 16.119484,53.199199 c 9.20805,7.097046 23.025432,6.925155 32.11715,-0.282231 C 57.203769,46.238192 60.953941,33.550894 56.979545,23.091299 53.429032,12.947015 43.20099,5.6828713 32.446162,5.5882886 c -1.534192,0.5698342 3.193323,0.404919 3.869077,0.7530777 7.447034,1.2186024 14.28315,5.8228197 18.108379,12.3422857 -1.902208,0.05243 -4.288031,0.0065 -6.372025,0.02198 -5.610006,-0.04739 -11.231914,0.121196 -16.830162,-0.14005 -7.53806,0.149608 -13.840826,7.54803 -12.737855,15.016435 0.708183,2.73993 -0.431665,0.213808 -1.090397,-0.823988 C 14.717295,28.144667 12.041411,23.531306 9.3655271,18.917944 13.91488,11.006462 22.83382,5.874804 31.963435,5.9513261 c -0.01369,-0.1112553 0.01337,-0.2657115 -0.0036,-0.3736752 z m -0.04048,13.3439561 c 7.137531,-0.163272 13.538099,6.41716 13.049845,13.586128 -0.112757,6.161212 -5.058546,11.78042 -11.220801,12.468204 C 26.807961,46.129318 19.615515,40.785706 18.884647,33.744971 17.727002,26.653914 23.453026,19.475227 30.612055,18.984925 l 0.649366,-0.04728 0.657948,-0.01592 z m 3.770316,0.157505 c 6.329862,0 12.659724,0 18.989586,0 5.590498,9.318119 4.321195,22.059526 -2.995238,30.097618 -4.794413,5.499504 -11.980496,8.806965 -19.275264,8.875673 3.919688,-6.793618 7.907823,-13.570347 11.789748,-20.369645 3.279726,-6.592135 -0.09919,-15.375742 -6.963399,-18.056995 -0.503429,-0.21332 -1.020028,-0.395987 -1.545433,-0.546651 z M 9.1631184,19.320863 c 3.3734386,5.8975 6.8963466,11.72372 10.1758426,17.66602 2.458115,6.586532 10.497239,10.21192 17.074747,7.731241 1.556102,-0.07512 4.826562,-3.135862 4.723596,-2.627777 C 38.046862,47.417748 34.956421,52.745148 31.86598,58.072549 20.083337,58.226677 8.9668814,49.407735 6.4911892,37.878715 5.0357113,31.646238 5.9850235,24.88172 9.1631184,19.320863 Z"
     style="mix-blend-mode:normal;stroke:#000000;stroke-width:0.2;stroke-linejoin:round;stroke-dasharray:none;stroke-opacity:1;filter:url(#filter24)"
     id="path13" />
</svg>
