<?xml version="1.0" encoding="UTF-8" standalone="no"?>
<svg
   width="64"
   height="64"
   version="1.1"
   id="svg7"
   sodipodi:docname="application-vnd.google-apps.presentation.svg"
   inkscape:version="1.3.2 (091e20ef0f, 2023-11-25, custom)"
   xmlns:inkscape="http://www.inkscape.org/namespaces/inkscape"
   xmlns:sodipodi="http://sodipodi.sourceforge.net/DTD/sodipodi-0.dtd"
   xmlns:xlink="http://www.w3.org/1999/xlink"
   xmlns="http://www.w3.org/2000/svg"
   xmlns:svg="http://www.w3.org/2000/svg">
  <defs
     id="defs7">
    <inkscape:path-effect
       effect="fillet_chamfer"
       id="path-effect7"
       is_visible="true"
       lpeversion="1"
       nodesatellites_param="F,0,0,1,0,0.91845824,0,1 @ F,0,0,1,0,0,0,1 @ F,0,0,1,0,0,0,1 @ F,0,0,1,0,0.91845824,0,1 @ F,0,0,1,0,2.8939267,0,1 | F,0,0,1,0,1.4119587,0,1 @ F,0,0,1,0,1.4119587,0,1 @ F,0,0,1,0,1.4119587,0,1 @ F,0,0,1,0,1.4119587,0,1 | F,0,0,1,0,1.4119587,0,1 @ F,0,0,1,0,1.4119587,0,1 @ F,0,0,1,0,1.4119587,0,1 @ F,0,0,1,0,1.4119587,0,1 | F,0,0,1,0,1.4119587,0,1 @ F,0,0,1,0,1.4119587,0,1 @ F,0,0,1,0,1.4119587,0,1 @ F,0,0,1,0,1.4119587,0,1"
       radius="0"
       unit="px"
       method="auto"
       mode="F"
       chamfer_steps="1"
       flexible="false"
       use_knot_distance="true"
       apply_no_radius="true"
       apply_with_radius="true"
       only_selected="false"
       hide_knots="false" />
    <filter
       inkscape:collect="always"
       style="color-interpolation-filters:sRGB"
       id="filter7"
       x="-0.072906028"
       y="-0.12008052"
       width="1.1458121"
       height="1.240161">
      <feGaussianBlur
         inkscape:collect="always"
         stdDeviation="0.85057034"
         id="feGaussianBlur7" />
    </filter>
    <radialGradient
       inkscape:collect="always"
       xlink:href="#linearGradient10"
       id="radialGradient12"
       cx="16.135122"
       cy="53.470272"
       fx="16.135122"
       fy="53.470272"
       r="9"
       gradientUnits="userSpaceOnUse"
       gradientTransform="matrix(5.1704712,-5.1704712,5.1704712,5.1704712,-343.75757,-140.57005)" />
    <linearGradient
       id="linearGradient10"
       inkscape:collect="always">
      <stop
         style="stop-color:#ff8660;stop-opacity:1;"
         offset="0"
         id="stop11" />
      <stop
         style="stop-color:#ffbd60;stop-opacity:1;"
         offset="1"
         id="stop12" />
    </linearGradient>
    <filter
       inkscape:collect="always"
       style="color-interpolation-filters:sRGB"
       id="filter8"
       x="-0.11340938"
       y="-0.11340938"
       width="1.2268188"
       height="1.2268188">
      <feGaussianBlur
         inkscape:collect="always"
         stdDeviation="0.85057034"
         id="feGaussianBlur8" />
    </filter>
    <radialGradient
       inkscape:collect="always"
       xlink:href="#linearGradient9"
       id="radialGradient10"
       cx="13.687016"
       cy="51.762657"
       fx="13.687016"
       fy="51.762657"
       r="22"
       gradientTransform="matrix(2.2102385,-1.2760818,1.6241041,2.8130308,-100.6325,-71.991725)"
       gradientUnits="userSpaceOnUse" />
    <linearGradient
       id="linearGradient9"
       inkscape:collect="always">
      <stop
         style="stop-color:#ff9e22;stop-opacity:1;"
         offset="0"
         id="stop9" />
      <stop
         style="stop-color:#ff6122;stop-opacity:1;"
         offset="1"
         id="stop10" />
    </linearGradient>
    <filter
       inkscape:collect="always"
       style="color-interpolation-filters:sRGB"
       id="filter9"
       x="-0.046394745"
       y="-0.036453014"
       width="1.0927895"
       height="1.072906">
      <feGaussianBlur
         inkscape:collect="always"
         stdDeviation="0.85057034"
         id="feGaussianBlur9" />
    </filter>
  </defs>
  <sodipodi:namedview
     id="namedview7"
     pagecolor="#ffffff"
     bordercolor="#000000"
     borderopacity="0.25"
     inkscape:showpageshadow="2"
     inkscape:pageopacity="0.0"
     inkscape:pagecheckerboard="0"
     inkscape:deskcolor="#d1d1d1"
     inkscape:zoom="13.890625"
     inkscape:cx="32"
     inkscape:cy="32"
     inkscape:window-width="1920"
     inkscape:window-height="1018"
     inkscape:window-x="0"
     inkscape:window-y="0"
     inkscape:window-maximized="1"
     inkscape:current-layer="svg7" />
  <path
     style="opacity:0.699321;filter:url(#filter9)"
     d="m 12.749999,4.0000003 c -1.5235,0 -2.75,1.2488 -2.75,2.8 V 57.2 c 0,1.55008 1.2265,2.8 2.75,2.8 h 38.5 c 1.5224,0 2.75,-1.24992 2.75,-2.8 V 22 l -14,-4 -4,-13.9999997 z"
     id="path1" />
  <path
     style="fill:url(#radialGradient10)"
     d="m 12.749999,3.0000001 c -1.5235,0 -2.75,1.2488002 -2.75,2.8000002 V 56.2 c 0,1.55008 1.2265,2.8 2.75,2.8 h 38.5 c 1.5224,0 2.75,-1.24992 2.75,-2.8 V 21 l -14,-4 -4,-13.9999999 z"
     id="path2" />
  <path
     style="opacity:0.699321;filter:url(#filter8)"
     d="m 53.999999,22 -18,-17.9999997 V 19.1875 c 0,1.55925 1.2555,2.8125 2.8125,2.8125 z"
     id="path3" />
  <path
     style="fill:url(#radialGradient12)"
     d="m 53.999999,21 -18,-17.9999999 V 18.1875 c 0,1.55925 1.2555,2.8125 2.8125,2.8125 z"
     id="path4" />
  <path
     style="opacity:0.699321;filter:url(#filter7)"
     d="m 23.999999,33 c -3.31365,0 -6,2.68635 -6,6 0,3.31365 2.68635,6 6,6 3.31365,0 6,-2.68635 6,-6 h -6 z m 9,0 v 3 h 13 v -3 z m 0,7 v 3 h 13 v -3 z m -15,7 v 3 h 22 v -3 z"
     id="path6" />
  <path
     style="fill:#ffffff"
     d="M 23.085046,32.069322 C 20.205643,32.50991 17.999999,34.997431 17.999999,38 c 0,3.31365 2.68635,6 6,6 3.002571,0 5.490093,-2.205646 5.930678,-5.085052 C 30.007326,38.414018 29.588791,38 29.081541,38 h -2.187615 a 2.8939267,2.8939267 45 0 1 -2.893927,-2.893927 l 0,-2.187615 c 0,-0.50725 -0.414021,-0.925785 -0.914953,-0.849136 z m 9.914953,1.342637 v 0.176082 A 1.4119587,1.4119587 45 0 0 34.411958,35 H 44.58804 a 1.4119587,1.4119587 135 0 0 1.411959,-1.411959 V 33.411959 A 1.4119587,1.4119587 45 0 0 44.58804,32 H 34.411958 a 1.4119587,1.4119587 135 0 0 -1.411959,1.411959 z m 0,7 v 0.176082 A 1.4119587,1.4119587 45 0 0 34.411958,42 H 44.58804 a 1.4119587,1.4119587 135 0 0 1.411959,-1.411959 V 40.411959 A 1.4119587,1.4119587 45 0 0 44.58804,39 H 34.411958 a 1.4119587,1.4119587 135 0 0 -1.411959,1.411959 z m -15,7 v 0.176082 A 1.4119587,1.4119587 45 0 0 19.411958,49 H 38.58804 a 1.4119587,1.4119587 135 0 0 1.411959,-1.411959 V 47.411959 A 1.4119587,1.4119587 45 0 0 38.58804,46 l -19.176082,0 a 1.4119587,1.4119587 135 0 0 -1.411959,1.411959 z"
     id="path7"
     inkscape:path-effect="#path-effect7"
     inkscape:original-d="m 23.999999,32 c -3.31365,0 -6,2.68635 -6,6 0,3.31365 2.68635,6 6,6 3.31365,0 6,-2.68635 6,-6 h -6 z m 9,0 v 3 h 13 v -3 z m 0,7 v 3 h 13 v -3 z m -15,7 v 3 h 22 v -3 z" />
</svg>
