<?xml version="1.0" encoding="UTF-8" standalone="no"?>
<svg
   width="64"
   height="64"
   version="1.1"
   id="svg6"
   sodipodi:docname="chrome-ocdlmjhbenodhlknglojajgokahchlkk-Default.svg"
   inkscape:version="1.3.2 (091e20ef0f, 2023-11-25, custom)"
   xml:space="preserve"
   xmlns:inkscape="http://www.inkscape.org/namespaces/inkscape"
   xmlns:sodipodi="http://sodipodi.sourceforge.net/DTD/sodipodi-0.dtd"
   xmlns:xlink="http://www.w3.org/1999/xlink"
   xmlns="http://www.w3.org/2000/svg"
   xmlns:svg="http://www.w3.org/2000/svg"><defs
     id="defs6"><radialGradient
       id="paint0_radial_2994_8373"
       cx="0"
       cy="0"
       r="1"
       gradientUnits="userSpaceOnUse"
       gradientTransform="matrix(-13.910974,37.151232,-64.799341,-24.263582,24.175023,16.112307)"><stop
         offset="0.06441"
         stop-color="#AE7FE2"
         id="stop8" /><stop
         offset="1"
         stop-color="#0078D4"
         id="stop9" /></radialGradient><linearGradient
       id="paint1_linear_2994_8373"
       x1="17.5119"
       y1="37.8685"
       x2="12.7513"
       y2="29.6347"
       gradientUnits="userSpaceOnUse"
       gradientTransform="matrix(1.1889532,0,0,1.1889532,3.4651225,3.4638659)"><stop
         offset="0"
         stop-color="#114A8B"
         id="stop10-3" /><stop
         offset="1"
         stop-color="#0078D4"
         stop-opacity="0"
         id="stop11-5" /></linearGradient><radialGradient
       id="paint2_radial_2994_8373"
       cx="0"
       cy="0"
       r="1"
       gradientUnits="userSpaceOnUse"
       gradientTransform="matrix(36.524401,-5.3720716,3.5486127,24.126809,15.865786,46.683623)"><stop
         offset="0.133928"
         stop-color="#D59DFF"
         id="stop12-6" /><stop
         offset="1"
         stop-color="#5E438F"
         id="stop13-2" /></radialGradient><linearGradient
       id="paint3_linear_2994_8373"
       x1="40.3566"
       y1="25.3768"
       x2="35.2552"
       y2="32.6916"
       gradientUnits="userSpaceOnUse"
       gradientTransform="matrix(1.1889532,0,0,1.1889532,3.4651225,3.4638659)"><stop
         offset="0"
         stop-color="#493474"
         id="stop14" /><stop
         offset="1"
         stop-color="#8C66BA"
         stop-opacity="0"
         id="stop15" /></linearGradient><radialGradient
       id="paint4_radial_2994_8373"
       cx="0"
       cy="0"
       r="1"
       gradientUnits="userSpaceOnUse"
       gradientTransform="matrix(-28.723091,-7.2829967,12.260243,-48.352634,52.277835,34.975882)"><stop
         offset="0.0584996"
         stop-color="#50E6FF"
         id="stop16" /><stop
         offset="1"
         stop-color="#436DCD"
         id="stop17" /></radialGradient><linearGradient
       id="paint5_linear_2994_8373"
       x1="16.9758"
       y1="3.05655"
       x2="24.4868"
       y2="3.05655"
       gradientUnits="userSpaceOnUse"><stop
         offset="0"
         stop-color="#2D3F80"
         id="stop18" /><stop
         offset="1"
         stop-color="#436DCD"
         stop-opacity="0"
         id="stop19" /></linearGradient><radialGradient
       id="paint6_radial_2994_8373"
       cx="0"
       cy="0"
       r="1"
       gradientUnits="userSpaceOnUse"
       gradientTransform="matrix(-31.430033,-7.9693661,13.415682,-52.909517,54.188873,35.256361)"><stop
         offset="0.0584996"
         stop-color="#50E6FF"
         id="stop20" /><stop
         offset="1"
         stop-color="#436DCD"
         id="stop21" /></radialGradient><linearGradient
       inkscape:collect="always"
       xlink:href="#paint5_linear_2994_8373"
       id="linearGradient4"
       gradientUnits="userSpaceOnUse"
       x1="16.9758"
       y1="3.05655"
       x2="24.4868"
       y2="3.05655"
       gradientTransform="matrix(1.1889532,0,0,1.1889532,3.4651225,3.4638659)" /><radialGradient
       id="paint0_radial_2994_8373-9"
       cx="0"
       cy="0"
       r="1"
       gradientUnits="userSpaceOnUse"
       gradientTransform="matrix(-15.221982,40.652465,-70.906207,-26.550248,77.723019,19.82722)"><stop
         offset="0.06441"
         stop-color="#AE7FE2"
         id="stop8-1" /><stop
         offset="1"
         stop-color="#0078D4"
         id="stop9-2" /></radialGradient><radialGradient
       id="paint2_radial_2994_8373-7"
       cx="0"
       cy="0"
       r="1"
       gradientUnits="userSpaceOnUse"
       gradientTransform="matrix(39.96656,-5.8783502,3.8830436,26.400585,68.630697,53.27966)"><stop
         offset="0.133928"
         stop-color="#D59DFF"
         id="stop12-6-0" /><stop
         offset="1"
         stop-color="#5E438F"
         id="stop13-2-9" /></radialGradient><radialGradient
       id="paint4_radial_2994_8373-3"
       cx="0"
       cy="0"
       r="1"
       gradientUnits="userSpaceOnUse"
       gradientTransform="matrix(-31.430033,-7.9693661,13.415682,-52.909517,108.47431,40.46855)"><stop
         offset="0.0584996"
         stop-color="#50E6FF"
         id="stop16-6" /><stop
         offset="1"
         stop-color="#436DCD"
         id="stop17-0" /></radialGradient><filter
       inkscape:collect="always"
       style="color-interpolation-filters:sRGB"
       id="filter10"
       x="-0.12026425"
       y="-0.10937424"
       width="1.2405285"
       height="1.2187478"><feGaussianBlur
         inkscape:collect="always"
         stdDeviation="2.5970343"
         id="feGaussianBlur10" /></filter></defs><sodipodi:namedview
     id="namedview6"
     pagecolor="#505050"
     bordercolor="#eeeeee"
     borderopacity="1"
     inkscape:showpageshadow="0"
     inkscape:pageopacity="0"
     inkscape:pagecheckerboard="0"
     inkscape:deskcolor="#505050"
     inkscape:zoom="9.3139222"
     inkscape:cx="31.511966"
     inkscape:cy="33.766655"
     inkscape:window-width="1920"
     inkscape:window-height="1010"
     inkscape:window-x="0"
     inkscape:window-y="0"
     inkscape:window-maximized="1"
     inkscape:current-layer="svg6" /><path
     d="M 27.344297,7.0614957 27.077139,7.2230863 C 26.652207,7.480138 26.251887,7.7675437 25.878318,8.0815819 l 0.77056,-0.5420081 h 6.540075 l 1.188953,9.0027772 -5.944766,5.944766 -5.944766,4.132088 v 4.76473 c 0,3.327881 1.73932,6.413808 4.586268,8.137078 l 6.258293,3.788124 -13.222467,7.713096 H 17.560282 L 12.807167,48.145204 C 9.9602075,46.421935 8.2209354,43.336007 8.2209354,40.008127 V 23.985912 c 0,-3.32895 1.7403779,-6.41571 4.5887886,-8.138623 L 27.077139,7.2172367 c 0.08846,-0.053479 0.177511,-0.1053889 0.267158,-0.155741 z"
     fill="url(#paint0_radial_2994_8373)"
     id="path1"
     style="fill:url(#paint0_radial_2994_8373);stroke-width:1.18895" /><path
     d="M 27.344297,7.0614957 27.077139,7.2230863 C 26.652207,7.480138 26.251887,7.7675437 25.878318,8.0815819 l 0.77056,-0.5420081 h 6.540075 l 1.188953,9.0027772 -5.944766,5.944766 -5.944766,4.132088 v 4.76473 c 0,3.327881 1.73932,6.413808 4.586268,8.137078 l 6.258293,3.788124 -13.222467,7.713096 H 17.560282 L 12.807167,48.145204 C 9.9602075,46.421935 8.2209354,43.336007 8.2209354,40.008127 V 23.985912 c 0,-3.32895 1.7403779,-6.41571 4.5887886,-8.138623 L 27.077139,7.2172367 c 0.08846,-0.053479 0.177511,-0.1053889 0.267158,-0.155741 z"
     fill="url(#paint1_linear_2994_8373)"
     id="path2-3"
     style="fill:url(#paint1_linear_2994_8373);stroke-width:1.18895;opacity:0.57323456" /><path
     d="m 41.511625,26.053977 v 5.326867 c 0,3.32788 -1.739319,6.413809 -4.586267,8.137077 l -14.267439,8.636081 c -2.918642,1.766665 -6.550062,1.830393 -9.520067,0.191303 l 13.936671,8.435979 c 3.027788,1.832772 6.822927,1.832772 9.850835,0 l 14.267438,-8.636199 c 2.846948,-1.72327 4.586149,-4.809197 4.586149,-8.137077 V 36.160079 L 54.589992,34.37665 Z"
     fill="url(#paint2_radial_2994_8373)"
     id="path3-6"
     style="fill:url(#paint2_radial_2994_8373);stroke-width:1.18895" /><path
     d="m 41.511625,26.053977 v 5.326867 c 0,3.32788 -1.739319,6.413809 -4.586267,8.137077 l -14.267439,8.636081 c -2.918642,1.766665 -6.550062,1.830393 -9.520067,0.191303 l 13.936671,8.435979 c 3.027788,1.832772 6.822927,1.832772 9.850835,0 l 14.267438,-8.636199 c 2.846948,-1.72327 4.586149,-4.809197 4.586149,-8.137077 V 36.160079 L 54.589992,34.37665 Z"
     fill="url(#paint3_linear_2994_8373)"
     id="path4-7"
     style="fill:url(#paint3_linear_2994_8373);stroke-width:1.18895;opacity:0.57323456" /><path
     d="M 51.190299,15.84717 36.922861,7.2171297 C 33.990069,5.4431282 30.337962,5.3881748 27.360586,7.0522575 l -0.283447,0.171447 c -2.848375,1.722936 -4.588765,4.8096255 -4.588765,8.1386105 v 11.275913 l 4.588765,-2.775729 c 3.0266,-1.830632 6.819122,-1.830632 9.845722,0 l 14.267438,8.630017 c 2.759323,1.669171 4.478906,4.618012 4.583653,7.827117 0.0035,-0.103677 0.0051,-0.207473 0.0051,-0.311625 V 23.985793 c 0,-3.328951 -1.74039,-6.415711 -4.588766,-8.138623 z"
     fill="url(#paint4_radial_2994_8373)"
     id="path5"
     style="fill:url(#paint4_radial_2994_8373);stroke-width:1.18895" /><path
     d="M 51.190299,15.84717 36.922861,7.2171297 C 33.990069,5.4431282 30.337962,5.3881748 27.360586,7.0522575 l -0.283447,0.171447 c -2.848375,1.722936 -4.588765,4.8096255 -4.588765,8.1386105 v 11.275913 l 4.588765,-2.775729 c 3.0266,-1.830632 6.819122,-1.830632 9.845722,0 l 14.267438,8.630017 c 2.759323,1.669171 4.478906,4.618012 4.583653,7.827117 0.0035,-0.103677 0.0051,-0.207473 0.0051,-0.311625 V 23.985793 c 0,-3.328951 -1.74039,-6.415711 -4.588766,-8.138623 z"
     fill="url(#paint5_linear_2994_8373)"
     id="path6"
     style="fill:url(#linearGradient4);stroke-width:1.18895;opacity:0.57323456" /><path
     id="path9"
     style="color:#000000;opacity:1;fill:#000000;stroke:#000000;stroke-width:0.1;stroke-dasharray:none;stroke-opacity:1;filter:url(#filter10)"
     d="m 32.173828,3.2792969 c -1.824953,-0.030359 -3.656159,0.4167437 -5.300781,1.3359375 l -0.01758,0.00977 -0.002,0.00195 c -0.09789,0.054997 -0.195643,0.111084 -0.292969,0.1699219 l -15.611328,9.443359 c -3.1468187,1.903412 -5.0703127,5.314492 -5.0703128,8.992188 v 17.53125 c 0,3.676494 1.9211845,7.086428 5.0664058,8.990234 l 0.363282,0.21875 h 0.002 l 0.002,0.002 15.246094,9.228516 c 3.344949,2.024755 7.537735,2.024753 10.882812,0 l 15.611328,-9.449219 c 3.04595,-1.843727 4.937955,-5.101632 5.054688,-8.644531 h 0.0078 c 9.2e-5,-0.0026 -8.9e-5,-0.0052 0,-0.0078 0.0039,-0.112094 0.0059,-0.225349 0.0059,-0.33789 v -17.53125 c 0,-3.677701 -1.92353,-7.088776 -5.070313,-8.992188 L 37.4375,4.796875 C 35.817532,3.8169808 33.998755,3.309655 32.173828,3.2792969 Z m -0.002,0.2011719 c 1.789998,0.029777 3.572902,0.5269938 5.162109,1.4882812 l 15.613282,9.443359 c 3.086825,1.867146 4.972656,5.212676 4.972656,8.820313 v 16.201172 c -0.488282,-2.501305 -1.872502,-4.754115 -3.908203,-6.31836 -0.004,-0.0031 -0.0077,-0.0067 -0.01172,-0.0098 -0.149066,-0.114139 -0.301115,-0.225431 -0.457031,-0.332031 -0.160287,-0.11013 -0.32424,-0.216764 -0.492188,-0.31836 L 37.4375,23.011719 c -3.343637,-2.02239 -7.533317,-2.02239 -10.876953,0 l -4.869141,2.945312 V 13.794922 c 0,-0.211095 0.0068,-0.421816 0.01953,-0.63086 0.0042,-0.0688 0.012,-0.136535 0.01758,-0.205078 0.01169,-0.14394 0.02533,-0.286999 0.04297,-0.429687 0.0075,-0.06081 0.01679,-0.121078 0.02539,-0.181641 0.02132,-0.150371 0.04639,-0.300511 0.07422,-0.449218 0.01322,-0.07043 0.02635,-0.14091 0.04102,-0.210938 0.0277,-0.132631 0.05898,-0.263456 0.0918,-0.394531 0.01681,-0.06701 0.03265,-0.134599 0.05078,-0.201172 0.03519,-0.129393 0.07511,-0.257114 0.115234,-0.384766 0.02543,-0.08075 0.04879,-0.162177 0.07617,-0.242187 0.04267,-0.124884 0.08936,-0.248121 0.136718,-0.371094 0.02302,-0.05978 0.04424,-0.120383 0.06836,-0.1796875 2.25e-4,-5.52e-4 -2.25e-4,-0.0014 0,-0.00195 0.06118,-0.1503475 0.129135,-0.2981833 0.197266,-0.4453125 0.01054,-0.022729 0.02054,-0.04571 0.03125,-0.068359 0.06716,-0.1420434 0.139344,-0.2831152 0.21289,-0.421875 0.01784,-0.033664 0.03452,-0.0681 0.05273,-0.1015625 0.07175,-0.1318229 0.147167,-0.2600928 0.22461,-0.3886719 0.02517,-0.041858 0.0504,-0.083499 0.07617,-0.125 0.07541,-0.121269 0.153946,-0.2412668 0.234375,-0.359375 0.03108,-0.045685 0.06193,-0.091524 0.09375,-0.1367187 0.08472,-0.1202164 0.171823,-0.238843 0.261719,-0.3554688 0.01926,-0.024981 0.0391,-0.049407 0.05859,-0.074219 0.101217,-0.1288527 0.20309,-0.2567322 0.310547,-0.3808594 0.354145,-0.4090854 0.743509,-0.7905845 1.16211,-1.1425781 0.01732,-0.014563 0.03336,-0.030465 0.05078,-0.044922 0.02172,-0.018026 0.04256,-0.036827 0.06445,-0.054687 0.0049,-0.00401 0.01066,-0.00772 0.01563,-0.011719 0.09059,-0.073018 0.186643,-0.1437116 0.283203,-0.2167968 0.09549,-0.072251 0.186483,-0.1442139 0.28125,-0.2109375 0.10378,-0.07311 0.212121,-0.1429309 0.320312,-0.2128907 0.02453,-0.015864 0.04761,-0.03309 0.07227,-0.048828 0.06996,-0.044653 0.137739,-0.09167 0.208984,-0.1347656 l 0.291016,-0.1757813 0.01758,-0.00977 0.002,-0.00195 C 28.58737,3.8882034 30.382736,3.4507056 32.171875,3.4804688 Z M 24.935547,6.015625 c -1.610718,1.4619925 -2.722141,3.389919 -3.191406,5.509766 -0.0035,0.01572 -0.0082,0.03114 -0.01172,0.04687 -0.02898,0.133815 -0.05435,0.269034 -0.07813,0.404296 -0.015,0.08374 -0.03002,0.167681 -0.04297,0.251954 -0.01808,0.119871 -0.03487,0.240499 -0.04883,0.361328 -0.01031,0.08763 -0.01731,0.175551 -0.02539,0.263672 -0.0098,0.10934 -0.02092,0.218134 -0.02734,0.328125 -0.01208,0.203295 -0.01953,0.407909 -0.01953,0.613281 v 12.318359 0.02148 0.177734 5.015625 c 0,3.676531 1.923194,7.084499 5.06836,8.988281 l 5.24414,3.175782 -10.078125,6.099609 c -3.16175,1.91382 -7.094616,1.983079 -10.3125,0.208984 -0.0013,-7.12e-4 -0.0026,-0.0012 -0.0039,-0.002 L 11.048828,49.582031 C 7.9635393,47.714558 6.0800781,44.370164 6.0800781,40.763672 v -17.53125 c 0,-3.607632 1.8857967,-6.953167 4.9726559,-8.820313 z m 7.0625,15.679687 c 1.847474,0 3.695931,0.496328 5.335937,1.488282 l 4.972657,3.007812 v 5.132813 c 0,3.606492 -1.88348,6.950833 -4.96875,8.818359 L 31.998047,43.375 26.662109,40.144531 c -3.085312,-1.867552 -4.970703,-5.209949 -4.970703,-8.816406 v -5.136719 l 4.972656,-3.007812 c 1.640008,-0.991954 3.486511,-1.488282 5.333985,-1.488282 z m 10.509765,4.617188 10.439454,6.314453 c 0.185569,0.112255 0.36624,0.228892 0.542968,0.351563 0.124524,0.08642 0.243267,0.178165 0.363282,0.269531 0.05087,0.03872 0.104253,0.07565 0.154296,0.115234 0.0018,0.0015 0.004,0.0025 0.0059,0.0039 0.165652,0.131208 0.325999,0.265888 0.482422,0.40625 0.0034,0.0031 0.0064,0.0067 0.0098,0.0098 0.154519,0.139029 0.304014,0.282212 0.449219,0.429688 0.0045,0.0046 0.0092,0.0091 0.01367,0.01367 0.143617,0.146413 0.28378,0.296962 0.417969,0.451172 0.0051,0.0059 0.0105,0.01167 0.01563,0.01758 0.05541,0.06397 0.106398,0.132021 0.160156,0.197266 0.08043,0.09759 0.163552,0.196528 0.240234,0.296875 0.122259,0.160098 0.239051,0.323496 0.351563,0.490235 0.0058,0.0085 0.01184,0.01684 0.01758,0.02539 0.111197,0.165861 0.217037,0.333934 0.318359,0.50586 v 0.002 c 0.212756,0.361146 0.40482,0.734346 0.572266,1.11914 0.0012,0.0027 0.0027,0.0051 0.0039,0.0078 0.08252,0.190075 0.159428,0.383057 0.230469,0.578125 0.0016,0.0044 0.0023,0.0092 0.0039,0.01367 0.07016,0.193464 0.134768,0.390027 0.19336,0.58789 0.0013,0.0046 0.0026,0.0091 0.0039,0.01367 0.05833,0.197965 0.111727,0.39775 0.158203,0.599609 0.0012,0.0052 0.0027,0.01039 0.0039,0.01563 0.04603,0.201366 0.08517,0.404638 0.119141,0.609374 3.14e-4,0.0019 -3.14e-4,0.004 0,0.0059 0.03442,0.208166 0.06427,0.417771 0.08594,0.628906 5.38e-4,0.0052 0.0014,0.01039 0.002,0.01563 0.02102,0.207931 0.0346,0.416651 0.04297,0.626953 7.8e-5,0.002 -7.7e-5,0.0039 0,0.0059 -0.09452,3.499226 -1.955535,6.721831 -4.960937,8.541015 L 37.337891,59.03125 c -3.281427,1.986225 -7.394486,1.986223 -10.675782,0 L 12.822266,50.654297 c 2.562208,0.925039 5.398164,0.822205 7.898437,-0.310547 0.179424,-0.08129 0.35748,-0.165925 0.533203,-0.257812 0.19389,-0.100777 0.385216,-0.207862 0.574219,-0.322266 l 10.363281,-6.271484 5.25,-3.177735 c 3.145209,-1.903806 5.066406,-5.31374 5.066406,-8.990234 z"
     transform="matrix(0.91387403,0,0,0.91387403,2.7560308,2.7560095)" /></svg>
