<?xml version="1.0" encoding="UTF-8" standalone="no"?>
<!-- Generator: Adobe Illustrator 25.2.1, SVG Export Plug-In . SVG Version: 6.00 Build 0)  -->

<svg
   version="1.1"
   id="Layer_1"
   x="0px"
   y="0px"
   viewBox="0 0 64 64"
   style="enable-background:new 0 0 64 64;"
   xml:space="preserve"
   sodipodi:docname="gis-weather.svg"
   inkscape:version="1.3.2 (091e20ef0f, 2023-11-25, custom)"
   xmlns:inkscape="http://www.inkscape.org/namespaces/inkscape"
   xmlns:sodipodi="http://sodipodi.sourceforge.net/DTD/sodipodi-0.dtd"
   xmlns:xlink="http://www.w3.org/1999/xlink"
   xmlns="http://www.w3.org/2000/svg"
   xmlns:svg="http://www.w3.org/2000/svg"><defs
   id="defs11"><linearGradient
     id="linearGradient13"
     inkscape:collect="always"><stop
       style="stop-color:#ffffff;stop-opacity:1;"
       offset="0"
       id="stop13" /><stop
       style="stop-color:#d2d2d2;stop-opacity:1;"
       offset="1"
       id="stop14" /></linearGradient><filter
     inkscape:collect="always"
     style="color-interpolation-filters:sRGB"
     id="filter11"
     x="-0.036557738"
     y="-0.041191817"
     width="1.0731155"
     height="1.0823836"><feGaussianBlur
       inkscape:collect="always"
       stdDeviation="0.85301387"
       id="feGaussianBlur11" /></filter><filter
     inkscape:collect="always"
     style="color-interpolation-filters:sRGB"
     id="filter12"
     x="-0.042650694"
     y="-0.06824111"
     width="1.0853014"
     height="1.1364822"><feGaussianBlur
       inkscape:collect="always"
       stdDeviation="0.85301387"
       id="feGaussianBlur12" /></filter><filter
     inkscape:collect="always"
     style="color-interpolation-filters:sRGB"
     id="filter13"
     x="-0.21385567"
     y="-0.21385567"
     width="1.4277113"
     height="1.4277113"><feGaussianBlur
       inkscape:collect="always"
       stdDeviation="2.1385566"
       id="feGaussianBlur13" /></filter><radialGradient
     inkscape:collect="always"
     xlink:href="#linearGradient13"
     id="radialGradient14"
     cx="40.793858"
     cy="40.102558"
     fx="40.793858"
     fy="40.102558"
     r="24"
     gradientTransform="matrix(1.3975641,0,-3.2551733e-8,1.381968,-40.229865,-6.8110969)"
     gradientUnits="userSpaceOnUse" /></defs><sodipodi:namedview
   id="namedview11"
   pagecolor="#ffffff"
   bordercolor="#000000"
   borderopacity="0.25"
   inkscape:showpageshadow="2"
   inkscape:pageopacity="0.0"
   inkscape:pagecheckerboard="0"
   inkscape:deskcolor="#d1d1d1"
   showguides="false"
   inkscape:zoom="13.890625"
   inkscape:cx="32"
   inkscape:cy="32.935883"
   inkscape:window-width="1920"
   inkscape:window-height="1018"
   inkscape:window-x="0"
   inkscape:window-y="0"
   inkscape:window-maximized="1"
   inkscape:current-layer="Layer_1" />
<style
   type="text/css"
   id="style1">
	.st0{opacity:0.2;fill:#FFFFFF;enable-background:new    ;}
	.st1{opacity:0.2;fill:#0D0D08;enable-background:new    ;}
	.st2{fill:url(#SVGID_1_);}
	.st3{fill:url(#SVGID_2_);}
	.st4{fill:url(#SVGID_3_);}
	.st5{opacity:0.2;enable-background:new    ;}
	.st6{fill:#FFFFFF;}
</style>


<radialGradient
   id="SVGID_1_"
   cx="13.286"
   cy="20.8168"
   r="53.5995"
   gradientUnits="userSpaceOnUse"
   gradientTransform="matrix(1.0224722,0,0,1.0224722,0.30336231,-1.2988926)">
	<stop
   offset="0"
   style="stop-color:#00F0F4"
   id="stop2" />
	<stop
   offset="1"
   style="stop-color:#1598FF"
   id="stop3" />
</radialGradient>

<radialGradient
   id="SVGID_2_"
   cx="18.887732"
   cy="23.331114"
   r="43.885"
   gradientUnits="userSpaceOnUse"
   gradientTransform="matrix(-1.3708142,0,0,-1.3708142,72.844972,59.337154)"
   fx="18.887732"
   fy="23.331114">
	<stop
   offset="0"
   style="stop-color:#FF4500"
   id="stop4" />
	<stop
   offset="1"
   style="stop-color:#FFAC00"
   id="stop5" />
</radialGradient>


<radialGradient
   id="SVGID_3_"
   cx="15.451116"
   cy="28.595697"
   r="32.3983"
   fx="15.451116"
   fy="28.595697"
   gradientUnits="userSpaceOnUse"
   gradientTransform="translate(23.604439,6.4747588)">
	<stop
   offset="0"
   style="stop-color:#ffee00;stop-opacity:1;"
   id="stop6" />
	<stop
   offset="1"
   style="stop-color:#ff6000;stop-opacity:1;"
   id="stop7" />
</radialGradient>






<path
   class="st1"
   d="m 60,38.3 c 0,7.5 -2.9,14.3 -7.7,19.3 -5.1,5.4 -13.6,0 -21.6,0 -8.1,0 -14.1,5.2 -19.2,-0.3 C 6.8000002,52.4 4.0000002,45.7 4.0000002,38.3 4.0000002,22.8 16.5,10.3 32,10.3 c 15.5,0 28,12.6 28,28 z"
   id="path2"
   style="opacity:0.436415;filter:url(#filter11)" /><path
   class="st2"
   d="m 60.629222,35.612354 c 0,7.668541 -2.965169,14.621352 -7.873036,19.733713 -5.214608,5.52135 -13.905622,0 -22.0854,0 -8.282024,0 -14.416858,5.316856 -19.631466,-0.306741 C 6.2337011,50.029212 3.3707789,43.178648 3.3707789,35.612354 3.3707789,19.764035 16.151681,6.9831322 32,6.9831322 c 15.848319,0 28.629222,12.7809028 28.629222,28.6292218 z"
   id="path3"
   style="fill:url(#SVGID_1_);stroke-width:1" /><circle
   class="st1"
   cx="44.633896"
   cy="28.902502"
   r="12"
   id="circle5"
   style="mix-blend-mode:normal;fill:#ffff70;fill-opacity:1;filter:url(#filter13)" /><circle
   class="st4"
   cx="44.80444"
   cy="28.674761"
   r="12"
   id="circle7"
   style="opacity:0.876524;fill:url(#SVGID_3_)" /><circle
   class="st5"
   cx="31.6"
   cy="44.299999"
   r="11.4"
   id="circle8" /><path
   class="st5"
   d="m 32,31 c -6.6,0 -12,5.4 -12,12 0,0.2 0,0.4 0,0.5 C 19,43.2 18,43 17,43 12,43 8.0000002,47 8.0000002,52 8.0000002,57 12,61 17,61 h 30 c 5,0 9,-4 9,-9 0,-5 -4,-9 -9,-9 -1,0 -2.1,0.2 -3,0.5 0,-0.2 0,-0.4 0,-0.5 0,-6.6 -5.4,-12 -12,-12 z"
   id="path8"
   style="opacity:0.436415;filter:url(#filter12)" /><g
   id="g13"
   style="fill:url(#radialGradient14)"><circle
     class="st6"
     cx="17"
     cy="51"
     r="9"
     id="circle9"
     style="fill:url(#radialGradient14)" /><circle
     class="st6"
     cx="32"
     cy="42"
     r="12"
     id="circle10"
     style="fill:url(#radialGradient14)" /><circle
     class="st6"
     cx="47"
     cy="51"
     r="9"
     id="circle11"
     style="fill:url(#radialGradient14)" /><rect
     x="17"
     y="48"
     class="st6"
     width="30"
     height="12"
     id="rect11"
     style="fill:url(#radialGradient14)" /></g>
</svg>
